<?xml version="1.0" encoding="UTF-8"?><svg xmlns="http://www.w3.org/2000/svg" xmlns:xlink="http://www.w3.org/1999/xlink" width="375pt" zoomAndPan="magnify" viewBox="0 0 375 374.999991" height="374.999991pt" preserveAspectRatio="xMidYMid meet" version="1.2"><defs><g/></defs><g xml:id="surface1" id="surface1"><path style=" stroke:none;fill-rule:nonzero;fill:rgb(100%,89.019775%,87.838745%);fill-opacity:1;" d="M 187.5 37.5 C 185.046875 37.5 182.589844 37.558594 180.140625 37.679688 C 177.6875 37.800781 175.242188 37.980469 172.796875 38.222656 C 170.355469 38.464844 167.917969 38.761719 165.492188 39.125 C 163.0625 39.484375 160.644531 39.902344 158.238281 40.382812 C 155.828125 40.859375 153.433594 41.398438 151.054688 41.996094 C 148.671875 42.589844 146.304688 43.246094 143.957031 43.957031 C 141.609375 44.671875 139.277344 45.441406 136.964844 46.269531 C 134.65625 47.09375 132.367188 47.980469 130.097656 48.917969 C 127.828125 49.859375 125.585938 50.851562 123.367188 51.902344 C 121.148438 52.953125 118.957031 54.054688 116.789062 55.210938 C 114.625 56.367188 112.488281 57.578125 110.382812 58.839844 C 108.277344 60.101562 106.207031 61.414062 104.164062 62.78125 C 102.125 64.144531 100.117188 65.554688 98.144531 67.019531 C 96.171875 68.480469 94.238281 69.992188 92.339844 71.546875 C 90.445312 73.105469 88.585938 74.707031 86.765625 76.355469 C 84.945312 78.007812 83.167969 79.699219 81.433594 81.433594 C 79.699219 83.167969 78.007812 84.945312 76.355469 86.765625 C 74.707031 88.585938 73.105469 90.445312 71.546875 92.339844 C 69.992188 94.238281 68.480469 96.171875 67.019531 98.144531 C 65.554688 100.117188 64.144531 102.125 62.78125 104.164062 C 61.414062 106.207031 60.101562 108.277344 58.839844 110.382812 C 57.578125 112.488281 56.367188 114.625 55.210938 116.789062 C 54.054688 118.957031 52.953125 121.148438 51.902344 123.367188 C 50.851562 125.585938 49.859375 127.828125 48.917969 130.097656 C 47.980469 132.367188 47.09375 134.65625 46.269531 136.964844 C 45.441406 139.277344 44.671875 141.609375 43.957031 143.957031 C 43.246094 146.304688 42.589844 148.671875 41.996094 151.054688 C 41.398438 153.433594 40.859375 155.828125 40.382812 158.238281 C 39.902344 160.644531 39.484375 163.0625 39.125 165.492188 C 38.761719 167.917969 38.464844 170.355469 38.222656 172.796875 C 37.980469 175.242188 37.800781 177.6875 37.679688 180.140625 C 37.558594 182.589844 37.5 185.046875 37.5 187.5 C 37.5 189.953125 37.558594 192.410156 37.679688 194.859375 C 37.800781 197.3125 37.980469 199.757812 38.222656 202.203125 C 38.464844 204.644531 38.761719 207.082031 39.125 209.507812 C 39.484375 211.9375 39.902344 214.355469 40.382812 216.761719 C 40.859375 219.171875 41.398438 221.566406 41.996094 223.945312 C 42.589844 226.328125 43.246094 228.695312 43.957031 231.042969 C 44.671875 233.390625 45.441406 235.722656 46.269531 238.035156 C 47.09375 240.34375 47.980469 242.632812 48.917969 244.902344 C 49.859375 247.171875 50.851562 249.414062 51.902344 251.632812 C 52.953125 253.851562 54.054688 256.042969 55.210938 258.210938 C 56.367188 260.375 57.578125 262.511719 58.839844 264.617188 C 60.101562 266.722656 61.414062 268.792969 62.78125 270.835938 C 64.144531 272.875 65.554688 274.882812 67.019531 276.855469 C 68.480469 278.828125 69.992188 280.761719 71.546875 282.660156 C 73.105469 284.554688 74.707031 286.414062 76.355469 288.234375 C 78.007812 290.050781 79.699219 291.832031 81.433594 293.566406 C 83.167969 295.300781 84.945312 296.992188 86.765625 298.644531 C 88.585938 300.292969 90.445312 301.894531 92.339844 303.453125 C 94.238281 305.007812 96.171875 306.519531 98.144531 307.980469 C 100.117188 309.445312 102.125 310.855469 104.164062 312.21875 C 106.207031 313.585938 108.277344 314.898438 110.382812 316.160156 C 112.488281 317.421875 114.625 318.632812 116.789062 319.789062 C 118.957031 320.945312 121.148438 322.046875 123.367188 323.097656 C 125.585938 324.148438 127.828125 325.140625 130.097656 326.082031 C 132.367188 327.019531 134.65625 327.90625 136.964844 328.730469 C 139.277344 329.558594 141.609375 330.328125 143.957031 331.039062 C 146.304688 331.753906 148.671875 332.40625 151.054688 333.003906 C 153.433594 333.601562 155.828125 334.140625 158.238281 334.617188 C 160.644531 335.097656 163.0625 335.515625 165.492188 335.875 C 167.917969 336.238281 170.355469 336.535156 172.796875 336.777344 C 175.242188 337.019531 177.6875 337.199219 180.140625 337.320312 C 182.589844 337.441406 185.046875 337.5 187.5 337.5 C 189.953125 337.5 192.410156 337.441406 194.859375 337.320312 C 197.3125 337.199219 199.757812 337.019531 202.203125 336.777344 C 204.644531 336.535156 207.082031 336.238281 209.507812 335.875 C 211.9375 335.515625 214.355469 335.097656 216.761719 334.617188 C 219.171875 334.140625 221.566406 333.601562 223.945312 333.003906 C 226.328125 332.40625 228.695312 331.753906 231.042969 331.039062 C 233.390625 330.328125 235.722656 329.558594 238.035156 328.730469 C 240.34375 327.90625 242.632812 327.019531 244.902344 326.082031 C 247.171875 325.140625 249.414062 324.148438 251.632812 323.097656 C 253.851562 322.046875 256.042969 320.945312 258.210938 319.789062 C 260.375 318.632812 262.511719 317.421875 264.617188 316.160156 C 266.722656 314.898438 268.792969 313.585938 270.835938 312.21875 C 272.875 310.855469 274.882812 309.445312 276.855469 307.980469 C 278.828125 306.519531 280.761719 305.007812 282.660156 303.453125 C 284.554688 301.894531 286.414062 300.292969 288.234375 298.644531 C 290.050781 296.992188 291.832031 295.300781 293.566406 293.566406 C 295.300781 291.832031 296.992188 290.050781 298.644531 288.234375 C 300.292969 286.414062 301.894531 284.554688 303.453125 282.660156 C 305.007812 280.761719 306.519531 278.828125 307.980469 276.855469 C 309.445312 274.882812 310.855469 272.875 312.21875 270.835938 C 313.585938 268.792969 314.898438 266.722656 316.160156 264.617188 C 317.421875 262.507812 318.632812 260.375 319.789062 258.210938 C 320.945312 256.042969 322.046875 253.851562 323.097656 251.632812 C 324.148438 249.414062 325.140625 247.171875 326.082031 244.902344 C 327.019531 242.632812 327.90625 240.34375 328.730469 238.035156 C 329.558594 235.722656 330.328125 233.390625 331.039062 231.042969 C 331.753906 228.695312 332.40625 226.328125 333.003906 223.945312 C 333.601562 221.566406 334.140625 219.171875 334.617188 216.761719 C 335.097656 214.355469 335.515625 211.9375 335.875 209.507812 C 336.238281 207.082031 336.535156 204.644531 336.777344 202.203125 C 337.019531 199.757812 337.199219 197.3125 337.320312 194.859375 C 337.441406 192.410156 337.5 189.953125 337.5 187.5 C 337.5 185.046875 337.441406 182.589844 337.320312 180.140625 C 337.199219 177.6875 337.019531 175.242188 336.777344 172.796875 C 336.535156 170.355469 336.238281 167.917969 335.875 165.492188 C 335.515625 163.0625 335.097656 160.644531 334.617188 158.238281 C 334.140625 155.828125 333.601562 153.433594 333.003906 151.054688 C 332.40625 148.671875 331.753906 146.304688 331.039062 143.957031 C 330.328125 141.609375 329.558594 139.277344 328.730469 136.964844 C 327.90625 134.65625 327.019531 132.367188 326.082031 130.097656 C 325.140625 127.828125 324.148438 125.585938 323.097656 123.367188 C 322.046875 121.148438 320.945312 118.957031 319.789062 116.789062 C 318.632812 114.625 317.421875 112.488281 316.160156 110.382812 C 314.898438 108.277344 313.585938 106.207031 312.21875 104.164062 C 310.855469 102.125 309.445312 100.117188 307.980469 98.144531 C 306.519531 96.171875 305.007812 94.238281 303.453125 92.339844 C 301.894531 90.445312 300.292969 88.585938 298.644531 86.765625 C 296.992188 84.945312 295.300781 83.167969 293.566406 81.433594 C 291.832031 79.699219 290.050781 78.007812 288.234375 76.355469 C 286.414062 74.707031 284.554688 73.105469 282.660156 71.546875 C 280.761719 69.992188 278.828125 68.480469 276.855469 67.019531 C 274.882812 65.554688 272.875 64.144531 270.835938 62.78125 C 268.792969 61.414062 266.722656 60.101562 264.617188 58.839844 C 262.511719 57.578125 260.375 56.367188 258.210938 55.210938 C 256.042969 54.054688 253.851562 52.953125 251.632812 51.902344 C 249.414062 50.851562 247.171875 49.859375 244.902344 48.917969 C 242.632812 47.980469 240.34375 47.09375 238.035156 46.269531 C 235.722656 45.441406 233.390625 44.671875 231.042969 43.957031 C 228.695312 43.246094 226.328125 42.589844 223.945312 41.996094 C 221.566406 41.398438 219.171875 40.859375 216.761719 40.382812 C 214.355469 39.902344 211.9375 39.484375 209.507812 39.125 C 207.082031 38.761719 204.644531 38.464844 202.203125 38.222656 C 199.757812 37.980469 197.3125 37.800781 194.859375 37.679688 C 192.410156 37.558594 189.953125 37.5 187.5 37.5 Z M 187.5 37.5 "/><g style="fill:rgb(100%,34.118652%,21.179199%);fill-opacity:1;"><g transform="translate(98.605263, 190.790788)"><path style="stroke:none;" d="M 1.734375 -3.640625 L 1.734375 -8.734375 L 3.640625 -8.734375 L 3.640625 -4.421875 C 4.535156 -3.617188 5.625 -2.9375 6.90625 -2.375 C 8.1875 -1.8125 9.707031 -1.53125 11.46875 -1.53125 C 12.53125 -1.53125 13.5625 -1.695312 14.5625 -2.03125 C 15.570312 -2.375 16.460938 -2.859375 17.234375 -3.484375 C 18.003906 -4.109375 18.617188 -4.867188 19.078125 -5.765625 C 19.546875 -6.660156 19.78125 -7.679688 19.78125 -8.828125 C 19.78125 -10.234375 19.539062 -11.382812 19.0625 -12.28125 C 18.582031 -13.175781 17.957031 -13.910156 17.1875 -14.484375 C 16.414062 -15.066406 15.535156 -15.535156 14.546875 -15.890625 C 13.554688 -16.242188 12.539062 -16.570312 11.5 -16.875 C 10.457031 -17.175781 9.429688 -17.503906 8.421875 -17.859375 C 7.410156 -18.210938 6.5 -18.675781 5.6875 -19.25 C 4.875 -19.820312 4.207031 -20.546875 3.6875 -21.421875 C 3.175781 -22.304688 2.890625 -23.4375 2.828125 -24.8125 C 2.765625 -25.875 2.894531 -26.9375 3.21875 -28 C 3.539062 -29.070312 4.050781 -30.03125 4.75 -30.875 C 5.457031 -31.726562 6.367188 -32.425781 7.484375 -32.96875 C 8.609375 -33.519531 9.96875 -33.796875 11.5625 -33.796875 C 12.113281 -33.796875 12.707031 -33.757812 13.34375 -33.6875 C 13.976562 -33.625 14.628906 -33.515625 15.296875 -33.359375 C 15.972656 -33.203125 16.648438 -32.960938 17.328125 -32.640625 C 18.003906 -32.316406 18.644531 -31.898438 19.25 -31.390625 L 19.25 -26.203125 L 17.328125 -26.203125 L 17.328125 -30.4375 C 16.722656 -30.820312 15.929688 -31.15625 14.953125 -31.4375 C 13.972656 -31.726562 12.828125 -31.875 11.515625 -31.875 C 10.398438 -31.875 9.425781 -31.6875 8.59375 -31.3125 C 7.757812 -30.945312 7.0625 -30.453125 6.5 -29.828125 C 5.9375 -29.203125 5.519531 -28.484375 5.25 -27.671875 C 4.976562 -26.859375 4.84375 -26.019531 4.84375 -25.15625 C 4.84375 -24 5.082031 -23.050781 5.5625 -22.3125 C 6.039062 -21.582031 6.671875 -20.976562 7.453125 -20.5 C 8.242188 -20.019531 9.140625 -19.617188 10.140625 -19.296875 C 11.148438 -18.972656 12.179688 -18.648438 13.234375 -18.328125 C 14.296875 -18.015625 15.332031 -17.640625 16.34375 -17.203125 C 17.351562 -16.773438 18.253906 -16.21875 19.046875 -15.53125 C 19.847656 -14.84375 20.5 -13.96875 21 -12.90625 C 21.5 -11.851562 21.765625 -10.523438 21.796875 -8.921875 C 21.796875 -7.515625 21.53125 -6.234375 21 -5.078125 C 20.46875 -3.929688 19.742188 -2.945312 18.828125 -2.125 C 17.921875 -1.3125 16.84375 -0.6875 15.59375 -0.25 C 14.351562 0.175781 13.039062 0.390625 11.65625 0.390625 C 10.414062 0.390625 9.265625 0.257812 8.203125 0 C 7.148438 -0.257812 6.195312 -0.585938 5.34375 -0.984375 C 4.5 -1.378906 3.769531 -1.816406 3.15625 -2.296875 C 2.550781 -2.785156 2.078125 -3.234375 1.734375 -3.640625 Z M 1.734375 -3.640625 "/></g></g><g style="fill:rgb(100%,34.118652%,21.179199%);fill-opacity:1;"><g transform="translate(125.053224, 190.790788)"><path style="stroke:none;" d="M 1.6875 -16.75 C 1.6875 -19.113281 2.132812 -21.34375 3.03125 -23.4375 C 3.925781 -25.539062 5.148438 -27.367188 6.703125 -28.921875 C 8.253906 -30.472656 10.066406 -31.703125 12.140625 -32.609375 C 14.222656 -33.523438 16.445312 -33.984375 18.8125 -33.984375 C 21.1875 -33.984375 23.421875 -33.523438 25.515625 -32.609375 C 27.609375 -31.703125 29.429688 -30.472656 30.984375 -28.921875 C 32.535156 -27.367188 33.765625 -25.539062 34.671875 -23.4375 C 35.585938 -21.34375 36.046875 -19.113281 36.046875 -16.75 C 36.046875 -14.382812 35.585938 -12.160156 34.671875 -10.078125 C 33.765625 -7.992188 32.535156 -6.175781 30.984375 -4.625 C 29.429688 -3.070312 27.609375 -1.847656 25.515625 -0.953125 C 23.421875 -0.0546875 21.1875 0.390625 18.8125 0.390625 C 16.445312 0.390625 14.222656 -0.0546875 12.140625 -0.953125 C 10.066406 -1.847656 8.253906 -3.070312 6.703125 -4.625 C 5.148438 -6.175781 3.925781 -7.992188 3.03125 -10.078125 C 2.132812 -12.160156 1.6875 -14.382812 1.6875 -16.75 Z M 3.703125 -16.703125 C 3.703125 -14.585938 4.09375 -12.609375 4.875 -10.765625 C 5.65625 -8.929688 6.734375 -7.332031 8.109375 -5.96875 C 9.484375 -4.613281 11.082031 -3.535156 12.90625 -2.734375 C 14.726562 -1.929688 16.679688 -1.53125 18.765625 -1.53125 C 20.847656 -1.53125 22.816406 -1.929688 24.671875 -2.734375 C 26.523438 -3.535156 28.144531 -4.625 29.53125 -6 C 30.925781 -7.375 32.023438 -8.976562 32.828125 -10.8125 C 33.628906 -12.65625 34.03125 -14.632812 34.03125 -16.75 C 34.03125 -18.863281 33.628906 -20.847656 32.828125 -22.703125 C 32.023438 -24.554688 30.9375 -26.175781 29.5625 -27.5625 C 28.1875 -28.957031 26.570312 -30.054688 24.71875 -30.859375 C 22.863281 -31.660156 20.894531 -32.0625 18.8125 -32.0625 C 16.738281 -32.0625 14.78125 -31.648438 12.9375 -30.828125 C 11.09375 -30.015625 9.484375 -28.910156 8.109375 -27.515625 C 6.734375 -26.128906 5.65625 -24.507812 4.875 -22.65625 C 4.09375 -20.800781 3.703125 -18.816406 3.703125 -16.703125 Z M 3.703125 -16.703125 "/></g></g><g style="fill:rgb(100%,34.118652%,21.179199%);fill-opacity:1;"><g transform="translate(166.285154, 190.790788)"><path style="stroke:none;" d="M 1.6875 -1.921875 L 4.609375 -1.921875 L 4.609375 -31.6875 L 1.6875 -31.6875 L 1.6875 -33.59375 L 11.8125 -33.59375 C 12.800781 -33.59375 13.882812 -33.429688 15.0625 -33.109375 C 16.25 -32.796875 17.363281 -32.285156 18.40625 -31.578125 C 19.445312 -30.878906 20.316406 -29.96875 21.015625 -28.84375 C 21.722656 -27.726562 22.078125 -26.382812 22.078125 -24.8125 C 22.078125 -22.0625 21.203125 -19.867188 19.453125 -18.234375 C 17.710938 -16.609375 15.195312 -15.796875 11.90625 -15.796875 L 6.578125 -15.796875 L 6.578125 -1.921875 L 11.328125 -1.921875 L 11.328125 0 L 1.6875 0 Z M 6.578125 -17.765625 L 11.5625 -17.765625 C 13.226562 -17.765625 14.613281 -17.988281 15.71875 -18.4375 C 16.820312 -18.882812 17.703125 -19.457031 18.359375 -20.15625 C 19.015625 -20.863281 19.46875 -21.625 19.71875 -22.4375 C 19.976562 -23.25 20.109375 -24.039062 20.109375 -24.8125 C 20.109375 -25.707031 19.890625 -26.570312 19.453125 -27.40625 C 19.023438 -28.238281 18.425781 -28.972656 17.65625 -29.609375 C 16.894531 -30.253906 15.992188 -30.757812 14.953125 -31.125 C 13.910156 -31.5 12.796875 -31.6875 11.609375 -31.6875 L 6.578125 -31.6875 Z M 6.578125 -17.765625 "/></g></g><g style="fill:rgb(100%,34.118652%,21.179199%);fill-opacity:1;"><g transform="translate(193.549116, 190.790788)"><path style="stroke:none;" d="M 24.09375 -33.59375 L 33.75 -33.59375 L 33.75 -31.6875 L 30.046875 -31.6875 L 30.046875 -1.921875 L 33.75 -1.921875 L 33.75 0 L 24.09375 0 L 24.09375 -1.921875 L 28.03125 -1.921875 L 28.03125 -15.984375 L 7.390625 -15.984375 L 7.390625 -1.921875 L 11.328125 -1.921875 L 11.328125 0 L 1.6875 0 L 1.6875 -1.921875 L 5.421875 -1.921875 L 5.421875 -31.6875 L 1.6875 -31.6875 L 1.6875 -33.59375 L 11.328125 -33.59375 L 11.328125 -31.6875 L 7.390625 -31.6875 L 7.390625 -17.90625 L 28.03125 -17.90625 L 28.03125 -31.6875 L 24.09375 -31.6875 Z M 24.09375 -33.59375 "/></g></g><g style="fill:rgb(100%,34.118652%,21.179199%);fill-opacity:1;"><g transform="translate(232.477049, 190.790788)"><path style="stroke:none;" d="M 1.6875 -1.921875 L 5.421875 -1.921875 L 5.421875 -31.6875 L 1.6875 -31.6875 L 1.6875 -33.59375 L 11.328125 -33.59375 L 11.328125 -31.6875 L 7.390625 -31.6875 L 7.390625 -1.921875 L 11.328125 -1.921875 L 11.328125 0 L 1.6875 0 Z M 1.6875 -1.921875 "/></g></g><g style="fill:rgb(100%,34.118652%,21.179199%);fill-opacity:1;"><g transform="translate(248.989019, 190.790788)"><path style="stroke:none;" d="M 1.6875 -1.921875 L 5.140625 -1.921875 L 5.140625 -31.6875 L 1.6875 -31.6875 L 1.6875 -33.59375 L 25.0625 -33.59375 L 25.0625 -26.203125 L 23.140625 -26.203125 L 23.140625 -31.6875 L 7.109375 -31.6875 L 7.109375 -17.90625 L 23.1875 -17.90625 L 23.1875 -15.984375 L 7.109375 -15.984375 L 7.109375 -1.921875 L 23.8125 -1.921875 L 23.8125 -7.390625 L 25.734375 -7.390625 L 25.734375 0 L 1.6875 0 Z M 1.6875 -1.921875 "/></g></g><g style="fill:rgb(100%,34.118652%,21.179199%);fill-opacity:1;"><g transform="translate(126.116481, 210.140787)"><path style="stroke:none;" d="M 30.347656 -8.964844 C 29.988281 -9.359375 29.375 -9.394531 29.015625 -9.035156 C 28.90625 -8.964844 18.539062 0.289062 4.03125 -2.339844 C 1.585938 -2.773438 0.324219 -3.707031 0.324219 -5.074219 C 0.289062 -7.597656 4.210938 -11.269531 6.804688 -11.773438 C 7.597656 -12.023438 8.460938 -11.878906 9.179688 -11.410156 C 9.683594 -10.90625 9.972656 -10.1875 9.972656 -9.433594 C 9.972656 -8.929688 10.367188 -8.496094 10.871094 -8.496094 C 11.410156 -8.496094 11.808594 -8.890625 11.84375 -9.394531 C 11.878906 -10.691406 11.339844 -11.953125 10.402344 -12.851562 C 9.253906 -13.714844 7.8125 -14.003906 6.445312 -13.609375 C 3.3125 -13.03125 -1.585938 -8.855469 -1.546875 -5.039062 C -1.546875 -3.671875 -0.863281 -1.296875 3.707031 -0.46875 C 5.542969 -0.144531 7.414062 0.0351562 9.324219 0.0351562 C 16.957031 -0.0351562 24.371094 -2.734375 30.277344 -7.632812 C 30.457031 -7.8125 30.5625 -8.0625 30.601562 -8.28125 C 30.601562 -8.53125 30.492188 -8.785156 30.347656 -8.964844 Z M 30.347656 -8.964844 "/></g></g><g style="fill:rgb(100%,34.118652%,21.179199%);fill-opacity:1;"><g transform="translate(157.580536, 210.140787)"><path style="stroke:none;" d="M 28.402344 -8.605469 C 28.042969 -9 27.46875 -9.035156 27.070312 -8.675781 C 27 -8.640625 19.585938 -2.160156 14.148438 -3.023438 C 12.527344 -3.277344 11.125 -4.246094 10.332031 -5.6875 C 9.648438 -6.949219 8.386719 -7.738281 6.984375 -7.882812 C 5.21875 -7.992188 3.277344 -6.949219 1.222656 -4.789062 C 1.117188 -4.679688 0.9375 -4.644531 0.792969 -4.714844 C 0.648438 -4.789062 0.574219 -4.933594 0.613281 -5.113281 C 0.71875 -5.796875 1.042969 -7.523438 1.1875 -8.171875 C 1.1875 -8.0625 1.441406 -8.566406 1.441406 -8.605469 C 4.5 -12.78125 13.644531 -26.027344 10.078125 -30.277344 C 9.613281 -30.925781 8.746094 -31.210938 7.957031 -30.996094 C 7.234375 -30.78125 5.039062 -30.097656 1.65625 -18.070312 C 0.828125 -15.15625 0.0703125 -12.023438 -0.539062 -9.070312 L -0.792969 -8.746094 C -1.042969 -8.425781 -1.042969 -7.992188 -0.828125 -7.632812 C -1.367188 -4.96875 -1.726562 -2.519531 -1.90625 -0.648438 C -1.945312 -0.214844 -1.691406 0.179688 -1.296875 0.324219 C -0.898438 0.46875 -0.433594 0.324219 -0.179688 -0.0351562 C 3.492188 -5.363281 5.832031 -6.046875 6.875 -6.011719 C 7.632812 -5.941406 8.316406 -5.472656 8.675781 -4.789062 C 9.757812 -2.84375 11.664062 -1.476562 13.894531 -1.152344 C 20.160156 -0.179688 27.972656 -6.984375 28.332031 -7.273438 C 28.691406 -7.632812 28.726562 -8.207031 28.402344 -8.605469 Z M 8.496094 -29.195312 C 8.566406 -29.195312 8.605469 -29.089844 8.640625 -29.050781 C 10.367188 -27.109375 3.203125 -12.636719 2.304688 -13.210938 C 1.441406 -13.753906 6.984375 -29.195312 8.496094 -29.195312 Z M 8.496094 -29.195312 "/></g></g><g style="fill:rgb(100%,34.118652%,21.179199%);fill-opacity:1;"><g transform="translate(187.424588, 210.140787)"><path style="stroke:none;" d="M 30.203125 -9.253906 C 30.023438 -9.433594 29.808594 -9.574219 29.554688 -9.574219 C 29.304688 -9.613281 29.050781 -9.539062 28.871094 -9.394531 C 28.726562 -9.289062 14.867188 1.726562 3.3125 -3.023438 C 0.972656 -3.996094 0.863281 -5.257812 0.9375 -5.941406 C 0.9375 -6.046875 0.972656 -6.15625 1.078125 -6.226562 C 1.152344 -6.300781 1.296875 -6.300781 1.402344 -6.265625 C 3.742188 -6.121094 6.085938 -6.730469 8.101562 -7.992188 C 9.828125 -9.109375 10.117188 -10.332031 10.007812 -11.125 C 9.9375 -12.421875 8.890625 -13.464844 7.558594 -13.5 C 4.714844 -13.644531 -0.0351562 -10.261719 -0.828125 -6.660156 C -1.152344 -5.328125 -1.117188 -2.808594 2.59375 -1.296875 C 4.859375 -0.359375 7.234375 0.0703125 9.648438 0.0703125 C 19.980469 0.0703125 29.554688 -7.523438 30.058594 -7.921875 C 30.238281 -8.0625 30.382812 -8.316406 30.382812 -8.53125 C 30.421875 -8.785156 30.347656 -9.035156 30.203125 -9.253906 Z M 2.230469 -8.460938 C 3.636719 -10.402344 5.976562 -11.699219 7.453125 -11.59375 C 7.847656 -11.59375 8.0625 -11.449219 8.136719 -10.90625 C 8.171875 -10.546875 7.777344 -10.042969 7.054688 -9.574219 C 5.578125 -8.605469 1.152344 -7.019531 2.230469 -8.460938 Z M 2.230469 -8.460938 "/></g></g><g style="fill:rgb(100%,34.118652%,21.179199%);fill-opacity:1;"><g transform="translate(218.888646, 210.140787)"><path style="stroke:none;" d="M 31.464844 -8.964844 C 31.246094 -9.109375 31.03125 -9.214844 30.78125 -9.214844 C 30.527344 -9.179688 30.277344 -9.070312 30.132812 -8.890625 C 30.023438 -8.820312 22.105469 -0.359375 15.226562 -3.132812 C 13.753906 -3.925781 12.5625 -5.113281 11.734375 -6.589844 C 11.449219 -7.054688 11.089844 -7.523438 10.65625 -7.957031 C 10.1875 -8.53125 9.46875 -8.855469 8.710938 -8.890625 C 6.875 -9.035156 4.644531 -7.8125 1.980469 -5.292969 C 1.90625 -5.21875 1.800781 -5.183594 1.691406 -5.257812 C 1.585938 -5.292969 1.511719 -5.4375 1.546875 -5.542969 L 2.339844 -9.070312 C 2.484375 -9.574219 2.160156 -10.117188 1.65625 -10.222656 C 1.152344 -10.332031 0.648438 -10.007812 0.503906 -9.503906 L -1.296875 -1.621094 C -1.402344 -1.1875 -1.1875 -0.757812 -0.792969 -0.574219 C -0.394531 -0.359375 0.0703125 -0.46875 0.359375 -0.792969 C 5.183594 -6.445312 7.632812 -6.984375 8.496094 -7.019531 C 9.359375 -7.054688 9.898438 -5.941406 10.1875 -5.507812 C 11.195312 -3.742188 12.707031 -2.304688 14.507812 -1.402344 C 22.570312 1.871094 31.140625 -7.234375 31.5 -7.632812 C 31.859375 -7.992188 31.824219 -8.605469 31.464844 -8.964844 Z M 31.464844 -8.964844 "/></g></g><g style="fill:rgb(100%,34.118652%,21.179199%);fill-opacity:1;"><g transform="translate(156.350099, 121.153592)"><path style="stroke:none;" d="M 12.007812 -13.253906 L 6.214844 -11.097656 L 6.417969 -10.558594 L 8.992188 -11.515625 L 10.261719 -7.96875 C 11.054688 -5.765625 9.761719 -4.082031 7.308594 -3.167969 C 4.824219 -2.242188 2.753906 -2.675781 1.914062 -4.875 L 0.570312 -8.378906 L 3.15625 -9.34375 L 2.953125 -9.882812 L -2.847656 -7.722656 L -2.648438 -7.183594 L -0.0273438 -8.160156 L 1.226562 -4.785156 C 2.207031 -2.152344 4.636719 -1.546875 7.515625 -2.617188 C 10.382812 -3.683594 11.8125 -5.726562 10.832031 -8.359375 L 9.578125 -11.734375 L 12.207031 -12.714844 Z M 12.007812 -13.253906 "/></g></g><g style="fill:rgb(100%,34.118652%,21.179199%);fill-opacity:1;"><g transform="translate(171.547382, 115.589541)"><path style="stroke:none;" d="M 11.121094 -9.078125 L 13.289062 -9.34375 L 13.21875 -9.914062 L 7.859375 -9.257812 L 7.929688 -8.699219 L 10.285156 -8.988281 L 6.945312 -5.277344 L 2.867188 -8.078125 L 5.152344 -8.359375 L 5.085938 -8.917969 L -0.335938 -8.253906 L -0.265625 -7.679688 L 1.855469 -7.941406 L 6.464844 -4.855469 L 2.992188 -0.945312 L 0.597656 -0.652344 L 0.667969 -0.0820312 L 6.015625 -0.738281 L 5.945312 -1.308594 L 3.835938 -1.050781 L 6.949219 -4.5625 L 10.828125 -1.910156 L 8.742188 -1.652344 L 8.8125 -1.082031 L 14.222656 -1.746094 L 14.152344 -2.316406 L 11.828125 -2.03125 L 7.4375 -5 Z M 11.121094 -9.078125 "/></g></g><g style="fill:rgb(100%,34.118652%,21.179199%);fill-opacity:1;"><g transform="translate(186.979265, 114.086874)"><path style="stroke:none;" d="M 0.910156 1.304688 L 6.835938 -8.554688 L 6.191406 -8.585938 L 0.238281 1.273438 Z M 0.910156 1.304688 "/></g></g><g style="fill:rgb(100%,34.118652%,21.179199%);fill-opacity:1;"><g transform="translate(194.465733, 114.10493)"><path style="stroke:none;" d="M 17.320312 -4.449219 L 11.300781 -5.839844 L 11.167969 -5.28125 L 13.847656 -4.660156 L 12.953125 -1 C 12.402344 1.273438 10.394531 1.96875 7.847656 1.378906 C 5.261719 0.785156 3.773438 -0.71875 4.28125 -3.015625 L 5.089844 -6.683594 L 7.777344 -6.0625 L 7.90625 -6.625 L 1.875 -8.015625 L 1.746094 -7.453125 L 4.46875 -6.824219 L 3.660156 -3.316406 C 3.027344 -0.582031 4.722656 1.261719 7.714844 1.953125 C 10.695312 2.640625 13.015625 1.722656 13.644531 -1.011719 L 14.453125 -4.519531 L 17.191406 -3.890625 Z M 17.320312 -4.449219 "/></g></g><g style="fill:rgb(100%,34.118652%,21.179199%);fill-opacity:1;"><g transform="translate(210.279686, 118.169106)"><path style="stroke:none;" d="M 9.605469 -4.160156 L 9.839844 -4.6875 L 4.085938 -7.199219 L 3.855469 -6.671875 L 6.429688 -5.546875 L 3.59375 0.941406 L 1.023438 -0.183594 L 0.792969 0.347656 L 6.542969 2.859375 L 6.773438 2.328125 L 4.210938 1.210938 L 7.046875 -5.277344 Z M 9.605469 -4.160156 "/></g></g><g style="fill:rgb(100%,34.118652%,21.179199%);fill-opacity:1;"><g transform="translate(130.001567, 241.870758)"><path style="stroke:none;" d="M 11.984375 0.121094 L 6.335938 -5.328125 L 5.933594 -4.914062 L 7.957031 -2.964844 L 3.042969 2.132812 L 1.023438 0.183594 L 0.621094 0.601562 L 6.273438 6.046875 C 8.554688 8.246094 11.121094 8.953125 13.09375 6.90625 C 15.066406 4.859375 14.265625 2.320312 11.984375 0.121094 Z M 6.636719 5.597656 L 3.527344 2.601562 L 8.441406 -2.496094 L 11.550781 0.5 C 13.589844 2.464844 14.34375 4.625 12.601562 6.429688 C 10.851562 8.246094 8.675781 7.5625 6.636719 5.597656 Z M 6.636719 5.597656 "/></g></g><g style="fill:rgb(100%,34.118652%,21.179199%);fill-opacity:1;"><g transform="translate(142.802159, 253.856503)"><path style="stroke:none;" d="M 14.46875 2.453125 L 15.984375 -0.105469 L 4.933594 -6.644531 L 4.640625 -6.148438 L 7.058594 -4.71875 L 3.453125 1.375 L 1.035156 -0.0546875 L 0.742188 0.441406 L 11.792969 6.976562 L 13.308594 4.417969 L 12.773438 4.097656 L 11.550781 6.164062 L 4.03125 1.714844 L 5.695312 -1.09375 L 9.628906 1.234375 L 8.828125 2.589844 L 9.34375 2.894531 L 11.234375 -0.296875 L 10.714844 -0.601562 L 9.917969 0.75 L 5.980469 -1.578125 L 7.636719 -4.378906 L 15.144531 0.0664062 L 13.921875 2.128906 Z M 14.46875 2.453125 "/></g></g><g style="fill:rgb(100%,34.118652%,21.179199%);fill-opacity:1;"><g transform="translate(158.045766, 262.486631)"><path style="stroke:none;" d="M 8.058594 -1.980469 C 4.839844 -3.339844 3.90625 -4.070312 4.214844 -5.03125 C 4.574219 -6.136719 6.015625 -6.261719 7.933594 -5.640625 C 10.375 -4.851562 11.777344 -3.410156 12.578125 -1.5625 L 12.875 -1.542969 L 13.734375 -4.203125 L 13.144531 -4.394531 L 12.585938 -2.671875 C 11.816406 -4.042969 10.5 -5.425781 8.136719 -6.191406 C 5.683594 -6.988281 4.011719 -6.660156 3.554688 -5.242188 C 3.148438 -3.988281 4.117188 -2.929688 7.628906 -1.476562 C 10.925781 -0.117188 12.039062 0.644531 11.703125 1.683594 C 11.367188 2.722656 9.925781 2.773438 8.1875 2.210938 C 5.972656 1.496094 3.742188 -0.175781 2.832031 -2.121094 L 2.527344 -2.15625 L 1.65625 0.535156 L 2.25 0.730469 L 2.820312 -1.03125 C 3.785156 0.417969 5.71875 2.015625 8 2.757812 C 10.15625 3.457031 11.902344 3.25 12.339844 1.890625 C 12.804688 0.464844 11.527344 -0.503906 8.058594 -1.980469 Z M 8.058594 -1.980469 "/></g></g><g style="fill:rgb(100%,34.118652%,21.179199%);fill-opacity:1;"><g transform="translate(172.938663, 266.893342)"><path style="stroke:none;" d="M 8.167969 -6.550781 L 8.25 -7.121094 L 2.039062 -8.023438 L 1.957031 -7.453125 L 4.734375 -7.046875 L 3.714844 -0.0429688 L 0.9375 -0.445312 L 0.855469 0.125 L 7.066406 1.027344 L 7.148438 0.457031 L 4.382812 0.0546875 L 5.398438 -6.953125 Z M 8.167969 -6.550781 "/></g></g><g style="fill:rgb(100%,34.118652%,21.179199%);fill-opacity:1;"><g transform="translate(182.781745, 268.426923)"><path style="stroke:none;" d="M 6.800781 -8.027344 C 8.921875 -8.089844 10.769531 -7.421875 12.214844 -5.589844 L 12.585938 -5.660156 L 12.5 -8.601562 L 11.886719 -8.582031 L 11.945312 -6.53125 C 10.742188 -7.851562 8.992188 -8.667969 6.6875 -8.597656 C 3.59375 -8.507812 0.953125 -6.847656 1.03125 -4.136719 C 1.109375 -1.449219 3.769531 0.046875 6.925781 -0.046875 C 9.203125 -0.113281 11.246094 -0.867188 12.691406 -2.003906 L 12.617188 -4.488281 L 6.8125 -4.316406 L 6.828125 -3.753906 L 11.976562 -3.902344 L 12.023438 -2.285156 C 10.71875 -1.332031 8.925781 -0.679688 6.921875 -0.621094 C 4.101562 -0.539062 1.792969 -1.851562 1.726562 -4.15625 C 1.660156 -6.484375 3.957031 -7.941406 6.800781 -8.027344 Z M 6.800781 -8.027344 "/></g></g><g style="fill:rgb(100%,34.118652%,21.179199%);fill-opacity:1;"><g transform="translate(199.298145, 267.868099)"><path style="stroke:none;" d="M 14.488281 -12.542969 L 8.472656 -10.882812 L 8.625 -10.324219 L 11.320312 -11.070312 L 13.078125 -4.707031 L 2 -9.078125 L 1.996094 -9.089844 L -1.359375 -8.164062 L -1.207031 -7.609375 L 1.5 -8.355469 L 3.386719 -1.53125 L 0.679688 -0.785156 L 0.832031 -0.230469 L 6.90625 -1.90625 L 6.753906 -2.460938 L 4.023438 -1.707031 L 2.222656 -8.222656 L 13.761719 -3.714844 L 14.007812 -3.78125 L 11.945312 -11.242188 L 14.640625 -11.988281 Z M 14.488281 -12.542969 "/></g></g><g style="fill:rgb(100%,34.118652%,21.179199%);fill-opacity:1;"><g transform="translate(218.249541, 262.200171)"><path style="stroke:none;" d="M 9.308594 -11.347656 L 7.835938 -13.933594 L -3.324219 -7.582031 L -3.039062 -7.082031 L -0.597656 -8.46875 L 2.90625 -2.316406 L 0.464844 -0.929688 L 0.75 -0.425781 L 11.90625 -6.78125 L 10.433594 -9.367188 L 9.894531 -9.058594 L 11.082031 -6.972656 L 3.488281 -2.648438 L 1.875 -5.488281 L 5.847656 -7.75 L 6.625 -6.382812 L 7.148438 -6.679688 L 5.3125 -9.902344 L 4.789062 -9.605469 L 5.566406 -8.238281 L 1.59375 -5.976562 L -0.015625 -8.800781 L 7.566406 -13.121094 L 8.753906 -11.035156 Z M 9.308594 -11.347656 "/></g></g><g style="fill:rgb(100%,34.118652%,21.179199%);fill-opacity:1;"><g transform="translate(233.469053, 253.300179)"><path style="stroke:none;" d="M 9.234375 -12.722656 L 9.472656 -12.472656 C 10.300781 -11.601562 10.308594 -10.386719 9.492188 -9.609375 C 8.636719 -8.800781 7.679688 -8.921875 6.3125 -9.074219 C 5.253906 -9.179688 4.589844 -9.179688 3.972656 -8.925781 L 5.601562 -10.46875 C 7.039062 -11.832031 7.042969 -13.273438 6.234375 -14.128906 C 5.339844 -15.070312 3.933594 -15.074219 2.496094 -13.710938 L -5.035156 -6.566406 L -4.640625 -6.148438 L -2.601562 -8.082031 L 2.269531 -2.945312 L 0.230469 -1.011719 L 0.636719 -0.585938 L 5.171875 -4.90625 L 4.769531 -5.332031 L 2.746094 -3.414062 L 0.585938 -5.695312 L 2.769531 -7.769531 C 3.78125 -8.726562 4.621094 -8.679688 6.066406 -8.480469 C 7.519531 -8.269531 8.832031 -8.160156 9.902344 -9.175781 C 11.019531 -10.230469 10.949219 -11.820312 9.917969 -12.910156 L 9.6875 -13.152344 Z M 2.898438 -13.300781 C 4.050781 -14.390625 5.117188 -14.328125 5.746094 -13.667969 C 6.371094 -13.003906 6.335938 -11.925781 5.210938 -10.863281 L 0.195312 -6.105469 L -2.117188 -8.542969 Z M 2.898438 -13.300781 "/></g></g></g></svg>