<?xml version="1.0" encoding="UTF-8"?><svg xmlns="http://www.w3.org/2000/svg" xmlns:xlink="http://www.w3.org/1999/xlink" width="375pt" zoomAndPan="magnify" viewBox="0 0 375 374.999991" height="374.999991pt" preserveAspectRatio="xMidYMid meet" version="1.2"><defs><g/><clipPath xml:id="clip1" id="clip1"><path d="M 40.171875 41.054688 L 334.921875 41.054688 L 334.921875 334.304688 L 40.171875 334.304688 Z M 40.171875 41.054688 "/></clipPath><clipPath xml:id="clip2" id="clip2"><path d="M 58 58.621094 L 317 58.621094 L 317 316.621094 L 58 316.621094 Z M 58 58.621094 "/></clipPath><clipPath xml:id="clip3" id="clip3"><path d="M 57.84375 58.621094 L 317.34375 58.621094 L 317.34375 316.621094 L 57.84375 316.621094 Z M 57.84375 58.621094 "/></clipPath></defs><g xml:id="surface1" id="surface1"><g clip-rule="nonzero" clip-path="url(#clip1)"><path style="fill-rule:nonzero;fill:rgb(94.509888%,35.289001%,19.219971%);fill-opacity:1;stroke-width:0.9673;stroke-linecap:butt;stroke-linejoin:miter;stroke:rgb(100%,100%,100%);stroke-opacity:1;stroke-miterlimit:10;" d="M 499.479091 252.475485 C 499.505622 251.229682 499.512255 249.977253 499.512255 248.519398 L 499.512255 248.082042 C 499.512255 234.345076 488.707552 223.126222 475.137005 222.476814 C 488.176934 218.732778 496.1362 205.386782 493.032086 192.027533 C 492.753512 190.788356 492.455039 189.555806 492.149934 188.33651 C 488.826941 175.01702 475.641092 166.747008 462.335853 169.371147 C 474.108933 162.612003 478.632449 147.728633 472.397691 135.495907 C 471.827277 134.382636 471.25023 133.262739 470.659918 132.156095 C 464.25271 120.042648 449.501538 115.185342 437.204473 120.897481 C 446.987737 111.514199 447.810194 96.001301 438.842755 85.630653 C 438.020298 84.689674 437.191208 83.742069 436.362118 82.807717 C 427.228861 72.556348 411.728192 71.363558 401.155634 79.865501 C 408.444995 68.447849 405.573027 53.180135 394.403524 45.228201 C 393.36882 44.479394 392.327483 43.757093 391.279513 43.028166 C 379.964091 35.248524 364.602709 37.799769 356.371502 48.601146 C 360.742465 35.719013 354.26893 21.551317 341.474411 16.508465 C 340.307052 16.057856 339.139693 15.607246 337.959069 15.163263 C 325.098223 10.312583 310.778178 16.481959 305.385776 28.966496 C 306.539869 15.421701 296.842831 3.215482 283.225855 1.406417 C 281.978903 1.240752 280.731952 1.081713 279.478367 0.929301 C 265.887922 -0.641206 253.484734 8.702317 251.20971 22.061566 C 249.067341 8.682437 236.796808 -0.826751 223.159933 0.631103 C 221.899716 0.770262 220.652765 0.909421 219.405813 1.061833 C 205.788837 2.725113 195.979042 14.798799 196.954052 28.330341 C 191.681039 15.819298 177.460485 9.530643 164.566476 14.215658 C 163.379219 14.653014 162.185329 15.096997 161.004704 15.547607 C 148.210186 20.444673 141.59073 34.47321 145.762712 47.36197 C 137.630996 36.534086 122.349206 33.856935 110.97409 41.490792 C 109.932753 42.193213 108.891415 42.90226 107.856711 43.617934 C 96.587718 51.437336 93.536666 66.671917 100.693372 78.195595 C 90.213673 69.587626 74.719637 70.608124 65.486889 80.740214 C 64.631268 81.674566 63.795545 82.615545 62.95319 83.56315 C 53.866362 93.847652 54.536267 109.393683 64.253203 118.869738 C 52.002567 112.97868 37.178436 117.683575 30.625307 129.744008 C 30.02173 130.850652 29.424785 131.97055 28.841105 133.090447 C 22.467061 145.27016 26.838024 160.206543 38.564674 167.084966 C 25.259436 164.301789 11.974096 172.426015 8.505183 185.732251 C 8.193445 186.944921 7.881707 188.170844 7.583235 189.390141 C 4.333201 202.716257 12.146547 216.155026 25.14668 220.031594 C 11.596031 220.54847 0.685205 231.608285 0.499489 245.318745 C 0.486223 246.451895 0.47959 247.585046 0.47959 248.718197 L 0.47959 249.036274 C 0.47959 262.932279 11.529704 274.084867 25.325763 274.50897 C 11.974096 278.021074 3.749522 291.532736 6.873533 305.070903 C 7.15874 306.303453 7.45058 307.52275 7.755685 308.748673 C 11.052148 322.074789 24.198201 330.371307 37.543235 327.760422 C 25.750257 334.506313 21.213476 349.389683 27.434969 361.629035 C 27.99875 362.748933 28.582429 363.862204 29.166109 364.968848 C 35.566685 377.095547 50.311223 381.972734 62.608288 376.273847 C 52.798494 385.65713 51.962771 401.170028 60.93021 411.547302 C 61.746034 412.494908 62.568492 413.44914 63.404215 414.376865 C 72.510941 424.628234 88.01161 425.840904 98.5908 417.358841 C 91.274908 428.796373 94.153509 444.090593 105.34291 452.042527 C 106.357716 452.771454 107.379155 453.487128 108.400594 454.189549 C 119.716016 462.002325 135.077398 459.484212 143.335136 448.689461 C 138.944274 461.551715 145.397912 475.726038 158.172533 480.795396 C 159.339892 481.252632 160.520516 481.709868 161.694507 482.147224 C 174.555354 487.017784 188.882031 480.874915 194.294331 468.383752 C 193.12034 481.935173 202.790847 494.154645 216.414456 495.990217 C 217.661407 496.155882 218.908359 496.314921 220.161943 496.467333 C 233.77892 498.090852 246.16221 488.734077 248.463764 475.368201 C 250.440315 487.852737 261.245017 496.984208 273.754329 496.984208 C 274.656379 496.984208 275.565062 496.937822 276.480377 496.838423 C 277.727329 496.705891 278.980913 496.566732 280.227865 496.420946 C 293.851474 494.764293 303.681166 482.710486 302.726055 469.172319 C 307.985802 481.689988 322.199723 488.011776 335.106999 483.326761 C 336.287623 482.896032 337.468247 482.465302 338.642239 482.021319 C 351.450023 477.144133 358.089377 463.115595 353.943926 450.220209 C 362.06901 461.074599 377.364064 463.765003 388.752446 456.12452 C 389.780518 455.428726 390.80859 454.726305 391.830029 454.023884 C 403.112287 446.217735 406.196502 430.983155 399.059695 419.446223 C 409.539394 428.080699 425.046696 427.066827 434.292709 416.914858 C 435.128432 416.007012 435.964154 415.079286 436.786612 414.144934 C 445.89997 403.873686 445.269862 388.321028 435.559558 378.818466 C 447.783663 384.722778 462.62106 380.051016 469.200719 368.003836 C 469.804297 366.897192 470.401242 365.783921 470.984921 364.67065 C 477.378864 352.504191 473.034432 337.547928 461.314414 330.642998 C 474.619653 333.459309 487.918258 325.348336 491.400437 312.055352 C 491.718807 310.829429 492.030545 309.616759 492.329018 308.384209 C 495.598949 295.071346 487.805502 281.612698 474.812001 277.71625 C 488.349385 277.225881 499.280109 266.185945 499.479091 252.475485 Z M 499.479091 252.475485 " transform="matrix(0.588936,0,0,0.589479,40.311302,41.053759)"/><path style=" stroke:none;fill-rule:nonzero;fill:rgb(100%,99.21875%,90.589905%);fill-opacity:1;" d="M 201.535156 334.304688 C 194.390625 334.304688 188.324219 329.484375 186.628906 322.660156 C 184.863281 329.367188 178.820312 334.105469 171.78125 334.105469 C 171.167969 334.105469 170.550781 334.070312 169.9375 333.996094 C 169.199219 333.90625 168.464844 333.8125 167.730469 333.714844 C 160.035156 332.675781 154.410156 326.132812 154.394531 318.511719 C 151.722656 323.429688 146.558594 326.539062 140.886719 326.539062 C 139.027344 326.539062 137.191406 326.203125 135.4375 325.539062 C 134.742188 325.277344 134.050781 325.007812 133.363281 324.734375 C 126.148438 321.875 122.257812 314.171875 124.070312 306.777344 C 121.164062 309.957031 117.105469 311.753906 112.730469 311.753906 C 109.601562 311.753906 106.582031 310.808594 103.992188 309.019531 C 103.390625 308.609375 102.789062 308.183594 102.1875 307.753906 C 95.867188 303.257812 93.929688 294.847656 97.453125 288.101562 C 94.945312 289.769531 91.972656 290.675781 88.941406 290.675781 C 84.546875 290.675781 80.355469 288.792969 77.4375 285.507812 C 76.976562 284.992188 76.523438 284.464844 76.070312 283.941406 L 75.980469 283.835938 C 70.921875 277.972656 71.035156 269.351562 76.046875 263.632812 C 74.382812 264.234375 72.640625 264.539062 70.859375 264.539062 C 65.128906 264.539062 59.910156 261.390625 57.238281 256.324219 C 56.890625 255.671875 56.550781 255.011719 56.214844 254.351562 C 52.703125 247.433594 54.878906 239.085938 61.125 234.738281 C 60.59375 234.796875 60.058594 234.824219 59.523438 234.824219 C 52.441406 234.824219 46.308594 230.011719 44.605469 223.121094 C 44.425781 222.398438 44.253906 221.675781 44.085938 220.949219 C 42.316406 213.273438 46.503906 205.6875 53.734375 203.039062 C 46.097656 202.089844 40.3125 195.683594 40.3125 187.859375 L 40.3125 187.667969 C 40.3125 186.996094 40.316406 186.332031 40.324219 185.660156 C 40.425781 177.914062 46.21875 171.539062 53.75 170.585938 C 46.691406 167.785156 42.667969 160.160156 44.5 152.628906 C 44.675781 151.910156 44.859375 151.1875 45.046875 150.46875 C 46.8125 143.679688 52.9375 138.941406 59.933594 138.941406 C 60.53125 138.941406 61.132812 138.976562 61.730469 139.046875 C 55.53125 134.632812 53.449219 126.257812 57.042969 119.375 C 57.390625 118.714844 57.742188 118.054688 58.101562 117.398438 C 60.792969 112.4375 65.976562 109.351562 71.628906 109.351562 C 73.484375 109.351562 75.292969 109.679688 77.015625 110.332031 C 72.0625 104.558594 72.046875 95.9375 77.175781 90.125 C 77.671875 89.566406 78.167969 89.007812 78.667969 88.460938 C 81.578125 85.265625 85.722656 83.4375 90.042969 83.4375 C 93.136719 83.4375 96.167969 84.378906 98.707031 86.113281 C 95.277344 79.328125 97.316406 70.949219 103.675781 66.535156 C 104.285156 66.109375 104.898438 65.691406 105.515625 65.277344 C 108.0625 63.566406 111.023438 62.660156 114.078125 62.660156 C 118.445312 62.660156 122.632812 64.546875 125.527344 67.761719 C 123.828125 60.359375 127.816406 52.714844 135.035156 49.953125 C 135.734375 49.6875 136.433594 49.421875 137.136719 49.164062 C 138.832031 48.546875 140.601562 48.234375 142.394531 48.234375 C 148.140625 48.234375 153.335938 51.402344 155.984375 56.410156 C 156.105469 48.800781 161.8125 42.335938 169.5 41.394531 C 170.230469 41.308594 170.96875 41.222656 171.707031 41.140625 C 172.257812 41.082031 172.8125 41.054688 173.363281 41.054688 C 180.5 41.054688 186.5625 45.863281 188.265625 52.671875 C 190.023438 45.957031 196.082031 41.214844 203.15625 41.214844 C 203.75 41.214844 204.347656 41.25 204.941406 41.320312 C 205.679688 41.40625 206.414062 41.5 207.152344 41.597656 C 214.84375 42.621094 220.480469 49.152344 220.507812 56.773438 C 223.179688 51.847656 228.347656 48.730469 234.027344 48.730469 C 235.878906 48.730469 237.703125 49.066406 239.453125 49.726562 C 240.144531 49.984375 240.835938 50.253906 241.523438 50.523438 C 248.75 53.371094 252.652344 61.070312 250.847656 68.472656 C 253.757812 65.28125 257.824219 63.472656 262.210938 63.472656 C 265.328125 63.472656 268.335938 64.410156 270.910156 66.183594 C 271.53125 66.613281 272.148438 67.042969 272.757812 67.484375 C 279.058594 71.976562 280.996094 80.367188 277.492188 87.101562 C 280.003906 85.429688 282.984375 84.519531 286.015625 84.519531 C 290.40625 84.519531 294.597656 86.398438 297.515625 89.679688 C 298.003906 90.230469 298.492188 90.789062 298.972656 91.34375 C 304.035156 97.203125 303.933594 105.824219 298.933594 111.542969 C 300.605469 110.9375 302.351562 110.628906 304.144531 110.628906 C 309.867188 110.628906 315.082031 113.769531 317.753906 118.820312 C 318.101562 119.476562 318.441406 120.136719 318.777344 120.796875 C 322.300781 127.707031 320.136719 136.058594 313.894531 140.410156 C 314.433594 140.351562 314.976562 140.324219 315.519531 140.324219 C 322.589844 140.324219 328.722656 145.125 330.4375 152.003906 C 330.617188 152.726562 330.792969 153.453125 330.960938 154.183594 C 332.710938 161.730469 328.605469 169.308594 321.515625 172.039062 C 329.054688 173.070312 334.777344 179.523438 334.777344 187.292969 L 334.78125 187.546875 C 334.78125 188.410156 334.773438 189.152344 334.761719 189.886719 C 334.652344 197.632812 328.847656 204 321.316406 204.941406 C 328.375 207.753906 332.386719 215.382812 330.539062 222.910156 C 330.359375 223.632812 330.179688 224.351562 329.988281 225.074219 C 328.21875 231.847656 322.105469 236.578125 315.117188 236.578125 C 314.511719 236.578125 313.898438 236.539062 313.292969 236.464844 C 319.488281 240.898438 321.554688 249.277344 317.941406 256.152344 C 317.597656 256.808594 317.246094 257.46875 316.890625 258.121094 C 314.191406 263.070312 309.007812 266.148438 303.367188 266.148438 C 301.503906 266.148438 299.691406 265.816406 297.964844 265.160156 C 302.910156 270.945312 302.910156 279.570312 297.765625 285.378906 C 297.277344 285.925781 296.785156 286.472656 296.289062 287.011719 C 293.382812 290.207031 289.238281 292.039062 284.917969 292.039062 C 281.816406 292.039062 278.78125 291.089844 276.238281 289.347656 C 279.660156 296.140625 277.601562 304.515625 271.234375 308.921875 C 270.632812 309.339844 270.03125 309.753906 269.417969 310.164062 C 266.875 311.875 263.910156 312.78125 260.859375 312.78125 C 256.480469 312.78125 252.289062 310.886719 249.394531 307.660156 C 251.082031 315.066406 247.078125 322.703125 239.851562 325.453125 C 239.160156 325.714844 238.464844 325.972656 237.765625 326.226562 C 236.070312 326.84375 234.304688 327.15625 232.519531 327.15625 C 226.761719 327.15625 221.566406 323.980469 218.917969 318.960938 C 218.789062 326.566406 213.074219 333.023438 205.386719 333.960938 L 205.125 333.988281 C 204.476562 334.066406 203.824219 334.140625 203.175781 334.207031 C 202.644531 334.273438 202.09375 334.304688 201.535156 334.304688 Z M 186.652344 319.523438 L 186.921875 321.230469 C 188.050781 328.359375 194.332031 333.734375 201.535156 333.734375 C 202.074219 333.734375 202.601562 333.703125 203.109375 333.648438 C 203.761719 333.578125 204.410156 333.503906 205.058594 333.433594 L 205.316406 333.402344 C 213.160156 332.445312 218.871094 325.527344 218.3125 317.644531 L 218.191406 315.921875 L 218.859375 317.511719 C 221.175781 323.03125 226.535156 326.59375 232.515625 326.59375 C 234.238281 326.59375 235.9375 326.292969 237.570312 325.699219 C 238.265625 325.449219 238.957031 325.191406 239.648438 324.929688 C 247.019531 322.121094 250.902344 314.042969 248.492188 306.539062 L 247.972656 304.914062 L 248.992188 306.277344 C 251.769531 309.996094 256.203125 312.214844 260.851562 312.214844 C 263.796875 312.214844 266.644531 311.34375 269.101562 309.695312 C 269.707031 309.289062 270.3125 308.871094 270.910156 308.460938 C 277.40625 303.964844 279.242188 295.179688 275.085938 288.460938 L 274.179688 286.996094 L 275.511719 288.09375 C 278.152344 290.269531 281.492188 291.472656 284.917969 291.472656 C 289.078125 291.472656 293.070312 289.707031 295.871094 286.628906 C 296.363281 286.09375 296.855469 285.546875 297.339844 285 C 302.585938 279.074219 302.273438 270.097656 296.625 264.566406 L 295.382812 263.347656 L 296.949219 264.105469 C 298.96875 265.082031 301.128906 265.578125 303.367188 265.578125 C 308.800781 265.578125 313.789062 262.617188 316.390625 257.847656 C 316.742188 257.199219 317.09375 256.542969 317.4375 255.890625 C 321.121094 248.875 318.667969 240.230469 311.847656 236.210938 L 310.34375 235.324219 L 312.050781 235.683594 C 313.058594 235.898438 314.089844 236.003906 315.113281 236.003906 C 321.84375 236.003906 327.730469 231.453125 329.4375 224.929688 C 329.625 224.210938 329.804688 223.496094 329.984375 222.773438 C 331.867188 215.097656 327.417969 207.308594 319.859375 205.039062 L 318.210938 204.542969 L 319.929688 204.480469 C 327.808594 204.195312 334.074219 197.78125 334.1875 189.878906 C 334.203125 189.144531 334.207031 188.40625 334.207031 187.550781 L 334.207031 187.292969 C 334.207031 179.367188 328.019531 172.863281 320.121094 172.480469 L 318.402344 172.398438 L 320.058594 171.921875 C 327.644531 169.746094 332.1875 162.011719 330.398438 154.3125 C 330.230469 153.582031 330.058594 152.859375 329.878906 152.140625 C 328.230469 145.519531 322.320312 140.890625 315.511719 140.890625 C 314.558594 140.890625 313.59375 140.988281 312.652344 141.171875 L 310.957031 141.507812 L 312.457031 140.644531 C 319.308594 136.707031 321.859375 128.101562 318.269531 121.050781 C 317.933594 120.394531 317.59375 119.738281 317.25 119.085938 C 314.675781 114.21875 309.652344 111.195312 304.140625 111.195312 C 301.980469 111.195312 299.882812 111.660156 297.914062 112.574219 L 296.359375 113.296875 L 297.597656 112.109375 C 303.289062 106.648438 303.707031 97.6875 298.542969 91.714844 C 298.0625 91.160156 297.574219 90.605469 297.085938 90.050781 C 294.273438 86.894531 290.238281 85.085938 286.011719 85.085938 C 282.648438 85.085938 279.355469 86.246094 276.742188 88.351562 L 275.390625 89.445312 L 276.324219 87.976562 C 280.566406 81.328125 278.851562 72.527344 272.425781 67.945312 C 271.816406 67.503906 271.203125 67.078125 270.585938 66.652344 C 268.105469 64.945312 265.207031 64.042969 262.207031 64.042969 C 257.535156 64.042969 253.238281 66.167969 250.414062 69.875 L 249.359375 71.261719 L 249.917969 69.609375 C 252.460938 62.109375 248.679688 53.960938 241.308594 51.050781 C 240.625 50.78125 239.9375 50.519531 239.246094 50.257812 C 237.5625 49.621094 235.804688 49.300781 234.023438 49.300781 C 228.105469 49.300781 222.769531 52.808594 220.425781 58.238281 L 219.730469 59.847656 L 219.878906 58.101562 C 220.550781 50.207031 214.925781 43.207031 207.070312 42.164062 C 206.339844 42.066406 205.605469 41.972656 204.871094 41.882812 C 204.300781 41.816406 203.722656 41.785156 203.152344 41.785156 C 195.898438 41.785156 189.75 46.964844 188.535156 54.105469 L 188.246094 55.808594 L 187.972656 54.105469 C 186.820312 46.871094 180.675781 41.621094 173.359375 41.621094 C 172.832031 41.621094 172.296875 41.648438 171.765625 41.707031 C 171.03125 41.789062 170.292969 41.871094 169.5625 41.960938 C 161.722656 42.921875 156.019531 49.847656 156.585938 57.730469 L 156.710938 59.453125 L 156.039062 57.863281 C 153.722656 52.359375 148.363281 48.804688 142.386719 48.804688 C 140.664062 48.804688 138.960938 49.105469 137.324219 49.699219 C 136.625 49.957031 135.929688 50.21875 135.234375 50.480469 C 127.871094 53.300781 124.003906 61.386719 126.425781 68.882812 L 126.949219 70.507812 L 125.925781 69.144531 C 123.148438 65.4375 118.71875 63.226562 114.074219 63.226562 C 111.132812 63.226562 108.28125 64.101562 105.828125 65.746094 C 105.210938 66.160156 104.601562 66.574219 103.996094 66.996094 C 97.507812 71.503906 95.691406 80.289062 99.855469 86.996094 L 100.765625 88.460938 L 99.433594 87.363281 C 96.792969 85.195312 93.457031 84.003906 90.039062 84.003906 C 85.878906 84.003906 81.886719 85.765625 79.085938 88.839844 C 78.585938 89.386719 78.089844 89.941406 77.597656 90.496094 C 72.363281 96.429688 72.695312 105.402344 78.347656 110.921875 L 79.59375 112.136719 L 78.027344 111.382812 C 76.007812 110.410156 73.855469 109.917969 71.625 109.917969 C 66.183594 109.917969 61.191406 112.886719 58.597656 117.667969 C 58.242188 118.320312 57.890625 118.980469 57.546875 119.636719 C 53.878906 126.660156 56.347656 135.296875 63.167969 139.296875 L 64.671875 140.179688 L 62.964844 139.824219 C 61.96875 139.617188 60.945312 139.507812 59.933594 139.507812 C 53.191406 139.507812 47.296875 144.074219 45.597656 150.609375 C 45.414062 151.324219 45.230469 152.042969 45.054688 152.761719 C 43.183594 160.441406 47.640625 168.226562 55.203125 170.484375 L 56.851562 170.976562 L 55.132812 171.039062 C 47.25 171.339844 40.996094 177.765625 40.890625 185.664062 C 40.882812 186.332031 40.878906 187 40.878906 187.667969 L 40.878906 187.855469 C 40.878906 195.871094 47.183594 202.339844 55.234375 202.585938 L 57.199219 202.648438 L 55.296875 203.148438 C 47.507812 205.199219 42.824219 212.960938 44.640625 220.824219 C 44.804688 221.546875 44.976562 222.265625 45.152344 222.984375 C 46.796875 229.621094 52.703125 234.257812 59.523438 234.257812 C 60.472656 234.257812 61.425781 234.164062 62.367188 233.980469 L 64.0625 233.648438 L 62.5625 234.507812 C 55.703125 238.433594 53.140625 247.039062 56.722656 254.097656 C 57.054688 254.753906 57.398438 255.410156 57.742188 256.058594 C 60.316406 260.941406 65.339844 263.972656 70.855469 263.972656 C 73.011719 263.972656 75.101562 263.507812 77.066406 262.597656 L 78.621094 261.875 L 77.382812 263.0625 C 71.675781 268.523438 71.253906 277.484375 76.410156 283.460938 L 76.5 283.566406 C 76.953125 284.089844 77.40625 284.613281 77.863281 285.128906 C 80.671875 288.289062 84.710938 290.101562 88.941406 290.101562 C 92.296875 290.101562 95.585938 288.949219 98.199219 286.847656 L 99.550781 285.761719 L 98.617188 287.222656 C 94.359375 293.886719 96.070312 302.699219 102.515625 307.289062 C 103.113281 307.714844 103.714844 308.136719 104.316406 308.550781 C 106.808594 310.273438 109.71875 311.183594 112.730469 311.183594 C 117.386719 311.183594 121.679688 309.0625 124.5 305.371094 L 125.558594 303.988281 L 124.996094 305.636719 C 122.445312 313.128906 126.210938 321.285156 133.570312 324.203125 C 134.257812 324.472656 134.949219 324.742188 135.640625 325 C 137.332031 325.640625 139.09375 325.964844 140.886719 325.964844 C 146.792969 325.964844 152.128906 322.464844 154.476562 317.042969 L 155.171875 315.433594 L 155.019531 317.179688 C 154.339844 325.074219 159.953125 332.085938 167.804688 333.148438 C 168.535156 333.242188 169.269531 333.335938 170.003906 333.425781 C 170.59375 333.496094 171.191406 333.53125 171.777344 333.53125 C 179 333.53125 185.132812 328.355469 186.359375 321.222656 Z M 186.652344 319.523438 "/></g><g clip-rule="nonzero" clip-path="url(#clip2)"><path style=" stroke:none;fill-rule:nonzero;fill:rgb(98.429871%,97.24884%,96.078491%);fill-opacity:1;" d="M 316.949219 189.558594 C 316.960938 188.914062 316.964844 188.261719 316.964844 187.507812 L 316.960938 187.28125 C 316.960938 180.15625 311.363281 174.335938 304.328125 174 C 311.089844 172.0625 315.214844 165.136719 313.605469 158.207031 C 313.457031 157.566406 313.304688 156.929688 313.148438 156.292969 C 311.425781 149.386719 304.589844 145.097656 297.6875 146.460938 C 303.792969 142.953125 306.140625 135.234375 302.90625 128.890625 C 302.609375 128.3125 302.308594 127.730469 302.003906 127.15625 C 298.683594 120.875 291.035156 118.355469 284.65625 121.320312 C 289.730469 116.453125 290.15625 108.410156 285.503906 103.03125 C 285.082031 102.539062 284.652344 102.050781 284.21875 101.566406 C 279.484375 96.25 271.445312 95.628906 265.964844 100.039062 C 269.746094 94.117188 268.257812 86.199219 262.464844 82.074219 C 261.929688 81.6875 261.390625 81.3125 260.84375 80.9375 C 254.980469 76.902344 247.015625 78.222656 242.746094 83.824219 C 245.011719 77.144531 241.65625 69.796875 235.023438 67.183594 C 234.417969 66.945312 233.8125 66.710938 233.199219 66.480469 C 226.53125 63.96875 219.105469 67.164062 216.308594 73.640625 C 216.90625 66.617188 211.878906 60.285156 204.816406 59.347656 C 204.171875 59.261719 203.523438 59.179688 202.878906 59.101562 C 195.832031 58.289062 189.398438 63.132812 188.21875 70.0625 C 187.109375 63.121094 180.746094 58.191406 173.675781 58.945312 C 173.023438 59.019531 172.375 59.089844 171.730469 59.167969 C 164.667969 60.035156 159.582031 66.292969 160.085938 73.3125 C 157.351562 66.824219 149.980469 63.5625 143.292969 65.992188 C 142.675781 66.21875 142.0625 66.449219 141.449219 66.683594 C 134.8125 69.222656 131.382812 76.5 133.542969 83.183594 C 129.328125 77.566406 121.40625 76.179688 115.507812 80.136719 C 114.964844 80.5 114.429688 80.867188 113.890625 81.242188 C 108.050781 85.296875 106.464844 93.195312 110.175781 99.171875 C 104.746094 94.710938 96.710938 95.238281 91.921875 100.496094 C 91.476562 100.976562 91.042969 101.464844 90.609375 101.957031 C 85.898438 107.292969 86.242188 115.355469 91.28125 120.269531 C 84.929688 117.214844 77.246094 119.652344 73.847656 125.90625 C 73.53125 126.480469 73.222656 127.0625 72.917969 127.640625 C 69.617188 133.957031 71.882812 141.707031 77.964844 145.273438 C 71.066406 143.828125 64.175781 148.042969 62.375 154.945312 C 62.214844 155.574219 62.050781 156.207031 61.898438 156.839844 C 60.214844 163.75 64.265625 170.722656 71.003906 172.730469 C 63.980469 173 58.320312 178.734375 58.226562 185.847656 C 58.21875 186.433594 58.214844 187.019531 58.214844 187.609375 L 58.214844 187.777344 C 58.214844 194.980469 63.945312 200.765625 71.097656 200.988281 C 64.175781 202.808594 59.910156 209.816406 61.53125 216.835938 C 61.679688 217.472656 61.832031 218.109375 61.988281 218.742188 C 63.699219 225.652344 70.515625 229.957031 77.433594 228.601562 C 71.320312 232.101562 68.964844 239.820312 72.191406 246.167969 C 72.484375 246.746094 72.785156 247.324219 73.089844 247.898438 C 76.410156 254.1875 84.050781 256.71875 90.429688 253.765625 C 85.34375 258.628906 84.910156 266.675781 89.558594 272.058594 C 89.980469 272.546875 90.410156 273.042969 90.839844 273.523438 C 95.566406 278.839844 103.597656 279.472656 109.085938 275.070312 C 105.292969 281 106.785156 288.933594 112.585938 293.058594 C 113.113281 293.433594 113.644531 293.808594 114.175781 294.171875 C 120.039062 298.222656 128.003906 296.917969 132.285156 291.320312 C 130.011719 297.992188 133.355469 305.34375 139.980469 307.96875 C 140.585938 308.207031 141.195312 308.441406 141.804688 308.671875 C 148.472656 311.199219 155.902344 308.011719 158.707031 301.535156 C 158.101562 308.558594 163.117188 314.898438 170.179688 315.851562 C 170.824219 315.9375 171.472656 316.019531 172.121094 316.097656 C 179.183594 316.941406 185.601562 312.085938 186.792969 305.15625 C 187.820312 311.628906 193.421875 316.367188 199.90625 316.367188 C 200.375 316.367188 200.847656 316.34375 201.320312 316.289062 C 201.96875 316.222656 202.617188 316.148438 203.265625 316.074219 C 210.328125 315.214844 215.425781 308.964844 214.929688 301.941406 C 217.65625 308.4375 225.027344 311.714844 231.71875 309.285156 C 232.332031 309.0625 232.945312 308.835938 233.550781 308.605469 C 240.195312 306.078125 243.636719 298.800781 241.488281 292.113281 C 245.699219 297.742188 253.632812 299.140625 259.535156 295.175781 C 260.070312 294.816406 260.601562 294.449219 261.132812 294.085938 C 266.980469 290.035156 268.582031 282.136719 264.878906 276.15625 C 270.3125 280.632812 278.355469 280.105469 283.148438 274.839844 C 283.582031 274.367188 284.015625 273.886719 284.441406 273.40625 C 289.167969 268.074219 288.839844 260.011719 283.804688 255.082031 C 290.140625 258.144531 297.835938 255.722656 301.25 249.472656 C 301.5625 248.898438 301.871094 248.320312 302.171875 247.746094 C 305.488281 241.433594 303.234375 233.679688 297.160156 230.097656 C 304.058594 231.558594 310.953125 227.351562 312.757812 220.457031 C 312.925781 219.820312 313.085938 219.191406 313.242188 218.554688 C 314.9375 211.648438 310.894531 204.671875 304.15625 202.652344 C 311.179688 202.394531 316.84375 196.667969 316.949219 189.558594 Z M 316.949219 189.558594 "/></g><g clip-rule="nonzero" clip-path="url(#clip3)"><path style="fill:none;stroke-width:0.9673;stroke-linecap:butt;stroke-linejoin:miter;stroke:rgb(100%,100%,100%);stroke-opacity:1;stroke-miterlimit:10;" d="M 499.482931 252.475468 C 499.505532 251.232689 499.513066 249.974846 499.513066 248.521172 L 499.505532 248.084316 C 499.505532 234.345962 488.709688 223.123293 475.141429 222.475542 C 488.182326 218.739674 496.137952 205.385451 493.034053 192.023697 C 492.747771 190.78845 492.453955 189.560735 492.152605 188.333021 C 488.830228 175.016458 475.646189 166.746331 462.334077 169.374996 C 474.109307 162.611267 478.637083 147.72805 472.399149 135.496094 C 471.826585 134.381359 471.246487 133.259093 470.658856 132.15189 C 464.25518 120.040446 449.504125 115.182311 437.201533 120.899093 C 446.987857 111.514231 447.809034 96.005858 438.836354 85.634305 C 438.022711 84.685274 437.194 83.743775 436.357755 82.809808 C 427.226867 72.558766 411.722437 71.361179 401.152605 79.864799 C 408.445262 68.446298 405.574909 53.17895 394.402378 45.225166 C 393.370256 44.479498 392.3306 43.756427 391.275877 43.033356 C 379.967739 35.252808 364.606451 37.798621 356.372077 48.599498 C 360.741644 35.719791 354.270165 21.552114 341.477881 16.513211 C 340.310152 16.053759 339.142422 15.60184 337.959626 15.157452 C 325.099538 10.314381 310.777905 16.475551 305.38375 28.963594 C 306.536412 15.421072 296.840493 3.211712 283.219498 1.404034 C 281.976432 1.23833 280.725832 1.080158 279.482765 0.929519 C 265.891905 -0.637136 253.483841 8.702535 251.208653 22.064289 C 249.069072 8.679939 236.796616 -0.825436 223.160553 0.628239 C 221.902419 0.771347 220.651819 0.906923 219.408752 1.057562 C 205.787757 2.729665 195.978833 14.795917 196.950685 28.330907 C 191.677069 15.820268 177.460909 9.531054 164.563152 14.215953 C 163.372822 14.652809 162.190026 15.097196 161.007229 15.549116 C 148.207411 20.444911 141.592791 34.477013 145.758947 47.364252 C 137.630045 36.533247 122.351628 33.859389 110.975687 41.489298 C 109.928497 42.189773 108.896375 42.89778 107.85672 43.620851 C 96.593784 51.439059 93.535087 66.668748 100.692137 78.192696 C 90.220243 69.591161 74.723348 70.60798 65.486987 80.746042 C 64.628141 81.672477 63.791897 82.613976 62.955652 83.563007 C 53.869966 93.851708 54.532935 109.397741 64.251454 118.872987 C 52.001599 112.982969 37.18274 117.682932 30.62839 129.741652 C 30.018157 130.848855 29.422992 131.971122 28.83536 133.085857 C 22.469353 145.265088 26.83892 160.208561 38.568948 167.08527 C 25.264369 164.298433 11.974859 172.425453 8.501806 185.734483 C 8.192923 186.947134 7.876506 188.167317 7.58269 189.3875 C 4.33565 202.711594 12.148135 216.1562 25.14383 220.027645 C 11.598172 220.547352 0.681788 231.604317 0.500978 245.320075 C 0.485911 246.449874 0.478377 247.579673 0.478377 248.717003 L 0.478377 249.040879 C 0.478377 262.929873 11.530368 274.084754 25.324639 274.514077 C 11.974859 278.023986 3.748019 291.53638 6.874519 305.07137 C 7.160801 306.299085 7.454617 307.5268 7.755966 308.746983 C 11.055743 322.071077 24.202113 330.371333 37.544359 327.757731 C 25.754062 334.506397 21.211219 349.389613 27.434085 361.629101 C 27.999116 362.743836 28.579213 363.858571 29.166845 364.965774 C 35.570521 377.092281 50.306509 381.973012 62.6091 376.278826 C 52.800175 385.656157 51.963931 401.172061 60.929077 411.551146 C 61.74272 412.492645 62.571431 413.449209 63.400142 414.375644 C 72.515963 424.626685 88.005325 425.846868 98.590224 417.358313 C 91.274966 428.791877 94.152854 444.089353 105.340452 452.043137 C 106.357506 452.766209 107.382094 453.48928 108.406683 454.189755 C 119.714821 462.000431 135.076109 459.484746 143.333084 448.691401 C 138.948449 461.556044 145.397327 475.731253 158.174544 480.792752 C 159.342273 481.252204 160.517536 481.704123 161.692799 482.148511 C 174.552887 487.02171 188.882053 480.875604 194.291276 468.387561 C 193.123547 481.930083 202.796864 494.154507 216.417859 495.992313 C 217.660926 496.158017 218.911526 496.316189 220.162126 496.466828 C 233.783121 498.093739 246.16105 488.731472 248.458839 475.369718 C 250.440212 487.850229 261.24359 496.986536 273.749592 496.986536 C 274.65364 496.986536 275.565222 496.941344 276.476804 496.835896 C 277.727405 496.707852 278.978005 496.564744 280.228605 496.421636 C 293.8496 494.764598 303.681126 482.71341 302.724341 469.170888 C 307.982889 481.696591 322.19905 488.015933 335.10434 483.331034 C 336.287136 482.90171 337.469933 482.464855 338.637662 482.020467 C 351.452547 477.147268 358.089769 463.115166 353.946214 450.220395 C 362.067582 461.073996 377.3686 463.77045 388.752076 456.125477 C 389.784197 455.432534 390.808786 454.724527 391.833374 454.024051 C 403.111377 446.213375 406.200209 430.983687 399.058227 419.452206 C 409.537654 428.08387 425.049617 427.067051 434.293511 416.913925 C 435.129756 416.002554 435.966001 415.076119 436.787178 414.149684 C 445.902999 403.868514 445.270165 388.322482 435.559179 378.817108 C 447.778899 384.72219 462.620359 380.052354 469.204845 368.001167 C 469.807544 366.893964 470.402709 365.779229 470.982807 364.672026 C 477.378949 352.500326 473.031983 337.549321 461.317023 330.642484 C 474.621601 333.45945 487.918646 325.347494 491.399232 312.053527 C 491.723182 310.825813 492.032066 309.613162 492.333415 308.385447 C 495.603057 295.068885 487.80564 281.616746 474.809945 277.722706 C 488.355602 277.225595 499.27952 266.183694 499.482931 252.475468 Z M 499.482931 252.475468 " transform="matrix(0.518501,0,0,0.518621,57.966805,58.619495)"/><path style=" stroke:none;fill-rule:nonzero;fill:rgb(98.429871%,97.24884%,96.078491%);fill-opacity:1;" d="M 199.90625 316.617188 C 193.617188 316.617188 188.277344 312.378906 186.785156 306.375 C 185.230469 312.277344 179.910156 316.445312 173.710938 316.445312 C 173.175781 316.445312 172.628906 316.414062 172.089844 316.347656 C 171.441406 316.269531 170.792969 316.1875 170.148438 316.101562 C 163.371094 315.1875 158.417969 309.429688 158.40625 302.726562 C 156.050781 307.054688 151.507812 309.789062 146.511719 309.789062 C 144.875 309.789062 143.261719 309.492188 141.714844 308.90625 C 141.105469 308.675781 140.496094 308.4375 139.886719 308.203125 C 133.539062 305.683594 130.113281 298.910156 131.710938 292.402344 C 129.152344 295.199219 125.574219 296.78125 121.722656 296.78125 C 118.96875 296.78125 116.308594 295.949219 114.03125 294.375 C 113.5 294.011719 112.972656 293.636719 112.441406 293.261719 C 106.878906 289.304688 105.171875 281.90625 108.273438 275.972656 C 106.066406 277.4375 103.449219 278.234375 100.78125 278.234375 C 96.914062 278.234375 93.222656 276.578125 90.652344 273.6875 C 90.25 273.234375 89.847656 272.769531 89.449219 272.308594 L 89.371094 272.21875 C 84.917969 267.058594 85.015625 259.472656 89.429688 254.445312 C 87.964844 254.972656 86.429688 255.242188 84.859375 255.242188 C 79.816406 255.242188 75.222656 252.472656 72.867188 248.015625 C 72.566406 247.4375 72.265625 246.859375 71.96875 246.277344 C 68.878906 240.191406 70.792969 232.847656 76.292969 229.023438 C 75.824219 229.074219 75.351562 229.097656 74.878906 229.097656 C 68.648438 229.097656 63.246094 224.863281 61.746094 218.800781 C 61.589844 218.164062 61.4375 217.53125 61.289062 216.890625 C 59.730469 210.136719 63.417969 203.464844 69.785156 201.132812 C 63.058594 200.296875 57.96875 194.660156 57.96875 187.777344 L 57.96875 187.609375 C 57.96875 187.019531 57.96875 186.433594 57.976562 185.84375 C 58.066406 179.03125 63.167969 173.417969 69.800781 172.582031 C 63.582031 170.117188 60.039062 163.40625 61.65625 156.785156 C 61.808594 156.148438 61.972656 155.511719 62.136719 154.882812 C 63.691406 148.910156 69.082031 144.738281 75.242188 144.738281 C 75.769531 144.738281 76.296875 144.769531 76.824219 144.832031 C 71.363281 140.949219 69.53125 133.582031 72.699219 127.527344 C 73.003906 126.945312 73.3125 126.363281 73.628906 125.789062 C 76 121.421875 80.5625 118.707031 85.539062 118.707031 C 87.171875 118.707031 88.765625 118.996094 90.28125 119.570312 C 85.921875 114.492188 85.90625 106.90625 90.421875 101.789062 C 90.859375 101.300781 91.296875 100.808594 91.738281 100.328125 C 94.296875 97.519531 97.949219 95.90625 101.75 95.90625 C 104.476562 95.90625 107.140625 96.734375 109.378906 98.261719 C 106.359375 92.292969 108.15625 84.921875 113.75 81.035156 C 114.289062 80.664062 114.828125 80.292969 115.371094 79.929688 C 117.613281 78.425781 120.222656 77.628906 122.910156 77.628906 C 126.757812 77.628906 130.445312 79.289062 132.992188 82.117188 C 131.496094 75.601562 135.003906 68.878906 141.363281 66.449219 C 141.976562 66.214844 142.59375 65.980469 143.210938 65.757812 C 144.707031 65.210938 146.261719 64.9375 147.839844 64.9375 C 152.898438 64.9375 157.472656 67.722656 159.804688 72.128906 C 159.910156 65.4375 164.9375 59.746094 171.703125 58.917969 C 172.351562 58.84375 173 58.769531 173.648438 58.699219 C 174.132812 58.644531 174.621094 58.621094 175.105469 58.621094 C 181.386719 58.621094 186.726562 62.851562 188.226562 68.84375 C 189.777344 62.933594 195.109375 58.761719 201.335938 58.761719 C 201.855469 58.761719 202.386719 58.792969 202.90625 58.851562 C 203.558594 58.929688 204.207031 59.011719 204.851562 59.097656 C 211.625 59.996094 216.589844 65.746094 216.613281 72.449219 C 218.964844 68.117188 223.515625 65.375 228.515625 65.375 C 230.144531 65.375 231.75 65.667969 233.292969 66.25 C 233.902344 66.476562 234.507812 66.710938 235.117188 66.949219 C 241.476562 69.457031 244.914062 76.230469 243.324219 82.742188 C 245.882812 79.933594 249.464844 78.34375 253.328125 78.34375 C 256.070312 78.34375 258.71875 79.167969 260.988281 80.730469 C 261.535156 81.109375 262.078125 81.484375 262.613281 81.871094 C 268.160156 85.824219 269.867188 93.207031 266.78125 99.132812 C 268.992188 97.660156 271.617188 96.859375 274.285156 96.859375 C 278.148438 96.859375 281.839844 98.515625 284.410156 101.398438 C 284.839844 101.886719 285.269531 102.375 285.695312 102.867188 C 290.152344 108.019531 290.058594 115.605469 285.660156 120.632812 C 287.128906 120.101562 288.667969 119.832031 290.246094 119.832031 C 295.285156 119.832031 299.875 122.59375 302.226562 127.039062 C 302.535156 127.613281 302.835938 128.195312 303.128906 128.777344 C 306.230469 134.855469 304.324219 142.203125 298.832031 146.03125 C 299.304688 145.980469 299.785156 145.957031 300.261719 145.957031 C 306.484375 145.957031 311.882812 150.183594 313.394531 156.230469 C 313.550781 156.871094 313.707031 157.507812 313.855469 158.152344 C 315.394531 164.789062 311.78125 171.460938 305.539062 173.859375 C 312.175781 174.765625 317.214844 180.445312 317.214844 187.277344 L 317.21875 187.503906 C 317.21875 188.261719 317.210938 188.914062 317.203125 189.5625 C 317.105469 196.378906 311.996094 201.976562 305.363281 202.804688 C 311.578125 205.28125 315.113281 211.996094 313.484375 218.617188 C 313.328125 219.253906 313.167969 219.882812 313 220.519531 C 311.441406 226.476562 306.058594 230.640625 299.90625 230.640625 C 299.371094 230.640625 298.835938 230.609375 298.300781 230.542969 C 303.753906 234.441406 305.574219 241.8125 302.394531 247.863281 C 302.089844 248.441406 301.78125 249.019531 301.46875 249.59375 C 299.089844 253.949219 294.527344 256.65625 289.5625 256.65625 C 287.921875 256.65625 286.328125 256.363281 284.804688 255.789062 C 289.15625 260.875 289.160156 268.464844 284.628906 273.574219 C 284.199219 274.058594 283.769531 274.539062 283.332031 275.011719 C 280.769531 277.824219 277.121094 279.433594 273.320312 279.433594 C 270.589844 279.433594 267.917969 278.601562 265.679688 277.070312 C 268.691406 283.042969 266.878906 290.410156 261.273438 294.289062 C 260.742188 294.65625 260.210938 295.019531 259.675781 295.378906 C 257.433594 296.886719 254.824219 297.683594 252.136719 297.683594 C 248.28125 297.683594 244.59375 296.019531 242.042969 293.175781 C 243.527344 299.691406 240.007812 306.414062 233.644531 308.832031 C 233.03125 309.0625 232.421875 309.289062 231.808594 309.515625 C 230.3125 310.054688 228.757812 310.332031 227.1875 310.332031 C 222.121094 310.332031 217.542969 307.535156 215.214844 303.121094 C 215.097656 309.8125 210.066406 315.492188 203.296875 316.316406 L 203.070312 316.34375 C 202.496094 316.410156 201.925781 316.472656 201.351562 316.535156 C 200.886719 316.59375 200.402344 316.617188 199.90625 316.617188 Z M 186.804688 303.617188 L 187.042969 305.117188 C 188.035156 311.390625 193.566406 316.117188 199.90625 316.117188 C 200.382812 316.117188 200.847656 316.09375 201.292969 316.042969 C 201.867188 315.980469 202.441406 315.917969 203.011719 315.851562 L 203.238281 315.824219 C 210.140625 314.984375 215.171875 308.898438 214.679688 301.960938 L 214.574219 300.445312 L 215.160156 301.847656 C 217.199219 306.699219 221.917969 309.835938 227.183594 309.835938 C 228.699219 309.835938 230.199219 309.570312 231.632812 309.050781 C 232.246094 308.828125 232.855469 308.601562 233.464844 308.371094 C 239.953125 305.902344 243.371094 298.796875 241.25 292.191406 L 240.792969 290.761719 L 241.6875 291.964844 C 244.132812 295.234375 248.039062 297.183594 252.132812 297.183594 C 254.722656 297.183594 257.234375 296.417969 259.394531 294.96875 C 259.925781 294.609375 260.460938 294.246094 260.988281 293.882812 C 266.703125 289.925781 268.320312 282.199219 264.664062 276.289062 L 263.863281 275 L 265.039062 275.964844 C 267.363281 277.878906 270.304688 278.933594 273.320312 278.933594 C 276.980469 278.933594 280.496094 277.382812 282.960938 274.675781 C 283.398438 274.203125 283.828125 273.722656 284.253906 273.242188 C 288.875 268.03125 288.601562 260.132812 283.625 255.265625 L 282.53125 254.191406 L 283.910156 254.859375 C 285.691406 255.71875 287.59375 256.15625 289.5625 256.15625 C 294.347656 256.15625 298.738281 253.550781 301.027344 249.355469 C 301.339844 248.78125 301.644531 248.207031 301.949219 247.632812 C 305.191406 241.460938 303.03125 233.855469 297.027344 230.316406 L 295.707031 229.535156 L 297.207031 229.855469 C 298.09375 230.042969 299.003906 230.136719 299.90625 230.136719 C 305.828125 230.136719 311.011719 226.128906 312.511719 220.394531 C 312.679688 219.757812 312.835938 219.128906 312.996094 218.496094 C 314.652344 211.742188 310.738281 204.886719 304.082031 202.890625 L 302.628906 202.457031 L 304.144531 202.402344 C 311.082031 202.148438 316.597656 196.507812 316.699219 189.554688 C 316.707031 188.910156 316.714844 188.257812 316.714844 187.507812 L 316.710938 187.28125 C 316.710938 180.308594 311.265625 174.585938 304.3125 174.25 L 302.796875 174.175781 L 304.253906 173.757812 C 310.933594 171.84375 314.933594 165.039062 313.359375 158.261719 C 313.214844 157.621094 313.058594 156.984375 312.902344 156.351562 C 311.449219 150.527344 306.25 146.457031 300.253906 146.457031 C 299.414062 146.457031 298.566406 146.539062 297.738281 146.703125 L 296.242188 146.996094 L 297.5625 146.238281 C 303.59375 142.773438 305.84375 135.203125 302.679688 129 C 302.386719 128.425781 302.085938 127.84375 301.78125 127.269531 C 299.515625 122.988281 295.09375 120.328125 290.242188 120.328125 C 288.339844 120.328125 286.496094 120.738281 284.761719 121.542969 L 283.394531 122.179688 L 284.484375 121.136719 C 289.492188 116.328125 289.859375 108.445312 285.3125 103.191406 C 284.890625 102.703125 284.460938 102.214844 284.03125 101.726562 C 281.558594 98.953125 278.003906 97.359375 274.28125 97.359375 C 271.324219 97.359375 268.421875 98.378906 266.121094 100.234375 L 264.929688 101.191406 L 265.753906 99.902344 C 269.488281 94.050781 267.980469 86.308594 262.320312 82.277344 C 261.785156 81.890625 261.242188 81.515625 260.699219 81.140625 C 258.515625 79.636719 255.964844 78.84375 253.324219 78.84375 C 249.210938 78.84375 245.425781 80.714844 242.941406 83.976562 L 242.011719 85.195312 L 242.503906 83.742188 C 244.746094 77.144531 241.414062 69.972656 234.925781 67.414062 C 234.324219 67.179688 233.71875 66.945312 233.109375 66.714844 C 231.628906 66.15625 230.082031 65.875 228.511719 65.875 C 223.300781 65.875 218.601562 68.960938 216.539062 73.738281 L 215.925781 75.152344 L 216.058594 73.617188 C 216.648438 66.671875 211.695312 60.511719 204.785156 59.59375 C 204.136719 59.507812 203.492188 59.425781 202.847656 59.347656 C 202.34375 59.292969 201.835938 59.261719 201.332031 59.261719 C 194.945312 59.261719 189.535156 63.820312 188.464844 70.101562 L 188.207031 71.601562 L 187.96875 70.101562 C 186.953125 63.738281 181.542969 59.117188 175.101562 59.117188 C 174.640625 59.117188 174.164062 59.144531 173.699219 59.195312 C 173.050781 59.265625 172.40625 59.339844 171.761719 59.417969 C 164.855469 60.261719 159.835938 66.355469 160.335938 73.292969 L 160.445312 74.808594 L 159.855469 73.410156 C 157.816406 68.566406 153.097656 65.4375 147.835938 65.4375 C 146.316406 65.4375 144.816406 65.703125 143.378906 66.226562 C 142.761719 66.453125 142.148438 66.679688 141.535156 66.914062 C 135.054688 69.394531 131.648438 76.507812 133.78125 83.105469 L 134.242188 84.53125 L 133.34375 83.332031 C 130.898438 80.074219 126.996094 78.128906 122.90625 78.128906 C 120.316406 78.128906 117.808594 78.894531 115.648438 80.34375 C 115.105469 80.707031 114.570312 81.070312 114.035156 81.445312 C 108.324219 85.410156 106.722656 93.136719 110.390625 99.039062 L 111.191406 100.328125 L 110.015625 99.363281 C 107.695312 97.457031 104.757812 96.40625 101.746094 96.40625 C 98.085938 96.40625 94.570312 97.957031 92.101562 100.660156 C 91.664062 101.144531 91.226562 101.628906 90.796875 102.121094 C 86.1875 107.339844 86.476562 115.230469 91.453125 120.089844 L 92.550781 121.160156 L 91.171875 120.496094 C 89.394531 119.640625 87.496094 119.207031 85.535156 119.207031 C 80.746094 119.207031 76.351562 121.820312 74.066406 126.023438 C 73.753906 126.597656 73.445312 127.179688 73.140625 127.757812 C 69.910156 133.933594 72.082031 141.53125 78.089844 145.054688 L 79.414062 145.832031 L 77.910156 145.515625 C 77.03125 145.332031 76.132812 145.238281 75.242188 145.238281 C 69.308594 145.238281 64.117188 149.253906 62.621094 155.007812 C 62.457031 155.632812 62.296875 156.269531 62.140625 156.898438 C 60.492188 163.65625 64.421875 170.503906 71.078125 172.492188 L 72.53125 172.925781 L 71.015625 172.980469 C 64.078125 173.246094 58.570312 178.898438 58.476562 185.847656 C 58.472656 186.4375 58.464844 187.019531 58.464844 187.609375 L 58.464844 187.777344 C 58.464844 194.828125 64.019531 200.519531 71.105469 200.734375 L 72.835938 200.789062 L 71.160156 201.230469 C 64.300781 203.035156 60.179688 209.863281 61.777344 216.777344 C 61.921875 217.417969 62.074219 218.046875 62.230469 218.679688 C 63.675781 224.519531 68.875 228.597656 74.878906 228.597656 C 75.714844 228.597656 76.558594 228.519531 77.382812 228.355469 L 78.878906 228.0625 L 77.558594 228.820312 C 71.519531 232.273438 69.261719 239.847656 72.417969 246.054688 C 72.707031 246.628906 73.007812 247.210938 73.3125 247.78125 C 75.578125 252.074219 80.003906 254.742188 84.859375 254.742188 C 86.757812 254.742188 88.59375 254.335938 90.324219 253.535156 L 91.695312 252.898438 L 90.601562 253.941406 C 85.582031 258.746094 85.207031 266.628906 89.75 271.890625 L 89.828125 271.980469 C 90.226562 272.441406 90.625 272.902344 91.027344 273.355469 C 93.5 276.136719 97.054688 277.730469 100.78125 277.730469 C 103.738281 277.730469 106.628906 276.714844 108.933594 274.867188 L 110.121094 273.914062 L 109.300781 275.199219 C 105.550781 281.0625 107.058594 288.816406 112.734375 292.851562 C 113.257812 293.226562 113.789062 293.597656 114.316406 293.960938 C 116.511719 295.476562 119.070312 296.277344 121.722656 296.277344 C 125.824219 296.277344 129.601562 294.414062 132.085938 291.164062 L 133.015625 289.949219 L 132.523438 291.398438 C 130.277344 297.992188 133.589844 305.164062 140.074219 307.730469 C 140.675781 307.972656 141.285156 308.207031 141.894531 308.433594 C 143.382812 309 144.933594 309.285156 146.511719 309.285156 C 151.714844 309.285156 156.410156 306.203125 158.476562 301.433594 L 159.089844 300.019531 L 158.957031 301.554688 C 158.355469 308.5 163.300781 314.667969 170.210938 315.601562 C 170.855469 315.6875 171.503906 315.765625 172.148438 315.847656 C 172.667969 315.910156 173.191406 315.941406 173.710938 315.941406 C 180.070312 315.941406 185.46875 311.386719 186.546875 305.113281 Z M 186.804688 303.617188 "/></g><g style="fill:rgb(0%,23.139954%,28.62854%);fill-opacity:1;"><g transform="translate(98.605263, 190.790788)"><path style="stroke:none;" d="M 1.734375 -3.640625 L 1.734375 -8.734375 L 3.640625 -8.734375 L 3.640625 -4.421875 C 4.535156 -3.617188 5.625 -2.9375 6.90625 -2.375 C 8.1875 -1.8125 9.707031 -1.53125 11.46875 -1.53125 C 12.53125 -1.53125 13.5625 -1.695312 14.5625 -2.03125 C 15.570312 -2.375 16.460938 -2.859375 17.234375 -3.484375 C 18.003906 -4.109375 18.617188 -4.867188 19.078125 -5.765625 C 19.546875 -6.660156 19.78125 -7.679688 19.78125 -8.828125 C 19.78125 -10.234375 19.539062 -11.382812 19.0625 -12.28125 C 18.582031 -13.175781 17.957031 -13.910156 17.1875 -14.484375 C 16.414062 -15.066406 15.535156 -15.535156 14.546875 -15.890625 C 13.554688 -16.242188 12.539062 -16.570312 11.5 -16.875 C 10.457031 -17.175781 9.429688 -17.503906 8.421875 -17.859375 C 7.410156 -18.210938 6.5 -18.675781 5.6875 -19.25 C 4.875 -19.820312 4.207031 -20.546875 3.6875 -21.421875 C 3.175781 -22.304688 2.890625 -23.4375 2.828125 -24.8125 C 2.765625 -25.875 2.894531 -26.9375 3.21875 -28 C 3.539062 -29.070312 4.050781 -30.03125 4.75 -30.875 C 5.457031 -31.726562 6.367188 -32.425781 7.484375 -32.96875 C 8.609375 -33.519531 9.96875 -33.796875 11.5625 -33.796875 C 12.113281 -33.796875 12.707031 -33.757812 13.34375 -33.6875 C 13.976562 -33.625 14.628906 -33.515625 15.296875 -33.359375 C 15.972656 -33.203125 16.648438 -32.960938 17.328125 -32.640625 C 18.003906 -32.316406 18.644531 -31.898438 19.25 -31.390625 L 19.25 -26.203125 L 17.328125 -26.203125 L 17.328125 -30.4375 C 16.722656 -30.820312 15.929688 -31.15625 14.953125 -31.4375 C 13.972656 -31.726562 12.828125 -31.875 11.515625 -31.875 C 10.398438 -31.875 9.425781 -31.6875 8.59375 -31.3125 C 7.757812 -30.945312 7.0625 -30.453125 6.5 -29.828125 C 5.9375 -29.203125 5.519531 -28.484375 5.25 -27.671875 C 4.976562 -26.859375 4.84375 -26.019531 4.84375 -25.15625 C 4.84375 -24 5.082031 -23.050781 5.5625 -22.3125 C 6.039062 -21.582031 6.671875 -20.976562 7.453125 -20.5 C 8.242188 -20.019531 9.140625 -19.617188 10.140625 -19.296875 C 11.148438 -18.972656 12.179688 -18.648438 13.234375 -18.328125 C 14.296875 -18.015625 15.332031 -17.640625 16.34375 -17.203125 C 17.351562 -16.773438 18.253906 -16.21875 19.046875 -15.53125 C 19.847656 -14.84375 20.5 -13.96875 21 -12.90625 C 21.5 -11.851562 21.765625 -10.523438 21.796875 -8.921875 C 21.796875 -7.515625 21.53125 -6.234375 21 -5.078125 C 20.46875 -3.929688 19.742188 -2.945312 18.828125 -2.125 C 17.921875 -1.3125 16.84375 -0.6875 15.59375 -0.25 C 14.351562 0.175781 13.039062 0.390625 11.65625 0.390625 C 10.414062 0.390625 9.265625 0.257812 8.203125 0 C 7.148438 -0.257812 6.195312 -0.585938 5.34375 -0.984375 C 4.5 -1.378906 3.769531 -1.816406 3.15625 -2.296875 C 2.550781 -2.785156 2.078125 -3.234375 1.734375 -3.640625 Z M 1.734375 -3.640625 "/></g></g><g style="fill:rgb(0%,23.139954%,28.62854%);fill-opacity:1;"><g transform="translate(125.053224, 190.790788)"><path style="stroke:none;" d="M 1.6875 -16.75 C 1.6875 -19.113281 2.132812 -21.34375 3.03125 -23.4375 C 3.925781 -25.539062 5.148438 -27.367188 6.703125 -28.921875 C 8.253906 -30.472656 10.066406 -31.703125 12.140625 -32.609375 C 14.222656 -33.523438 16.445312 -33.984375 18.8125 -33.984375 C 21.1875 -33.984375 23.421875 -33.523438 25.515625 -32.609375 C 27.609375 -31.703125 29.429688 -30.472656 30.984375 -28.921875 C 32.535156 -27.367188 33.765625 -25.539062 34.671875 -23.4375 C 35.585938 -21.34375 36.046875 -19.113281 36.046875 -16.75 C 36.046875 -14.382812 35.585938 -12.160156 34.671875 -10.078125 C 33.765625 -7.992188 32.535156 -6.175781 30.984375 -4.625 C 29.429688 -3.070312 27.609375 -1.847656 25.515625 -0.953125 C 23.421875 -0.0546875 21.1875 0.390625 18.8125 0.390625 C 16.445312 0.390625 14.222656 -0.0546875 12.140625 -0.953125 C 10.066406 -1.847656 8.253906 -3.070312 6.703125 -4.625 C 5.148438 -6.175781 3.925781 -7.992188 3.03125 -10.078125 C 2.132812 -12.160156 1.6875 -14.382812 1.6875 -16.75 Z M 3.703125 -16.703125 C 3.703125 -14.585938 4.09375 -12.609375 4.875 -10.765625 C 5.65625 -8.929688 6.734375 -7.332031 8.109375 -5.96875 C 9.484375 -4.613281 11.082031 -3.535156 12.90625 -2.734375 C 14.726562 -1.929688 16.679688 -1.53125 18.765625 -1.53125 C 20.847656 -1.53125 22.816406 -1.929688 24.671875 -2.734375 C 26.523438 -3.535156 28.144531 -4.625 29.53125 -6 C 30.925781 -7.375 32.023438 -8.976562 32.828125 -10.8125 C 33.628906 -12.65625 34.03125 -14.632812 34.03125 -16.75 C 34.03125 -18.863281 33.628906 -20.847656 32.828125 -22.703125 C 32.023438 -24.554688 30.9375 -26.175781 29.5625 -27.5625 C 28.1875 -28.957031 26.570312 -30.054688 24.71875 -30.859375 C 22.863281 -31.660156 20.894531 -32.0625 18.8125 -32.0625 C 16.738281 -32.0625 14.78125 -31.648438 12.9375 -30.828125 C 11.09375 -30.015625 9.484375 -28.910156 8.109375 -27.515625 C 6.734375 -26.128906 5.65625 -24.507812 4.875 -22.65625 C 4.09375 -20.800781 3.703125 -18.816406 3.703125 -16.703125 Z M 3.703125 -16.703125 "/></g></g><g style="fill:rgb(0%,23.139954%,28.62854%);fill-opacity:1;"><g transform="translate(166.285154, 190.790788)"><path style="stroke:none;" d="M 1.6875 -1.921875 L 4.609375 -1.921875 L 4.609375 -31.6875 L 1.6875 -31.6875 L 1.6875 -33.59375 L 11.8125 -33.59375 C 12.800781 -33.59375 13.882812 -33.429688 15.0625 -33.109375 C 16.25 -32.796875 17.363281 -32.285156 18.40625 -31.578125 C 19.445312 -30.878906 20.316406 -29.96875 21.015625 -28.84375 C 21.722656 -27.726562 22.078125 -26.382812 22.078125 -24.8125 C 22.078125 -22.0625 21.203125 -19.867188 19.453125 -18.234375 C 17.710938 -16.609375 15.195312 -15.796875 11.90625 -15.796875 L 6.578125 -15.796875 L 6.578125 -1.921875 L 11.328125 -1.921875 L 11.328125 0 L 1.6875 0 Z M 6.578125 -17.765625 L 11.5625 -17.765625 C 13.226562 -17.765625 14.613281 -17.988281 15.71875 -18.4375 C 16.820312 -18.882812 17.703125 -19.457031 18.359375 -20.15625 C 19.015625 -20.863281 19.46875 -21.625 19.71875 -22.4375 C 19.976562 -23.25 20.109375 -24.039062 20.109375 -24.8125 C 20.109375 -25.707031 19.890625 -26.570312 19.453125 -27.40625 C 19.023438 -28.238281 18.425781 -28.972656 17.65625 -29.609375 C 16.894531 -30.253906 15.992188 -30.757812 14.953125 -31.125 C 13.910156 -31.5 12.796875 -31.6875 11.609375 -31.6875 L 6.578125 -31.6875 Z M 6.578125 -17.765625 "/></g></g><g style="fill:rgb(0%,23.139954%,28.62854%);fill-opacity:1;"><g transform="translate(193.549116, 190.790788)"><path style="stroke:none;" d="M 24.09375 -33.59375 L 33.75 -33.59375 L 33.75 -31.6875 L 30.046875 -31.6875 L 30.046875 -1.921875 L 33.75 -1.921875 L 33.75 0 L 24.09375 0 L 24.09375 -1.921875 L 28.03125 -1.921875 L 28.03125 -15.984375 L 7.390625 -15.984375 L 7.390625 -1.921875 L 11.328125 -1.921875 L 11.328125 0 L 1.6875 0 L 1.6875 -1.921875 L 5.421875 -1.921875 L 5.421875 -31.6875 L 1.6875 -31.6875 L 1.6875 -33.59375 L 11.328125 -33.59375 L 11.328125 -31.6875 L 7.390625 -31.6875 L 7.390625 -17.90625 L 28.03125 -17.90625 L 28.03125 -31.6875 L 24.09375 -31.6875 Z M 24.09375 -33.59375 "/></g></g><g style="fill:rgb(0%,23.139954%,28.62854%);fill-opacity:1;"><g transform="translate(232.477049, 190.790788)"><path style="stroke:none;" d="M 1.6875 -1.921875 L 5.421875 -1.921875 L 5.421875 -31.6875 L 1.6875 -31.6875 L 1.6875 -33.59375 L 11.328125 -33.59375 L 11.328125 -31.6875 L 7.390625 -31.6875 L 7.390625 -1.921875 L 11.328125 -1.921875 L 11.328125 0 L 1.6875 0 Z M 1.6875 -1.921875 "/></g></g><g style="fill:rgb(0%,23.139954%,28.62854%);fill-opacity:1;"><g transform="translate(248.989019, 190.790788)"><path style="stroke:none;" d="M 1.6875 -1.921875 L 5.140625 -1.921875 L 5.140625 -31.6875 L 1.6875 -31.6875 L 1.6875 -33.59375 L 25.0625 -33.59375 L 25.0625 -26.203125 L 23.140625 -26.203125 L 23.140625 -31.6875 L 7.109375 -31.6875 L 7.109375 -17.90625 L 23.1875 -17.90625 L 23.1875 -15.984375 L 7.109375 -15.984375 L 7.109375 -1.921875 L 23.8125 -1.921875 L 23.8125 -7.390625 L 25.734375 -7.390625 L 25.734375 0 L 1.6875 0 Z M 1.6875 -1.921875 "/></g></g><g style="fill:rgb(0%,23.139954%,28.62854%);fill-opacity:1;"><g transform="translate(126.116481, 210.140801)"><path style="stroke:none;" d="M 30.347656 -8.964844 C 29.988281 -9.359375 29.375 -9.394531 29.015625 -9.035156 C 28.90625 -8.964844 18.539062 0.289062 4.03125 -2.339844 C 1.585938 -2.773438 0.324219 -3.707031 0.324219 -5.074219 C 0.289062 -7.597656 4.210938 -11.269531 6.804688 -11.773438 C 7.597656 -12.023438 8.460938 -11.878906 9.179688 -11.410156 C 9.683594 -10.90625 9.972656 -10.1875 9.972656 -9.433594 C 9.972656 -8.929688 10.367188 -8.496094 10.871094 -8.496094 C 11.410156 -8.496094 11.808594 -8.890625 11.84375 -9.394531 C 11.878906 -10.691406 11.339844 -11.953125 10.402344 -12.851562 C 9.253906 -13.714844 7.8125 -14.003906 6.445312 -13.609375 C 3.3125 -13.03125 -1.585938 -8.855469 -1.546875 -5.039062 C -1.546875 -3.671875 -0.863281 -1.296875 3.707031 -0.46875 C 5.542969 -0.144531 7.414062 0.0351562 9.324219 0.0351562 C 16.957031 -0.0351562 24.371094 -2.734375 30.277344 -7.632812 C 30.457031 -7.8125 30.5625 -8.0625 30.601562 -8.28125 C 30.601562 -8.53125 30.492188 -8.785156 30.347656 -8.964844 Z M 30.347656 -8.964844 "/></g></g><g style="fill:rgb(0%,23.139954%,28.62854%);fill-opacity:1;"><g transform="translate(157.580536, 210.140801)"><path style="stroke:none;" d="M 28.402344 -8.605469 C 28.042969 -9 27.46875 -9.035156 27.070312 -8.675781 C 27 -8.640625 19.585938 -2.160156 14.148438 -3.023438 C 12.527344 -3.277344 11.125 -4.246094 10.332031 -5.6875 C 9.648438 -6.949219 8.386719 -7.738281 6.984375 -7.882812 C 5.21875 -7.992188 3.277344 -6.949219 1.222656 -4.789062 C 1.117188 -4.679688 0.9375 -4.644531 0.792969 -4.714844 C 0.648438 -4.789062 0.574219 -4.933594 0.613281 -5.113281 C 0.71875 -5.796875 1.042969 -7.523438 1.1875 -8.171875 C 1.1875 -8.0625 1.441406 -8.566406 1.441406 -8.605469 C 4.5 -12.78125 13.644531 -26.027344 10.078125 -30.277344 C 9.613281 -30.925781 8.746094 -31.210938 7.957031 -30.996094 C 7.234375 -30.78125 5.039062 -30.097656 1.65625 -18.070312 C 0.828125 -15.15625 0.0703125 -12.023438 -0.539062 -9.070312 L -0.792969 -8.746094 C -1.042969 -8.425781 -1.042969 -7.992188 -0.828125 -7.632812 C -1.367188 -4.96875 -1.726562 -2.519531 -1.90625 -0.648438 C -1.945312 -0.214844 -1.691406 0.179688 -1.296875 0.324219 C -0.898438 0.46875 -0.433594 0.324219 -0.179688 -0.0351562 C 3.492188 -5.363281 5.832031 -6.046875 6.875 -6.011719 C 7.632812 -5.941406 8.316406 -5.472656 8.675781 -4.789062 C 9.757812 -2.84375 11.664062 -1.476562 13.894531 -1.152344 C 20.160156 -0.179688 27.972656 -6.984375 28.332031 -7.273438 C 28.691406 -7.632812 28.726562 -8.207031 28.402344 -8.605469 Z M 8.496094 -29.195312 C 8.566406 -29.195312 8.605469 -29.089844 8.640625 -29.050781 C 10.367188 -27.109375 3.203125 -12.636719 2.304688 -13.210938 C 1.441406 -13.753906 6.984375 -29.195312 8.496094 -29.195312 Z M 8.496094 -29.195312 "/></g></g><g style="fill:rgb(0%,23.139954%,28.62854%);fill-opacity:1;"><g transform="translate(187.424588, 210.140801)"><path style="stroke:none;" d="M 30.203125 -9.253906 C 30.023438 -9.433594 29.808594 -9.574219 29.554688 -9.574219 C 29.304688 -9.613281 29.050781 -9.539062 28.871094 -9.394531 C 28.726562 -9.289062 14.867188 1.726562 3.3125 -3.023438 C 0.972656 -3.996094 0.863281 -5.257812 0.9375 -5.941406 C 0.9375 -6.046875 0.972656 -6.15625 1.078125 -6.226562 C 1.152344 -6.300781 1.296875 -6.300781 1.402344 -6.265625 C 3.742188 -6.121094 6.085938 -6.730469 8.101562 -7.992188 C 9.828125 -9.109375 10.117188 -10.332031 10.007812 -11.125 C 9.9375 -12.421875 8.890625 -13.464844 7.558594 -13.5 C 4.714844 -13.644531 -0.0351562 -10.261719 -0.828125 -6.660156 C -1.152344 -5.328125 -1.117188 -2.808594 2.59375 -1.296875 C 4.859375 -0.359375 7.234375 0.0703125 9.648438 0.0703125 C 19.980469 0.0703125 29.554688 -7.523438 30.058594 -7.921875 C 30.238281 -8.0625 30.382812 -8.316406 30.382812 -8.53125 C 30.421875 -8.785156 30.347656 -9.035156 30.203125 -9.253906 Z M 2.230469 -8.460938 C 3.636719 -10.402344 5.976562 -11.699219 7.453125 -11.59375 C 7.847656 -11.59375 8.0625 -11.449219 8.136719 -10.90625 C 8.171875 -10.546875 7.777344 -10.042969 7.054688 -9.574219 C 5.578125 -8.605469 1.152344 -7.019531 2.230469 -8.460938 Z M 2.230469 -8.460938 "/></g></g><g style="fill:rgb(0%,23.139954%,28.62854%);fill-opacity:1;"><g transform="translate(218.888646, 210.140801)"><path style="stroke:none;" d="M 31.464844 -8.964844 C 31.246094 -9.109375 31.03125 -9.214844 30.78125 -9.214844 C 30.527344 -9.179688 30.277344 -9.070312 30.132812 -8.890625 C 30.023438 -8.820312 22.105469 -0.359375 15.226562 -3.132812 C 13.753906 -3.925781 12.5625 -5.113281 11.734375 -6.589844 C 11.449219 -7.054688 11.089844 -7.523438 10.65625 -7.957031 C 10.1875 -8.53125 9.46875 -8.855469 8.710938 -8.890625 C 6.875 -9.035156 4.644531 -7.8125 1.980469 -5.292969 C 1.90625 -5.21875 1.800781 -5.183594 1.691406 -5.257812 C 1.585938 -5.292969 1.511719 -5.4375 1.546875 -5.542969 L 2.339844 -9.070312 C 2.484375 -9.574219 2.160156 -10.117188 1.65625 -10.222656 C 1.152344 -10.332031 0.648438 -10.007812 0.503906 -9.503906 L -1.296875 -1.621094 C -1.402344 -1.1875 -1.1875 -0.757812 -0.792969 -0.574219 C -0.394531 -0.359375 0.0703125 -0.46875 0.359375 -0.792969 C 5.183594 -6.445312 7.632812 -6.984375 8.496094 -7.019531 C 9.359375 -7.054688 9.898438 -5.941406 10.1875 -5.507812 C 11.195312 -3.742188 12.707031 -2.304688 14.507812 -1.402344 C 22.570312 1.871094 31.140625 -7.234375 31.5 -7.632812 C 31.859375 -7.992188 31.824219 -8.605469 31.464844 -8.964844 Z M 31.464844 -8.964844 "/></g></g><g style="fill:rgb(100%,0%,0%);fill-opacity:1;"><g transform="translate(156.350099, 121.153592)"><path style="stroke:none;" d="M 12.007812 -13.253906 L 6.214844 -11.097656 L 6.417969 -10.558594 L 8.992188 -11.515625 L 10.261719 -7.96875 C 11.054688 -5.765625 9.761719 -4.082031 7.308594 -3.167969 C 4.824219 -2.242188 2.753906 -2.675781 1.914062 -4.875 L 0.570312 -8.378906 L 3.15625 -9.34375 L 2.953125 -9.882812 L -2.847656 -7.722656 L -2.648438 -7.183594 L -0.0273438 -8.160156 L 1.226562 -4.785156 C 2.207031 -2.152344 4.636719 -1.546875 7.515625 -2.617188 C 10.382812 -3.683594 11.8125 -5.726562 10.832031 -8.359375 L 9.578125 -11.734375 L 12.207031 -12.714844 Z M 12.007812 -13.253906 "/></g></g><g style="fill:rgb(100%,0%,0%);fill-opacity:1;"><g transform="translate(171.547382, 115.589541)"><path style="stroke:none;" d="M 11.121094 -9.078125 L 13.289062 -9.34375 L 13.21875 -9.914062 L 7.859375 -9.257812 L 7.929688 -8.699219 L 10.285156 -8.988281 L 6.945312 -5.277344 L 2.867188 -8.078125 L 5.152344 -8.359375 L 5.085938 -8.917969 L -0.335938 -8.253906 L -0.265625 -7.679688 L 1.855469 -7.941406 L 6.464844 -4.855469 L 2.992188 -0.945312 L 0.597656 -0.652344 L 0.667969 -0.0820312 L 6.015625 -0.738281 L 5.945312 -1.308594 L 3.835938 -1.050781 L 6.949219 -4.5625 L 10.828125 -1.910156 L 8.742188 -1.652344 L 8.8125 -1.082031 L 14.222656 -1.746094 L 14.152344 -2.316406 L 11.828125 -2.03125 L 7.4375 -5 Z M 11.121094 -9.078125 "/></g></g><g style="fill:rgb(100%,0%,0%);fill-opacity:1;"><g transform="translate(186.979265, 114.086874)"><path style="stroke:none;" d="M 0.910156 1.304688 L 6.835938 -8.554688 L 6.191406 -8.585938 L 0.238281 1.273438 Z M 0.910156 1.304688 "/></g></g><g style="fill:rgb(100%,0%,0%);fill-opacity:1;"><g transform="translate(194.465733, 114.10493)"><path style="stroke:none;" d="M 17.320312 -4.449219 L 11.300781 -5.839844 L 11.167969 -5.28125 L 13.847656 -4.660156 L 12.953125 -1 C 12.402344 1.273438 10.394531 1.96875 7.847656 1.378906 C 5.261719 0.785156 3.773438 -0.71875 4.28125 -3.015625 L 5.089844 -6.683594 L 7.777344 -6.0625 L 7.90625 -6.625 L 1.875 -8.015625 L 1.746094 -7.453125 L 4.46875 -6.824219 L 3.660156 -3.316406 C 3.027344 -0.582031 4.722656 1.261719 7.714844 1.953125 C 10.695312 2.640625 13.015625 1.722656 13.644531 -1.011719 L 14.453125 -4.519531 L 17.191406 -3.890625 Z M 17.320312 -4.449219 "/></g></g><g style="fill:rgb(100%,0%,0%);fill-opacity:1;"><g transform="translate(210.279686, 118.169106)"><path style="stroke:none;" d="M 9.605469 -4.160156 L 9.839844 -4.6875 L 4.085938 -7.199219 L 3.855469 -6.671875 L 6.429688 -5.546875 L 3.59375 0.941406 L 1.023438 -0.183594 L 0.792969 0.347656 L 6.542969 2.859375 L 6.773438 2.328125 L 4.210938 1.210938 L 7.046875 -5.277344 Z M 9.605469 -4.160156 "/></g></g><g style="fill:rgb(100%,0%,0%);fill-opacity:1;"><g transform="translate(130.001567, 241.870744)"><path style="stroke:none;" d="M 11.984375 0.121094 L 6.335938 -5.328125 L 5.933594 -4.914062 L 7.957031 -2.964844 L 3.042969 2.132812 L 1.023438 0.183594 L 0.621094 0.601562 L 6.273438 6.046875 C 8.554688 8.246094 11.121094 8.953125 13.09375 6.90625 C 15.066406 4.859375 14.265625 2.320312 11.984375 0.121094 Z M 6.636719 5.597656 L 3.527344 2.601562 L 8.441406 -2.496094 L 11.550781 0.5 C 13.589844 2.464844 14.34375 4.625 12.601562 6.429688 C 10.851562 8.246094 8.675781 7.5625 6.636719 5.597656 Z M 6.636719 5.597656 "/></g></g><g style="fill:rgb(100%,0%,0%);fill-opacity:1;"><g transform="translate(142.802159, 253.856474)"><path style="stroke:none;" d="M 14.46875 2.453125 L 15.984375 -0.105469 L 4.933594 -6.644531 L 4.640625 -6.148438 L 7.058594 -4.71875 L 3.453125 1.375 L 1.035156 -0.0546875 L 0.742188 0.441406 L 11.792969 6.976562 L 13.308594 4.417969 L 12.773438 4.097656 L 11.550781 6.164062 L 4.03125 1.714844 L 5.695312 -1.09375 L 9.628906 1.234375 L 8.828125 2.589844 L 9.34375 2.894531 L 11.234375 -0.296875 L 10.714844 -0.601562 L 9.917969 0.75 L 5.980469 -1.578125 L 7.636719 -4.378906 L 15.144531 0.0664062 L 13.921875 2.128906 Z M 14.46875 2.453125 "/></g></g><g style="fill:rgb(100%,0%,0%);fill-opacity:1;"><g transform="translate(158.045766, 262.4866)"><path style="stroke:none;" d="M 8.058594 -1.980469 C 4.839844 -3.339844 3.90625 -4.070312 4.214844 -5.03125 C 4.574219 -6.136719 6.015625 -6.261719 7.933594 -5.640625 C 10.375 -4.851562 11.777344 -3.410156 12.578125 -1.5625 L 12.875 -1.542969 L 13.734375 -4.203125 L 13.144531 -4.394531 L 12.585938 -2.671875 C 11.816406 -4.042969 10.5 -5.425781 8.136719 -6.191406 C 5.683594 -6.988281 4.011719 -6.660156 3.554688 -5.242188 C 3.148438 -3.988281 4.117188 -2.929688 7.628906 -1.476562 C 10.925781 -0.117188 12.039062 0.644531 11.703125 1.683594 C 11.367188 2.722656 9.925781 2.773438 8.1875 2.210938 C 5.972656 1.496094 3.742188 -0.175781 2.832031 -2.121094 L 2.527344 -2.15625 L 1.65625 0.535156 L 2.25 0.730469 L 2.820312 -1.03125 C 3.785156 0.417969 5.71875 2.015625 8 2.757812 C 10.15625 3.457031 11.902344 3.25 12.339844 1.890625 C 12.804688 0.464844 11.527344 -0.503906 8.058594 -1.980469 Z M 8.058594 -1.980469 "/></g></g><g style="fill:rgb(100%,0%,0%);fill-opacity:1;"><g transform="translate(172.938663, 266.893313)"><path style="stroke:none;" d="M 8.167969 -6.550781 L 8.25 -7.121094 L 2.039062 -8.023438 L 1.957031 -7.453125 L 4.734375 -7.046875 L 3.714844 -0.0429688 L 0.9375 -0.445312 L 0.855469 0.125 L 7.066406 1.027344 L 7.148438 0.457031 L 4.382812 0.0546875 L 5.398438 -6.953125 Z M 8.167969 -6.550781 "/></g></g><g style="fill:rgb(100%,0%,0%);fill-opacity:1;"><g transform="translate(182.781745, 268.426892)"><path style="stroke:none;" d="M 6.800781 -8.027344 C 8.921875 -8.089844 10.769531 -7.421875 12.214844 -5.589844 L 12.585938 -5.660156 L 12.5 -8.601562 L 11.886719 -8.582031 L 11.945312 -6.53125 C 10.742188 -7.851562 8.992188 -8.667969 6.6875 -8.597656 C 3.59375 -8.507812 0.953125 -6.847656 1.03125 -4.136719 C 1.109375 -1.449219 3.769531 0.046875 6.925781 -0.046875 C 9.203125 -0.113281 11.246094 -0.867188 12.691406 -2.003906 L 12.617188 -4.488281 L 6.8125 -4.316406 L 6.828125 -3.753906 L 11.976562 -3.902344 L 12.023438 -2.285156 C 10.71875 -1.332031 8.925781 -0.679688 6.921875 -0.621094 C 4.101562 -0.539062 1.792969 -1.851562 1.726562 -4.15625 C 1.660156 -6.484375 3.957031 -7.941406 6.800781 -8.027344 Z M 6.800781 -8.027344 "/></g></g><g style="fill:rgb(100%,0%,0%);fill-opacity:1;"><g transform="translate(199.298145, 267.86807)"><path style="stroke:none;" d="M 14.488281 -12.542969 L 8.472656 -10.882812 L 8.625 -10.324219 L 11.320312 -11.070312 L 13.078125 -4.707031 L 2 -9.078125 L 1.996094 -9.089844 L -1.359375 -8.164062 L -1.207031 -7.609375 L 1.5 -8.355469 L 3.386719 -1.53125 L 0.679688 -0.785156 L 0.832031 -0.230469 L 6.90625 -1.90625 L 6.753906 -2.460938 L 4.023438 -1.707031 L 2.222656 -8.222656 L 13.761719 -3.714844 L 14.007812 -3.78125 L 11.945312 -11.242188 L 14.640625 -11.988281 Z M 14.488281 -12.542969 "/></g></g><g style="fill:rgb(100%,0%,0%);fill-opacity:1;"><g transform="translate(218.249541, 262.200142)"><path style="stroke:none;" d="M 9.308594 -11.347656 L 7.835938 -13.933594 L -3.324219 -7.582031 L -3.039062 -7.082031 L -0.597656 -8.46875 L 2.90625 -2.316406 L 0.464844 -0.929688 L 0.75 -0.425781 L 11.90625 -6.78125 L 10.433594 -9.367188 L 9.894531 -9.058594 L 11.082031 -6.972656 L 3.488281 -2.648438 L 1.875 -5.488281 L 5.847656 -7.75 L 6.625 -6.382812 L 7.148438 -6.679688 L 5.3125 -9.902344 L 4.789062 -9.605469 L 5.566406 -8.238281 L 1.59375 -5.976562 L -0.015625 -8.800781 L 7.566406 -13.121094 L 8.753906 -11.035156 Z M 9.308594 -11.347656 "/></g></g><g style="fill:rgb(100%,0%,0%);fill-opacity:1;"><g transform="translate(233.469053, 253.30015)"><path style="stroke:none;" d="M 9.234375 -12.722656 L 9.472656 -12.472656 C 10.300781 -11.601562 10.308594 -10.386719 9.492188 -9.609375 C 8.636719 -8.800781 7.679688 -8.921875 6.3125 -9.074219 C 5.253906 -9.179688 4.589844 -9.179688 3.972656 -8.925781 L 5.601562 -10.46875 C 7.039062 -11.832031 7.042969 -13.273438 6.234375 -14.128906 C 5.339844 -15.070312 3.933594 -15.074219 2.496094 -13.710938 L -5.035156 -6.566406 L -4.640625 -6.148438 L -2.601562 -8.082031 L 2.269531 -2.945312 L 0.230469 -1.011719 L 0.636719 -0.585938 L 5.171875 -4.90625 L 4.769531 -5.332031 L 2.746094 -3.414062 L 0.585938 -5.695312 L 2.769531 -7.769531 C 3.78125 -8.726562 4.621094 -8.679688 6.066406 -8.480469 C 7.519531 -8.269531 8.832031 -8.160156 9.902344 -9.175781 C 11.019531 -10.230469 10.949219 -11.820312 9.917969 -12.910156 L 9.6875 -13.152344 Z M 2.898438 -13.300781 C 4.050781 -14.390625 5.117188 -14.328125 5.746094 -13.667969 C 6.371094 -13.003906 6.335938 -11.925781 5.210938 -10.863281 L 0.195312 -6.105469 L -2.117188 -8.542969 Z M 2.898438 -13.300781 "/></g></g></g></svg>