<?xml version="1.0" encoding="UTF-8"?><svg xmlns="http://www.w3.org/2000/svg" xmlns:xlink="http://www.w3.org/1999/xlink" width="768pt" zoomAndPan="magnify" viewBox="0 0 768 576" height="576pt" preserveAspectRatio="xMidYMid meet" version="1.2"><defs><g/><clipPath xml:id="clip1" id="clip1"><path d="M 324 57.601562 L 444 57.601562 L 444 230 L 324 230 Z M 324 57.601562 "/></clipPath><clipPath xml:id="clip2" id="clip2"><path d="M 314.355469 223 L 453.855469 223 L 453.855469 244 L 314.355469 244 Z M 314.355469 223 "/></clipPath><clipPath xml:id="clip3" id="clip3"><path d="M 320 236 L 448 236 L 448 256.351562 L 320 256.351562 Z M 320 236 "/></clipPath></defs><g xml:id="surface1" id="surface1"><rect x="0" width="768" y="0" height="576" style="fill:rgb(100%,100%,100%);fill-opacity:1;stroke:none;"/><rect x="0" width="768" y="0" height="576" style="fill:rgb(82.749939%,86.268616%,88.238525%);fill-opacity:1;stroke:none;"/><g style="fill:rgb(65.098572%,65.098572%,65.098572%);fill-opacity:1;"><g transform="translate(261.174085, 512.400119)"><path style="stroke:none;" d="M 6.109375 0.253906 C 8.734375 0.253906 10.835938 -1.238281 10.835938 -3.738281 C 10.835938 -6.152344 8.800781 -7.203125 6.445312 -8.042969 C 4.726562 -8.652344 3.003906 -9.28125 3.003906 -11.023438 C 3.003906 -12.515625 4.492188 -13.25 6.027344 -13.25 C 7.371094 -13.25 8.503906 -12.871094 9.660156 -12.054688 L 10.289062 -13.105469 C 8.925781 -14.113281 7.558594 -14.53125 5.964844 -14.53125 C 3.652344 -14.53125 1.597656 -13.210938 1.597656 -10.960938 C 1.597656 -8.566406 3.84375 -7.519531 5.941406 -6.78125 C 7.8125 -6.132812 9.449219 -5.4375 9.449219 -3.675781 C 9.449219 -1.972656 7.894531 -1.027344 6.109375 -1.027344 C 4.472656 -1.027344 2.980469 -1.597656 1.910156 -2.5625 L 1.195312 -1.46875 C 2.414062 -0.441406 4.179688 0.253906 6.109375 0.253906 Z M 6.109375 0.253906 "/></g></g><g style="fill:rgb(65.098572%,65.098572%,65.098572%);fill-opacity:1;"><g transform="translate(274.341136, 512.400119)"><path style="stroke:none;" d="M 10.648438 -14.28125 L 0.484375 -14.28125 L 0.484375 -13.019531 L 4.871094 -13.019531 L 4.871094 0 L 6.257812 0 L 6.257812 -13.019531 L 10.648438 -13.019531 Z M 10.648438 -14.28125 "/></g></g><g style="fill:rgb(65.098572%,65.098572%,65.098572%);fill-opacity:1;"><g transform="translate(286.731179, 512.400119)"><path style="stroke:none;" d="M 7.414062 0.253906 C 10.394531 0.253906 12.851562 -1.53125 12.851562 -4.894531 L 12.851562 -14.28125 L 11.464844 -14.28125 L 11.464844 -4.914062 C 11.464844 -2.289062 9.785156 -1.007812 7.414062 -1.007812 C 4.996094 -1.007812 3.316406 -2.289062 3.316406 -4.914062 L 3.316406 -14.28125 L 1.933594 -14.28125 L 1.933594 -4.894531 C 1.933594 -1.53125 4.390625 0.253906 7.414062 0.253906 Z M 7.414062 0.253906 "/></g></g><g style="fill:rgb(65.098572%,65.098572%,65.098572%);fill-opacity:1;"><g transform="translate(302.775239, 512.400119)"><path style="stroke:none;" d="M 2.101562 0 L 6.699219 0 C 11.089844 0 13.964844 -2.980469 13.964844 -7.117188 C 13.964844 -11.277344 11.003906 -14.28125 6.679688 -14.28125 L 2.101562 -14.28125 Z M 3.484375 -1.261719 L 3.484375 -13.019531 L 6.679688 -13.019531 C 10.246094 -13.019531 12.601562 -10.457031 12.601562 -7.117188 C 12.601562 -3.800781 10.269531 -1.261719 6.699219 -1.261719 Z M 3.484375 -1.261719 "/></g></g><g style="fill:rgb(65.098572%,65.098572%,65.098572%);fill-opacity:1;"><g transform="translate(319.197299, 512.400119)"><path style="stroke:none;" d="M 3.484375 -1.261719 L 3.484375 -6.699219 L 9.765625 -6.699219 L 9.765625 -7.9375 L 3.484375 -7.9375 L 3.484375 -13.019531 L 10.625 -13.019531 L 10.625 -14.28125 L 2.101562 -14.28125 L 2.101562 0 L 10.816406 0 L 10.816406 -1.261719 Z M 3.484375 -1.261719 "/></g></g><g style="fill:rgb(65.098572%,65.098572%,65.098572%);fill-opacity:1;"><g transform="translate(332.19635, 512.400119)"><path style="stroke:none;" d="M 12.558594 -14.28125 L 12.558594 -4.261719 C 12.558594 -3.800781 12.558594 -3.296875 12.601562 -2.773438 C 12.242188 -3.191406 11.886719 -3.589844 11.550781 -3.96875 L 2.6875 -14.386719 L 2.101562 -14.386719 L 2.101562 0 L 3.484375 0 L 3.484375 -10.164062 C 3.484375 -10.648438 3.464844 -11.089844 3.421875 -11.527344 C 3.78125 -11.128906 4.136719 -10.730469 4.453125 -10.351562 L 13.335938 0.105469 L 13.945312 0.105469 L 13.945312 -14.28125 Z M 12.558594 -14.28125 "/></g></g><g style="fill:rgb(65.098572%,65.098572%,65.098572%);fill-opacity:1;"><g transform="translate(349.500417, 512.400119)"><path style="stroke:none;" d="M 10.648438 -14.28125 L 0.484375 -14.28125 L 0.484375 -13.019531 L 4.871094 -13.019531 L 4.871094 0 L 6.257812 0 L 6.257812 -13.019531 L 10.648438 -13.019531 Z M 10.648438 -14.28125 "/></g></g><g style="fill:rgb(65.098572%,65.098572%,65.098572%);fill-opacity:1;"><g transform="translate(361.890465, 512.400119)"><path style="stroke:none;" d=""/></g></g><g style="fill:rgb(65.098572%,65.098572%,65.098572%);fill-opacity:1;"><g transform="translate(367.938484, 512.400119)"><path style="stroke:none;" d="M 7.414062 0.253906 C 10.394531 0.253906 12.851562 -1.53125 12.851562 -4.894531 L 12.851562 -14.28125 L 11.464844 -14.28125 L 11.464844 -4.914062 C 11.464844 -2.289062 9.785156 -1.007812 7.414062 -1.007812 C 4.996094 -1.007812 3.316406 -2.289062 3.316406 -4.914062 L 3.316406 -14.28125 L 1.933594 -14.28125 L 1.933594 -4.894531 C 1.933594 -1.53125 4.390625 0.253906 7.414062 0.253906 Z M 7.414062 0.253906 "/></g></g><g style="fill:rgb(65.098572%,65.098572%,65.098572%);fill-opacity:1;"><g transform="translate(383.982551, 512.400119)"><path style="stroke:none;" d="M 2.101562 0 L 3.484375 0 L 3.484375 -14.28125 L 2.101562 -14.28125 Z M 2.101562 0 "/></g></g><g style="fill:rgb(65.098572%,65.098572%,65.098572%);fill-opacity:1;"><g transform="translate(390.828567, 512.400119)"><path style="stroke:none;" d=""/></g></g><g style="fill:rgb(65.098572%,65.098572%,65.098572%);fill-opacity:1;"><g transform="translate(396.876586, 512.400119)"><path style="stroke:none;" d="M 2.101562 0 L 3.484375 0 L 3.484375 -5.734375 L 7.285156 -5.734375 C 10.4375 -5.734375 11.863281 -7.9375 11.863281 -9.933594 C 11.863281 -11.949219 10.351562 -14.28125 7.371094 -14.28125 L 2.101562 -14.28125 Z M 3.484375 -6.992188 L 3.484375 -13.019531 L 7.351562 -13.019531 C 9.238281 -13.019531 10.480469 -11.59375 10.480469 -9.953125 C 10.480469 -8.464844 9.449219 -6.992188 7.265625 -6.992188 Z M 3.484375 -6.992188 "/></g></g><g style="fill:rgb(65.098572%,65.098572%,65.098572%);fill-opacity:1;"><g transform="translate(410.694639, 512.400119)"><path style="stroke:none;" d="M 8.253906 -5.984375 C 10.585938 -6.34375 12.054688 -7.9375 12.054688 -10.078125 C 12.054688 -12.453125 10.039062 -14.28125 7.496094 -14.28125 L 2.101562 -14.28125 L 2.101562 0 L 3.484375 0 L 3.484375 -5.921875 L 6.71875 -5.921875 L 10.730469 0 L 12.328125 0 L 12.328125 -0.0625 Z M 3.484375 -7.183594 L 3.484375 -13.019531 L 7.496094 -13.019531 C 9.367188 -13.019531 10.667969 -11.71875 10.667969 -10.058594 C 10.667969 -8.359375 9.429688 -7.183594 7.433594 -7.183594 Z M 3.484375 -7.183594 "/></g></g><g style="fill:rgb(65.098572%,65.098572%,65.098572%);fill-opacity:1;"><g transform="translate(425.079702, 512.400119)"><path style="stroke:none;" d="M 8.421875 0.253906 C 12.703125 0.253906 15.664062 -3.085938 15.664062 -7.160156 C 15.664062 -11.402344 12.703125 -14.53125 8.421875 -14.53125 C 4.199219 -14.53125 1.195312 -11.402344 1.195312 -7.160156 C 1.195312 -3.085938 4.199219 0.253906 8.421875 0.253906 Z M 8.421875 -1.027344 C 4.957031 -1.027344 2.582031 -3.78125 2.582031 -7.160156 C 2.582031 -10.6875 4.957031 -13.25 8.421875 -13.25 C 11.929688 -13.25 14.28125 -10.6875 14.28125 -7.160156 C 14.28125 -3.78125 11.929688 -1.027344 8.421875 -1.027344 Z M 8.421875 -1.027344 "/></g></g><g style="fill:rgb(65.098572%,65.098572%,65.098572%);fill-opacity:1;"><g transform="translate(443.202771, 512.400119)"><path style="stroke:none;" d="M 4.285156 0.253906 C 7.140625 0.253906 8.695312 -1.40625 8.695312 -4.429688 L 8.695312 -14.28125 L 7.328125 -14.28125 L 7.328125 -4.453125 C 7.328125 -2.226562 6.238281 -1.027344 4.285156 -1.027344 C 3.085938 -1.027344 2.035156 -1.386719 1.070312 -2.164062 L 0.378906 -1.050781 C 1.574219 -0.167969 2.835938 0.253906 4.285156 0.253906 Z M 4.285156 0.253906 "/></g></g><g style="fill:rgb(65.098572%,65.098572%,65.098572%);fill-opacity:1;"><g transform="translate(455.109821, 512.400119)"><path style="stroke:none;" d="M 3.484375 -1.261719 L 3.484375 -6.699219 L 9.765625 -6.699219 L 9.765625 -7.9375 L 3.484375 -7.9375 L 3.484375 -13.019531 L 10.625 -13.019531 L 10.625 -14.28125 L 2.101562 -14.28125 L 2.101562 0 L 10.816406 0 L 10.816406 -1.261719 Z M 3.484375 -1.261719 "/></g></g><g style="fill:rgb(65.098572%,65.098572%,65.098572%);fill-opacity:1;"><g transform="translate(468.108867, 512.400119)"><path style="stroke:none;" d="M 8.441406 0.253906 C 10.960938 0.253906 12.914062 -0.925781 14.089844 -2.625 L 13.105469 -3.402344 C 12.054688 -1.996094 10.457031 -1.027344 8.441406 -1.027344 C 4.976562 -1.027344 2.582031 -3.78125 2.582031 -7.160156 C 2.582031 -10.625 4.996094 -13.25 8.441406 -13.25 C 10.480469 -13.25 11.863281 -12.535156 13 -11.359375 L 13.816406 -12.199219 C 12.304688 -13.734375 10.6875 -14.53125 8.441406 -14.53125 C 4.199219 -14.53125 1.195312 -11.382812 1.195312 -7.160156 C 1.195312 -3.085938 4.136719 0.253906 8.441406 0.253906 Z M 8.441406 0.253906 "/></g></g><g style="fill:rgb(65.098572%,65.098572%,65.098572%);fill-opacity:1;"><g transform="translate(484.047923, 512.400119)"><path style="stroke:none;" d="M 10.648438 -14.28125 L 0.484375 -14.28125 L 0.484375 -13.019531 L 4.871094 -13.019531 L 4.871094 0 L 6.257812 0 L 6.257812 -13.019531 L 10.648438 -13.019531 Z M 10.648438 -14.28125 "/></g></g><g clip-rule="nonzero" clip-path="url(#clip1)"><path style=" stroke:none;fill-rule:nonzero;fill:rgb(0%,0%,0%);fill-opacity:1;" d="M 440.570312 229.847656 L 327.640625 229.847656 C 325.808594 229.847656 324.320312 228.367188 324.320312 226.535156 L 324.320312 117.226562 C 324.320312 84.351562 351.140625 57.601562 384.105469 57.601562 C 417.070312 57.601562 443.890625 84.351562 443.890625 117.226562 L 443.890625 226.535156 C 443.890625 228.367188 442.40625 229.847656 440.570312 229.847656 Z M 330.964844 223.222656 L 437.25 223.222656 L 437.25 117.226562 C 437.25 88.003906 413.410156 64.226562 384.105469 64.226562 C 354.800781 64.226562 330.964844 88.003906 330.964844 117.226562 Z M 330.964844 223.222656 "/></g><path style=" stroke:none;fill-rule:nonzero;fill:rgb(0%,0%,0%);fill-opacity:1;" d="M 427.285156 229.847656 L 340.929688 229.847656 C 339.09375 229.847656 337.605469 228.367188 337.605469 226.535156 L 337.605469 117.226562 C 337.605469 91.652344 358.464844 70.851562 384.105469 70.851562 C 409.75 70.851562 430.605469 91.652344 430.605469 117.226562 L 430.605469 226.535156 C 430.605469 228.367188 429.117188 229.847656 427.285156 229.847656 Z M 344.25 223.222656 L 423.964844 223.222656 L 423.964844 117.226562 C 423.964844 95.308594 406.085938 77.476562 384.105469 77.476562 C 362.128906 77.476562 344.25 95.308594 344.25 117.226562 Z M 344.25 223.222656 "/><g clip-rule="nonzero" clip-path="url(#clip2)"><path style=" stroke:none;fill-rule:nonzero;fill:rgb(0%,0%,0%);fill-opacity:1;" d="M 450.535156 243.097656 L 317.679688 243.097656 C 315.84375 243.097656 314.355469 241.617188 314.355469 239.785156 L 314.355469 226.535156 C 314.355469 224.703125 315.84375 223.222656 317.679688 223.222656 L 450.535156 223.222656 C 452.367188 223.222656 453.855469 224.703125 453.855469 226.535156 L 453.855469 239.785156 C 453.855469 241.617188 452.367188 243.097656 450.535156 243.097656 Z M 321 236.472656 L 447.214844 236.472656 L 447.214844 229.847656 L 321 229.847656 Z M 321 236.472656 "/></g><g clip-rule="nonzero" clip-path="url(#clip3)"><path style=" stroke:none;fill-rule:nonzero;fill:rgb(0%,0%,0%);fill-opacity:1;" d="M 437.25 256.347656 L 330.964844 256.347656 C 329.703125 256.347656 328.554688 255.640625 327.992188 254.515625 L 321.347656 241.265625 C 320.832031 240.238281 320.890625 239.019531 321.496094 238.042969 C 322.101562 237.070312 323.167969 236.472656 324.320312 236.472656 L 443.890625 236.472656 C 445.046875 236.472656 446.109375 237.070312 446.71875 238.046875 C 447.324219 239.023438 447.378906 240.242188 446.863281 241.269531 L 440.222656 254.519531 C 439.65625 255.640625 438.507812 256.347656 437.25 256.347656 Z M 333.015625 249.722656 L 435.195312 249.722656 L 438.519531 243.097656 L 329.695312 243.097656 Z M 333.015625 249.722656 "/></g><path style=" stroke:none;fill-rule:nonzero;fill:rgb(0%,0%,0%);fill-opacity:1;" d="M 384.105469 229.847656 L 340.929688 229.847656 C 339.09375 229.847656 337.605469 228.367188 337.605469 226.535156 L 337.605469 117.226562 C 337.605469 115.394531 339.09375 113.914062 340.929688 113.914062 L 384.105469 113.914062 C 385.941406 113.914062 387.429688 115.394531 387.429688 117.226562 L 387.429688 226.535156 C 387.429688 228.367188 385.941406 229.847656 384.105469 229.847656 Z M 344.25 223.222656 L 380.785156 223.222656 L 380.785156 120.539062 L 344.25 120.539062 Z M 344.25 223.222656 "/><path style=" stroke:none;fill-rule:nonzero;fill:rgb(0%,0%,0%);fill-opacity:1;" d="M 384.105469 173.539062 L 340.929688 173.539062 C 339.09375 173.539062 337.605469 172.054688 337.605469 170.226562 L 337.605469 117.226562 C 337.605469 115.394531 339.09375 113.914062 340.929688 113.914062 L 384.105469 113.914062 C 385.941406 113.914062 387.429688 115.394531 387.429688 117.226562 L 387.429688 170.226562 C 387.429688 172.054688 385.941406 173.539062 384.105469 173.539062 Z M 344.25 166.914062 L 380.785156 166.914062 L 380.785156 120.539062 L 344.25 120.539062 Z M 344.25 166.914062 "/><path style=" stroke:none;fill-rule:nonzero;fill:rgb(0%,0%,0%);fill-opacity:1;" d="M 384.105469 229.847656 L 340.929688 229.847656 C 339.09375 229.847656 337.605469 228.367188 337.605469 226.535156 L 337.605469 170.226562 C 337.605469 168.394531 339.09375 166.914062 340.929688 166.914062 L 384.105469 166.914062 C 385.941406 166.914062 387.429688 168.394531 387.429688 170.226562 L 387.429688 226.535156 C 387.429688 228.367188 385.941406 229.847656 384.105469 229.847656 Z M 344.25 223.222656 L 380.785156 223.222656 L 380.785156 173.539062 L 344.25 173.539062 Z M 344.25 223.222656 "/><path style=" stroke:none;fill-rule:nonzero;fill:rgb(0%,0%,0%);fill-opacity:1;" d="M 427.285156 229.847656 L 384.105469 229.847656 C 382.273438 229.847656 380.785156 228.367188 380.785156 226.535156 L 380.785156 117.226562 C 380.785156 115.394531 382.273438 113.914062 384.105469 113.914062 L 427.285156 113.914062 C 429.117188 113.914062 430.605469 115.394531 430.605469 117.226562 L 430.605469 226.535156 C 430.605469 228.367188 429.117188 229.847656 427.285156 229.847656 Z M 387.429688 223.222656 L 423.964844 223.222656 L 423.964844 120.539062 L 387.429688 120.539062 Z M 387.429688 223.222656 "/><path style=" stroke:none;fill-rule:nonzero;fill:rgb(0%,0%,0%);fill-opacity:1;" d="M 427.285156 173.539062 L 384.105469 173.539062 C 382.273438 173.539062 380.785156 172.054688 380.785156 170.226562 L 380.785156 117.226562 C 380.785156 115.394531 382.273438 113.914062 384.105469 113.914062 L 427.285156 113.914062 C 429.117188 113.914062 430.605469 115.394531 430.605469 117.226562 L 430.605469 170.226562 C 430.605469 172.054688 429.117188 173.539062 427.285156 173.539062 Z M 387.429688 166.914062 L 423.964844 166.914062 L 423.964844 120.539062 L 387.429688 120.539062 Z M 387.429688 166.914062 "/><path style=" stroke:none;fill-rule:nonzero;fill:rgb(0%,0%,0%);fill-opacity:1;" d="M 427.285156 229.847656 L 384.105469 229.847656 C 382.273438 229.847656 380.785156 228.367188 380.785156 226.535156 L 380.785156 170.226562 C 380.785156 168.394531 382.273438 166.914062 384.105469 166.914062 L 427.285156 166.914062 C 429.117188 166.914062 430.605469 168.394531 430.605469 170.226562 L 430.605469 226.535156 C 430.605469 228.367188 429.117188 229.847656 427.285156 229.847656 Z M 387.429688 223.222656 L 423.964844 223.222656 L 423.964844 173.539062 L 387.429688 173.539062 Z M 387.429688 223.222656 "/><path style=" stroke:none;fill-rule:nonzero;fill:rgb(0%,0%,0%);fill-opacity:1;" d="M 384.105469 120.539062 C 383.257812 120.539062 382.40625 120.214844 381.757812 119.566406 C 380.460938 118.273438 380.460938 116.179688 381.757812 114.882812 L 411.652344 85.074219 C 412.945312 83.777344 415.050781 83.777344 416.347656 85.074219 C 417.648438 86.367188 417.648438 88.460938 416.347656 89.757812 L 386.453125 119.566406 C 385.808594 120.214844 384.957031 120.539062 384.105469 120.539062 Z M 384.105469 120.539062 "/><path style=" stroke:none;fill-rule:nonzero;fill:rgb(0%,0%,0%);fill-opacity:1;" d="M 384.105469 120.539062 C 383.257812 120.539062 382.40625 120.214844 381.757812 119.566406 L 351.867188 89.757812 C 350.566406 88.460938 350.566406 86.367188 351.867188 85.074219 C 353.160156 83.777344 355.265625 83.777344 356.5625 85.074219 L 386.453125 114.882812 C 387.753906 116.179688 387.753906 118.273438 386.453125 119.566406 C 385.808594 120.214844 384.957031 120.539062 384.105469 120.539062 Z M 384.105469 120.539062 "/><path style=" stroke:none;fill-rule:nonzero;fill:rgb(0%,0%,0%);fill-opacity:1;" d="M 384.105469 120.539062 C 382.273438 120.539062 380.785156 119.058594 380.785156 117.226562 L 380.785156 74.164062 C 380.785156 72.332031 382.273438 70.851562 384.105469 70.851562 C 385.941406 70.851562 387.429688 72.332031 387.429688 74.164062 L 387.429688 117.226562 C 387.429688 119.058594 385.941406 120.539062 384.105469 120.539062 Z M 384.105469 120.539062 "/><path style=" stroke:none;fill-rule:nonzero;fill:rgb(82.749939%,86.268616%,88.238525%);fill-opacity:1;" d="M 344.164062 120.441406 L 423.660156 120.441406 L 423.660156 223.191406 L 344.164062 223.191406 Z M 344.164062 120.441406 "/><g style="fill:rgb(0%,0%,0%);fill-opacity:1;"><g transform="translate(347.241518, 200.917659)"><path style="stroke:none;" d="M 4.871094 -61.53125 C 5.050781 -61.078125 5.414062 -60.808594 5.953125 -60.628906 C 6.496094 -60.539062 7.128906 -60.539062 7.667969 -60.359375 C 8.300781 -60.269531 8.839844 -60.085938 9.292969 -59.726562 C 9.835938 -59.367188 10.195312 -58.914062 10.195312 -58.28125 C 10.285156 -56.480469 10.375 -54.675781 10.375 -52.960938 C 10.554688 -43.035156 10.464844 -33.019531 10.464844 -23.097656 C 10.375 -18.496094 10.285156 -13.894531 10.195312 -9.203125 C 10.195312 -8.210938 10.195312 -7.128906 10.105469 -6.042969 C 10.015625 -5.503906 9.925781 -4.871094 9.742188 -4.332031 C 9.652344 -3.878906 9.382812 -3.429688 9.023438 -3.15625 C 8.660156 -2.796875 8.300781 -2.527344 7.757812 -2.347656 C 6.765625 -2.074219 5.773438 -1.714844 4.78125 -1.445312 C 4.511719 -1.351562 4.242188 -1.351562 4.058594 -1.261719 C 3.789062 -1.082031 3.429688 -0.902344 3.15625 -0.722656 C 2.886719 -0.542969 2.886719 -0.269531 2.976562 -0.0898438 C 3.15625 0.0898438 3.246094 0.269531 3.429688 0.359375 C 4.058594 0.632812 4.601562 0.542969 5.234375 0.542969 C 11.730469 0.542969 18.226562 0.449219 24.71875 0.449219 C 25.261719 0.449219 25.714844 0.449219 26.164062 0.449219 C 27.15625 0.359375 28.058594 0.179688 28.960938 -0.179688 C 29.230469 -0.269531 29.320312 -0.8125 29.050781 -1.082031 C 28.871094 -1.261719 28.691406 -1.351562 28.511719 -1.351562 C 26.976562 -1.625 25.53125 -2.253906 24.179688 -2.976562 C 23.636719 -3.339844 23.277344 -3.789062 23.1875 -4.421875 C 23.1875 -4.960938 23.1875 -5.59375 23.1875 -6.226562 C 23.1875 -10.375 23.1875 -14.527344 23.1875 -18.585938 C 23.1875 -21.113281 23.1875 -23.636719 23.1875 -26.074219 C 23.1875 -26.523438 23.277344 -27.066406 23.277344 -27.515625 C 23.277344 -28.058594 23.820312 -28.601562 24.359375 -28.78125 C 24.71875 -28.78125 25.082031 -28.960938 25.441406 -28.960938 C 28.058594 -29.050781 30.585938 -29.230469 33.203125 -29.320312 C 38.074219 -29.59375 42.945312 -29.414062 47.816406 -29.320312 C 47.996094 -29.320312 48.269531 -29.230469 48.449219 -29.140625 C 48.71875 -29.140625 49.171875 -28.691406 49.171875 -28.417969 C 49.261719 -27.878906 49.261719 -27.246094 49.261719 -26.707031 C 49.351562 -21.742188 49.351562 -16.78125 49.441406 -11.730469 C 49.441406 -9.652344 49.351562 -7.488281 49.351562 -5.414062 C 49.351562 -5.050781 49.351562 -4.691406 49.261719 -4.332031 C 49.261719 -3.878906 48.988281 -3.429688 48.539062 -3.15625 C 47.996094 -2.796875 47.367188 -2.4375 46.644531 -2.253906 C 46.011719 -1.984375 45.292969 -1.804688 44.660156 -1.535156 C 44.390625 -1.535156 44.207031 -1.351562 44.027344 -1.261719 C 43.757812 -1.082031 43.757812 -0.902344 43.757812 -0.632812 C 43.847656 -0.449219 44.027344 -0.269531 44.207031 -0.179688 C 44.480469 -0.0898438 44.660156 0 44.929688 0 C 46.191406 0 47.546875 0 48.808594 0 C 51.335938 0 53.773438 0 56.296875 0 C 57.019531 0 57.742188 0.0898438 58.375 0.269531 C 59.09375 0.449219 59.816406 0.542969 60.539062 0.542969 C 62.972656 0.542969 65.5 0.542969 67.9375 0.542969 C 68.207031 0.542969 68.476562 0.449219 68.660156 0.449219 C 68.839844 0.449219 68.929688 0.359375 69.019531 0.359375 C 69.289062 0.269531 69.742188 -0.269531 69.652344 -0.359375 C 69.5625 -0.632812 69.378906 -0.8125 69.199219 -0.902344 C 69.019531 -1.082031 68.839844 -1.261719 68.660156 -1.261719 C 67.484375 -1.625 66.402344 -1.984375 65.230469 -2.253906 C 64.777344 -2.347656 64.328125 -2.617188 63.96875 -2.886719 C 63.425781 -3.15625 63.066406 -3.609375 62.972656 -4.242188 C 62.882812 -4.691406 62.882812 -5.234375 62.703125 -5.683594 C 62.34375 -6.945312 62.253906 -8.210938 62.253906 -9.5625 C 62.253906 -14.34375 62.253906 -19.21875 62.253906 -24.089844 C 62.253906 -35.097656 62.074219 -46.101562 62.253906 -57.109375 C 62.253906 -57.472656 62.253906 -57.832031 62.34375 -58.191406 C 62.433594 -58.824219 62.703125 -59.277344 63.335938 -59.636719 C 64.148438 -59.996094 65.050781 -60.359375 65.953125 -60.449219 C 66.492188 -60.449219 66.945312 -60.449219 67.394531 -60.71875 C 67.574219 -60.898438 67.757812 -60.988281 67.664062 -61.261719 C 67.664062 -61.53125 67.574219 -61.710938 67.304688 -61.800781 C 67.214844 -61.890625 67.125 -61.890625 67.035156 -61.980469 C 66.492188 -61.980469 66.042969 -62.074219 65.589844 -62.074219 C 61.710938 -62.074219 57.742188 -62.074219 53.863281 -62.074219 C 50.976562 -62.074219 48.179688 -62.074219 45.292969 -62.074219 C 44.839844 -62.074219 44.390625 -62.074219 43.9375 -61.890625 C 43.667969 -61.800781 43.488281 -61.621094 43.578125 -61.441406 C 43.578125 -61.171875 43.667969 -60.988281 43.847656 -60.808594 C 44.117188 -60.628906 44.480469 -60.539062 44.839844 -60.449219 C 45.832031 -60.269531 46.644531 -59.996094 47.546875 -59.546875 C 48.089844 -59.367188 48.539062 -58.824219 48.628906 -58.28125 C 48.988281 -56.296875 49.351562 -54.3125 49.351562 -52.238281 C 49.261719 -48.628906 49.351562 -44.929688 49.351562 -41.230469 C 49.351562 -38.976562 49.261719 -36.71875 49.261719 -34.464844 C 49.261719 -34.285156 49.171875 -34.011719 49.082031 -33.832031 C 48.808594 -33.203125 48.359375 -32.839844 47.726562 -32.839844 C 46.464844 -32.839844 45.109375 -32.75 43.847656 -32.75 C 40.507812 -32.75 37.171875 -32.75 33.832031 -32.660156 C 33.019531 -32.660156 32.210938 -32.660156 31.398438 -32.480469 C 29.140625 -32.027344 26.886719 -32.117188 24.628906 -32.210938 C 24 -32.210938 23.367188 -33.019531 23.277344 -33.652344 C 23.277344 -34.195312 23.1875 -34.824219 23.1875 -35.457031 C 23.1875 -40.417969 23.1875 -45.382812 23.1875 -50.34375 C 23.277344 -51.785156 23.1875 -53.140625 23.546875 -54.582031 C 23.726562 -55.214844 23.636719 -56.027344 23.726562 -56.660156 C 23.726562 -57.199219 23.820312 -57.652344 23.820312 -58.101562 C 23.910156 -58.554688 24.179688 -59.003906 24.539062 -59.277344 C 25.171875 -59.816406 25.894531 -60.269531 26.796875 -60.449219 C 27.246094 -60.539062 27.699219 -60.539062 28.148438 -60.71875 C 28.511719 -60.808594 28.78125 -60.988281 29.050781 -61.261719 C 29.320312 -61.441406 29.320312 -61.621094 29.140625 -61.800781 C 28.960938 -62.074219 28.691406 -62.34375 28.328125 -62.433594 C 27.789062 -62.523438 27.335938 -62.523438 26.886719 -62.523438 C 20.390625 -62.523438 13.894531 -62.523438 7.308594 -62.523438 C 7.039062 -62.523438 6.675781 -62.523438 6.316406 -62.523438 C 5.683594 -62.433594 5.144531 -62.074219 4.871094 -61.53125 Z M 18.945312 -59.003906 C 19.398438 -58.734375 19.667969 -58.28125 19.757812 -57.832031 C 19.757812 -57.652344 19.757812 -57.5625 19.757812 -57.472656 C 19.757812 -54.402344 19.757812 -51.335938 19.757812 -48.179688 C 19.667969 -41.773438 19.578125 -35.457031 19.578125 -29.050781 C 19.488281 -24.359375 19.488281 -19.757812 19.578125 -15.15625 C 19.667969 -12.449219 19.667969 -9.652344 19.667969 -6.945312 C 19.667969 -6.136719 19.578125 -5.324219 19.488281 -4.511719 C 19.398438 -3.878906 18.675781 -3.15625 18.042969 -3.066406 C 17.050781 -2.976562 16.148438 -2.886719 15.246094 -3.066406 C 14.707031 -3.15625 14.34375 -3.429688 13.984375 -3.789062 C 13.804688 -4.058594 13.625 -4.421875 13.714844 -4.78125 C 13.714844 -8.570312 13.804688 -12.359375 13.894531 -16.148438 C 13.894531 -19.125 13.984375 -22.105469 13.984375 -25.082031 C 13.984375 -33.109375 13.984375 -41.140625 13.984375 -49.171875 C 13.984375 -51.695312 13.894531 -54.222656 13.894531 -56.660156 C 13.894531 -56.929688 13.894531 -57.199219 13.894531 -57.378906 C 13.894531 -58.28125 14.527344 -58.914062 15.429688 -59.003906 C 15.519531 -59.003906 15.699219 -59.003906 15.789062 -59.003906 C 16.871094 -59.003906 17.953125 -59.09375 18.945312 -59.003906 Z M 58.734375 -30.945312 C 58.734375 -22.554688 58.824219 -14.164062 58.824219 -5.773438 C 58.824219 -5.414062 58.824219 -5.050781 58.824219 -4.691406 C 58.824219 -4.058594 58.28125 -3.519531 57.742188 -3.519531 C 56.570312 -3.519531 55.304688 -3.519531 54.132812 -3.519531 C 53.683594 -3.519531 53.050781 -4.148438 53.050781 -4.691406 C 53.050781 -5.050781 52.960938 -5.414062 52.960938 -5.773438 C 52.871094 -11.007812 52.871094 -16.148438 52.871094 -21.382812 C 52.871094 -23.1875 52.960938 -24.902344 52.960938 -26.707031 C 52.960938 -27.789062 53.050781 -28.871094 52.960938 -29.863281 C 52.6875 -36.269531 52.960938 -42.675781 52.871094 -49.082031 C 52.871094 -49.890625 52.871094 -50.703125 52.871094 -51.515625 C 52.78125 -53.230469 52.78125 -54.855469 52.507812 -56.480469 C 52.417969 -56.839844 52.507812 -57.199219 52.507812 -57.5625 C 52.507812 -57.921875 53.140625 -58.464844 53.5 -58.554688 C 54.855469 -58.644531 56.296875 -58.644531 57.742188 -58.464844 C 58.101562 -58.464844 58.554688 -58.011719 58.644531 -57.5625 C 58.644531 -57.199219 58.734375 -56.839844 58.734375 -56.480469 C 58.824219 -56.027344 58.824219 -55.578125 58.824219 -55.125 C 58.644531 -48.898438 58.734375 -42.765625 58.734375 -36.628906 C 58.734375 -34.734375 58.734375 -32.839844 58.734375 -30.945312 Z M 58.734375 -30.945312 "/></g></g><g style="fill:rgb(0%,0%,0%);fill-opacity:1;"><g transform="translate(221.582005, 348.557298)"><path style="stroke:none;" d="M 59.765625 -57.5 C 57.753906 -57.382812 56.285156 -57.160156 55.359375 -56.828125 C 54.441406 -56.492188 53.816406 -55.851562 53.484375 -54.90625 C 53.148438 -53.957031 52.984375 -52.425781 52.984375 -50.3125 L 52.984375 -8.859375 C 52.984375 -6.742188 53.148438 -5.210938 53.484375 -4.265625 C 53.816406 -3.316406 54.441406 -2.675781 55.359375 -2.34375 C 56.285156 -2.007812 57.753906 -1.785156 59.765625 -1.671875 L 59.765625 0 C 57.421875 -0.164062 53.851562 -0.25 49.0625 -0.25 C 44.550781 -0.25 41.015625 -0.164062 38.453125 0 L 38.453125 -1.671875 C 40.453125 -1.785156 41.910156 -2.007812 42.828125 -2.34375 C 43.753906 -2.675781 44.382812 -3.316406 44.71875 -4.265625 C 45.050781 -5.210938 45.21875 -6.742188 45.21875 -8.859375 L 45.21875 -28.921875 L 18.046875 -28.921875 L 18.046875 -8.859375 C 18.046875 -6.742188 18.210938 -5.210938 18.546875 -4.265625 C 18.890625 -3.316406 19.519531 -2.675781 20.4375 -2.34375 C 21.351562 -2.007812 22.816406 -1.785156 24.828125 -1.671875 L 24.828125 0 C 22.265625 -0.164062 18.722656 -0.25 14.203125 -0.25 C 9.410156 -0.25 5.847656 -0.164062 3.515625 0 L 3.515625 -1.671875 C 5.515625 -1.785156 6.972656 -2.007812 7.890625 -2.34375 C 8.816406 -2.675781 9.445312 -3.316406 9.78125 -4.265625 C 10.113281 -5.210938 10.28125 -6.742188 10.28125 -8.859375 L 10.28125 -50.3125 C 10.28125 -52.425781 10.113281 -53.957031 9.78125 -54.90625 C 9.445312 -55.851562 8.816406 -56.492188 7.890625 -56.828125 C 6.972656 -57.160156 5.515625 -57.382812 3.515625 -57.5 L 3.515625 -59.171875 C 5.847656 -59.003906 9.410156 -58.921875 14.203125 -58.921875 C 18.660156 -58.921875 22.203125 -59.003906 24.828125 -59.171875 L 24.828125 -57.5 C 22.816406 -57.382812 21.351562 -57.160156 20.4375 -56.828125 C 19.519531 -56.492188 18.890625 -55.851562 18.546875 -54.90625 C 18.210938 -53.957031 18.046875 -52.425781 18.046875 -50.3125 L 18.046875 -30.59375 L 45.21875 -30.59375 L 45.21875 -50.3125 C 45.21875 -52.425781 45.050781 -53.957031 44.71875 -54.90625 C 44.382812 -55.851562 43.753906 -56.492188 42.828125 -56.828125 C 41.910156 -57.160156 40.453125 -57.382812 38.453125 -57.5 L 38.453125 -59.171875 C 41.015625 -59.003906 44.550781 -58.921875 49.0625 -58.921875 C 53.851562 -58.921875 57.421875 -59.003906 59.765625 -59.171875 Z M 59.765625 -57.5 "/></g></g><g style="fill:rgb(0%,0%,0%);fill-opacity:1;"><g transform="translate(284.846005, 348.557298)"><path style="stroke:none;" d="M 38.703125 -10.03125 C 37.691406 -6.96875 35.804688 -4.332031 33.046875 -2.125 C 30.296875 0.0703125 26.96875 1.171875 23.0625 1.171875 C 19.113281 1.171875 15.6875 0.265625 12.78125 -1.546875 C 9.882812 -3.359375 7.671875 -5.894531 6.140625 -9.15625 C 4.609375 -12.414062 3.84375 -16.191406 3.84375 -20.484375 C 3.84375 -25.328125 4.625 -29.53125 6.1875 -33.09375 C 7.75 -36.664062 9.945312 -39.410156 12.78125 -41.328125 C 15.625 -43.253906 18.941406 -44.21875 22.734375 -44.21875 C 27.742188 -44.21875 31.597656 -42.695312 34.296875 -39.65625 C 37.003906 -36.625 38.359375 -32.015625 38.359375 -25.828125 L 12.203125 -25.828125 C 12.035156 -24.265625 11.953125 -22.484375 11.953125 -20.484375 C 11.953125 -16.796875 12.550781 -13.585938 13.75 -10.859375 C 14.945312 -8.128906 16.535156 -6.023438 18.515625 -4.546875 C 20.492188 -3.078125 22.566406 -2.34375 24.734375 -2.34375 C 27.410156 -2.34375 29.78125 -2.984375 31.84375 -4.265625 C 33.90625 -5.546875 35.632812 -7.691406 37.03125 -10.703125 Z M 22.40625 -42.625 C 19.78125 -42.625 17.519531 -41.34375 15.625 -38.78125 C 13.726562 -36.21875 12.5625 -32.425781 12.125 -27.40625 L 30.34375 -27.40625 C 30.445312 -31.757812 29.816406 -35.382812 28.453125 -38.28125 C 27.085938 -41.175781 25.070312 -42.625 22.40625 -42.625 Z M 22.40625 -42.625 "/></g></g><g style="fill:rgb(0%,0%,0%);fill-opacity:1;"><g transform="translate(327.133434, 348.557298)"><path style="stroke:none;" d="M 28.421875 -44.21875 C 30.648438 -44.21875 32.472656 -43.578125 33.890625 -42.296875 C 35.304688 -41.015625 36.015625 -39.453125 36.015625 -37.609375 C 36.015625 -36.160156 35.582031 -34.921875 34.71875 -33.890625 C 33.863281 -32.859375 32.710938 -32.34375 31.265625 -32.34375 C 30.035156 -32.34375 28.988281 -32.734375 28.125 -33.515625 C 27.257812 -34.296875 26.828125 -35.351562 26.828125 -36.6875 C 26.828125 -38.53125 27.773438 -40.035156 29.671875 -41.203125 C 29.273438 -41.765625 28.691406 -42.046875 27.921875 -42.046875 C 25.742188 -42.046875 23.765625 -41.191406 21.984375 -39.484375 C 20.203125 -37.785156 18.804688 -35.710938 17.796875 -33.265625 C 16.796875 -30.816406 16.296875 -28.503906 16.296875 -26.328125 L 16.296875 -8.609375 C 16.296875 -6.046875 17.035156 -4.257812 18.515625 -3.25 C 19.992188 -2.25 22.207031 -1.75 25.15625 -1.75 L 25.15625 0 L 23.15625 -0.078125 C 17.46875 -0.242188 13.84375 -0.328125 12.28125 -0.328125 C 10.832031 -0.328125 7.546875 -0.21875 2.421875 0 L 2.421875 -1.75 C 4.765625 -1.75 6.410156 -2.179688 7.359375 -3.046875 C 8.304688 -3.910156 8.78125 -5.484375 8.78125 -7.765625 L 8.78125 -33.9375 C 8.78125 -36.5 8.304688 -38.363281 7.359375 -39.53125 C 6.410156 -40.695312 4.765625 -41.28125 2.421875 -41.28125 L 2.421875 -43.046875 C 4.203125 -42.878906 5.929688 -42.796875 7.609375 -42.796875 C 11.117188 -42.796875 14.015625 -43.1875 16.296875 -43.96875 L 16.296875 -33.515625 C 17.296875 -36.296875 18.894531 -38.773438 21.09375 -40.953125 C 23.300781 -43.128906 25.742188 -44.21875 28.421875 -44.21875 Z M 28.421875 -44.21875 "/></g></g><g style="fill:rgb(0%,0%,0%);fill-opacity:1;"><g transform="translate(364.32297, 348.557298)"><path style="stroke:none;" d="M 11.9375 -63.9375 C 13.394531 -63.9375 14.648438 -63.40625 15.703125 -62.34375 C 16.765625 -61.289062 17.296875 -60.039062 17.296875 -58.59375 C 17.296875 -57.144531 16.765625 -55.890625 15.703125 -54.828125 C 14.648438 -53.765625 13.394531 -53.234375 11.9375 -53.234375 C 10.488281 -53.234375 9.234375 -53.765625 8.171875 -54.828125 C 7.117188 -55.890625 6.59375 -57.144531 6.59375 -58.59375 C 6.59375 -60.039062 7.117188 -61.289062 8.171875 -62.34375 C 9.234375 -63.40625 10.488281 -63.9375 11.9375 -63.9375 Z M 16.296875 -7.765625 C 16.296875 -5.484375 16.769531 -3.910156 17.71875 -3.046875 C 18.664062 -2.179688 20.3125 -1.75 22.65625 -1.75 L 22.65625 0 C 17.519531 -0.21875 14.144531 -0.328125 12.53125 -0.328125 C 10.914062 -0.328125 7.546875 -0.21875 2.421875 0 L 2.421875 -1.75 C 4.765625 -1.75 6.410156 -2.179688 7.359375 -3.046875 C 8.304688 -3.910156 8.78125 -5.484375 8.78125 -7.765625 L 8.78125 -33.9375 C 8.78125 -36.5 8.304688 -38.363281 7.359375 -39.53125 C 6.410156 -40.695312 4.765625 -41.28125 2.421875 -41.28125 L 2.421875 -43.046875 C 4.203125 -42.878906 5.929688 -42.796875 7.609375 -42.796875 C 11.117188 -42.796875 14.015625 -43.1875 16.296875 -43.96875 Z M 16.296875 -7.765625 "/></g></g><g style="fill:rgb(0%,0%,0%);fill-opacity:1;"><g transform="translate(388.80956, 348.557298)"><path style="stroke:none;" d="M 15.875 -42.953125 L 28.25 -42.953125 L 28.25 -41.28125 L 15.875 -41.28125 L 15.875 -8.9375 C 15.875 -6.4375 16.332031 -4.628906 17.25 -3.515625 C 18.175781 -2.398438 19.503906 -1.84375 21.234375 -1.84375 C 22.953125 -1.84375 24.425781 -2.535156 25.65625 -3.921875 C 26.882812 -5.316406 27.914062 -7.601562 28.75 -10.78125 L 30.421875 -10.359375 C 29.023438 -2.671875 25.40625 1.171875 19.5625 1.171875 C 17.664062 1.171875 16.101562 0.945312 14.875 0.5 C 13.644531 0.0507812 12.5625 -0.644531 11.625 -1.59375 C 10.394531 -2.8125 9.539062 -4.3125 9.0625 -6.09375 C 8.59375 -7.882812 8.359375 -10.28125 8.359375 -13.28125 L 8.359375 -41.28125 L 0.328125 -41.28125 L 0.328125 -42.953125 L 8.359375 -42.953125 L 8.359375 -55.75 C 11.472656 -55.851562 13.976562 -56.242188 15.875 -56.921875 Z M 15.875 -42.953125 "/></g></g><g style="fill:rgb(0%,0%,0%);fill-opacity:1;"><g transform="translate(418.394042, 348.557298)"><path style="stroke:none;" d="M 13.625 0.578125 C 10.113281 0.578125 7.507812 -0.296875 5.8125 -2.046875 C 4.113281 -3.804688 3.265625 -6.242188 3.265625 -9.359375 C 3.265625 -11.867188 3.945312 -13.929688 5.3125 -15.546875 C 6.675781 -17.160156 8.289062 -18.441406 10.15625 -19.390625 C 12.019531 -20.335938 14.484375 -21.34375 17.546875 -22.40625 C 20.671875 -23.457031 22.984375 -24.425781 24.484375 -25.3125 C 25.992188 -26.207031 26.75 -27.410156 26.75 -28.921875 L 26.75 -34.09375 C 26.75 -37.332031 26.066406 -39.550781 24.703125 -40.75 C 23.335938 -41.945312 21.425781 -42.546875 18.96875 -42.546875 C 15.070312 -42.546875 12.316406 -41.539062 10.703125 -39.53125 C 11.816406 -39.25 12.75 -38.660156 13.5 -37.765625 C 14.25 -36.878906 14.625 -35.769531 14.625 -34.4375 C 14.625 -33.039062 14.175781 -31.9375 13.28125 -31.125 C 12.394531 -30.320312 11.253906 -29.921875 9.859375 -29.921875 C 8.296875 -29.921875 7.125 -30.40625 6.34375 -31.375 C 5.570312 -32.351562 5.1875 -33.539062 5.1875 -34.9375 C 5.1875 -36.269531 5.503906 -37.378906 6.140625 -38.265625 C 6.785156 -39.160156 7.75 -40.054688 9.03125 -40.953125 C 10.363281 -41.898438 12.0625 -42.679688 14.125 -43.296875 C 16.1875 -43.910156 18.441406 -44.21875 20.890625 -44.21875 C 25.234375 -44.21875 28.519531 -43.1875 30.75 -41.125 C 32.144531 -39.84375 33.078125 -38.296875 33.546875 -36.484375 C 34.023438 -34.671875 34.265625 -32.285156 34.265625 -29.328125 L 34.265625 -6.09375 C 34.265625 -4.707031 34.457031 -3.707031 34.84375 -3.09375 C 35.238281 -2.476562 35.910156 -2.171875 36.859375 -2.171875 C 37.523438 -2.171875 38.148438 -2.320312 38.734375 -2.625 C 39.316406 -2.9375 39.945312 -3.367188 40.625 -3.921875 L 41.53125 -2.5 C 40.082031 -1.382812 38.84375 -0.59375 37.8125 -0.125 C 36.78125 0.34375 35.488281 0.578125 33.9375 0.578125 C 31.257812 0.578125 29.390625 -0.0859375 28.328125 -1.421875 C 27.273438 -2.753906 26.75 -4.566406 26.75 -6.859375 C 25.070312 -4.066406 23.144531 -2.128906 20.96875 -1.046875 C 18.800781 0.0351562 16.351562 0.578125 13.625 0.578125 Z M 17.296875 -2.765625 C 20.972656 -2.765625 24.125 -4.878906 26.75 -9.109375 L 26.75 -25.484375 C 26.25 -24.710938 25.550781 -24.070312 24.65625 -23.5625 C 23.757812 -23.0625 22.394531 -22.394531 20.5625 -21.5625 C 18.445312 -20.664062 16.734375 -19.8125 15.421875 -19 C 14.109375 -18.195312 12.976562 -17.097656 12.03125 -15.703125 C 11.082031 -14.316406 10.609375 -12.535156 10.609375 -10.359375 C 10.609375 -7.859375 11.222656 -5.96875 12.453125 -4.6875 C 13.679688 -3.40625 15.296875 -2.765625 17.296875 -2.765625 Z M 17.296875 -2.765625 "/></g></g><g style="fill:rgb(0%,0%,0%);fill-opacity:1;"><g transform="translate(460.012899, 348.557298)"><path style="stroke:none;" d="M 39.359375 -35.515625 C 38.359375 -35.515625 37.507812 -35.847656 36.8125 -36.515625 C 36.113281 -37.191406 35.765625 -38.171875 35.765625 -39.453125 C 35.765625 -40.566406 36.046875 -41.847656 36.609375 -43.296875 C 35.160156 -42.679688 34.015625 -42 33.171875 -41.25 C 32.335938 -40.5 31.585938 -39.566406 30.921875 -38.453125 C 32.203125 -36.492188 32.84375 -34.007812 32.84375 -31 C 32.84375 -26.601562 31.503906 -23.300781 28.828125 -21.09375 C 26.160156 -18.894531 22.625 -17.796875 18.21875 -17.796875 L 18.140625 -17.796875 C 16.296875 -16.742188 14.898438 -15.769531 13.953125 -14.875 C 13.003906 -13.988281 12.53125 -12.988281 12.53125 -11.875 C 12.53125 -10.082031 13.867188 -9.1875 16.546875 -9.1875 L 27 -9.1875 C 30.78125 -9.1875 33.910156 -8.363281 36.390625 -6.71875 C 38.878906 -5.082031 40.125 -2.617188 40.125 0.671875 C 40.125 3.347656 39.257812 5.828125 37.53125 8.109375 C 35.800781 10.390625 33.265625 12.226562 29.921875 13.625 C 26.578125 15.019531 22.535156 15.71875 17.796875 15.71875 C 12.953125 15.71875 8.898438 14.976562 5.640625 13.5 C 2.378906 12.019531 0.75 9.832031 0.75 6.9375 C 0.75 5.039062 1.515625 3.394531 3.046875 2 C 4.578125 0.613281 6.707031 -0.46875 9.4375 -1.25 L 9.953125 0.078125 C 8.722656 0.472656 7.742188 1.253906 7.015625 2.421875 C 6.296875 3.585938 5.9375 4.898438 5.9375 6.359375 C 5.9375 8.921875 7.09375 10.882812 9.40625 12.25 C 11.71875 13.613281 14.820312 14.296875 18.71875 14.296875 C 23.007812 14.296875 26.6875 13.472656 29.75 11.828125 C 32.8125 10.179688 34.34375 7.628906 34.34375 4.171875 C 34.34375 2.171875 33.632812 0.613281 32.21875 -0.5 C 30.800781 -1.613281 28.28125 -2.171875 24.65625 -2.171875 L 18.46875 -2.171875 C 15.1875 -2.171875 12.554688 -2.585938 10.578125 -3.421875 C 8.597656 -4.265625 7.609375 -5.9375 7.609375 -8.4375 C 7.609375 -10.164062 8.234375 -11.8125 9.484375 -13.375 C 10.734375 -14.9375 12.8125 -16.46875 15.71875 -17.96875 C 12.039062 -18.351562 9.097656 -19.632812 6.890625 -21.8125 C 4.691406 -23.988281 3.59375 -27.050781 3.59375 -31 C 3.59375 -35.40625 4.929688 -38.707031 7.609375 -40.90625 C 10.285156 -43.113281 13.820312 -44.21875 18.21875 -44.21875 C 23.457031 -44.21875 27.332031 -42.765625 29.84375 -39.859375 C 30.894531 -41.367188 32.226562 -42.609375 33.84375 -43.578125 C 35.457031 -44.554688 37.078125 -45.046875 38.703125 -45.046875 C 40.148438 -45.046875 41.316406 -44.628906 42.203125 -43.796875 C 43.097656 -42.960938 43.546875 -41.765625 43.546875 -40.203125 C 43.546875 -38.640625 43.113281 -37.46875 42.25 -36.6875 C 41.382812 -35.90625 40.421875 -35.515625 39.359375 -35.515625 Z M 18.21875 -19.3125 C 20.445312 -19.3125 22.128906 -20.1875 23.265625 -21.9375 C 24.410156 -23.695312 24.984375 -26.71875 24.984375 -31 C 24.984375 -35.289062 24.410156 -38.3125 23.265625 -40.0625 C 22.128906 -41.820312 20.445312 -42.703125 18.21875 -42.703125 C 15.988281 -42.703125 14.300781 -41.820312 13.15625 -40.0625 C 12.019531 -38.3125 11.453125 -35.289062 11.453125 -31 C 11.453125 -26.71875 12.019531 -23.695312 13.15625 -21.9375 C 14.300781 -20.1875 15.988281 -19.3125 18.21875 -19.3125 Z M 18.21875 -19.3125 "/></g></g><g style="fill:rgb(0%,0%,0%);fill-opacity:1;"><g transform="translate(504.138916, 348.557298)"><path style="stroke:none;" d="M 38.703125 -10.03125 C 37.691406 -6.96875 35.804688 -4.332031 33.046875 -2.125 C 30.296875 0.0703125 26.96875 1.171875 23.0625 1.171875 C 19.113281 1.171875 15.6875 0.265625 12.78125 -1.546875 C 9.882812 -3.359375 7.671875 -5.894531 6.140625 -9.15625 C 4.609375 -12.414062 3.84375 -16.191406 3.84375 -20.484375 C 3.84375 -25.328125 4.625 -29.53125 6.1875 -33.09375 C 7.75 -36.664062 9.945312 -39.410156 12.78125 -41.328125 C 15.625 -43.253906 18.941406 -44.21875 22.734375 -44.21875 C 27.742188 -44.21875 31.597656 -42.695312 34.296875 -39.65625 C 37.003906 -36.625 38.359375 -32.015625 38.359375 -25.828125 L 12.203125 -25.828125 C 12.035156 -24.265625 11.953125 -22.484375 11.953125 -20.484375 C 11.953125 -16.796875 12.550781 -13.585938 13.75 -10.859375 C 14.945312 -8.128906 16.535156 -6.023438 18.515625 -4.546875 C 20.492188 -3.078125 22.566406 -2.34375 24.734375 -2.34375 C 27.410156 -2.34375 29.78125 -2.984375 31.84375 -4.265625 C 33.90625 -5.546875 35.632812 -7.691406 37.03125 -10.703125 Z M 22.40625 -42.625 C 19.78125 -42.625 17.519531 -41.34375 15.625 -38.78125 C 13.726562 -36.21875 12.5625 -32.425781 12.125 -27.40625 L 30.34375 -27.40625 C 30.445312 -31.757812 29.816406 -35.382812 28.453125 -38.28125 C 27.085938 -41.175781 25.070312 -42.625 22.40625 -42.625 Z M 22.40625 -42.625 "/></g></g><g style="fill:rgb(0%,0%,0%);fill-opacity:1;"><g transform="translate(222.553424, 393.21051)"><path style="stroke:none;" d="M 1.421875 0 L 1.421875 -11.296875 L 6.1875 -11.296875 C 6.675781 -11.296875 7.125 -11.191406 7.53125 -10.984375 C 7.945312 -10.785156 8.300781 -10.519531 8.59375 -10.1875 C 8.894531 -9.851562 9.125 -9.472656 9.28125 -9.046875 C 9.445312 -8.617188 9.53125 -8.1875 9.53125 -7.75 C 9.53125 -7.34375 9.46875 -6.945312 9.34375 -6.5625 C 9.226562 -6.1875 9.0625 -5.847656 8.84375 -5.546875 C 8.625 -5.242188 8.359375 -4.988281 8.046875 -4.78125 C 7.742188 -4.570312 7.398438 -4.429688 7.015625 -4.359375 L 9.796875 0 L 8.53125 0 L 5.875 -4.171875 L 2.53125 -4.171875 L 2.53125 0 Z M 2.53125 -5.15625 L 6.21875 -5.15625 C 6.550781 -5.15625 6.851562 -5.226562 7.125 -5.375 C 7.394531 -5.519531 7.625 -5.710938 7.8125 -5.953125 C 8.007812 -6.203125 8.160156 -6.476562 8.265625 -6.78125 C 8.367188 -7.09375 8.421875 -7.414062 8.421875 -7.75 C 8.421875 -8.09375 8.359375 -8.421875 8.234375 -8.734375 C 8.117188 -9.046875 7.957031 -9.316406 7.75 -9.546875 C 7.539062 -9.785156 7.296875 -9.972656 7.015625 -10.109375 C 6.734375 -10.242188 6.4375 -10.3125 6.125 -10.3125 L 2.53125 -10.3125 Z M 2.53125 -5.15625 "/></g></g><g style="fill:rgb(0%,0%,0%);fill-opacity:1;"><g transform="translate(235.335969, 393.21051)"><path style="stroke:none;" d="M 9.015625 -0.984375 L 9.015625 0 L 1.421875 0 L 1.421875 -11.296875 L 8.875 -11.296875 L 8.875 -10.3125 L 2.53125 -10.3125 L 2.53125 -6.234375 L 8.0625 -6.234375 L 8.0625 -5.296875 L 2.53125 -5.296875 L 2.53125 -0.984375 Z M 9.015625 -0.984375 "/></g></g><g style="fill:rgb(0%,0%,0%);fill-opacity:1;"><g transform="translate(247.418093, 393.21051)"><path style="stroke:none;" d="M 4.921875 -11.296875 L 5.859375 -11.296875 L 10.5625 0 L 9.375 0 L 7.90625 -3.53125 L 2.828125 -3.53125 L 1.390625 0 L 0.1875 0 Z M 7.65625 -4.40625 L 5.375 -10 L 3.078125 -4.40625 Z M 7.65625 -4.40625 "/></g></g><g style="fill:rgb(0%,0%,0%);fill-opacity:1;"><g transform="translate(260.566757, 393.21051)"><path style="stroke:none;" d="M 1.421875 0 L 1.421875 -11.296875 L 2.53125 -11.296875 L 2.53125 -0.984375 L 9.0625 -0.984375 L 9.0625 0 Z M 1.421875 0 "/></g></g><g style="fill:rgb(0%,0%,0%);fill-opacity:1;"><g transform="translate(272.235003, 393.21051)"><path style="stroke:none;" d=""/></g></g><g style="fill:rgb(0%,0%,0%);fill-opacity:1;"><g transform="translate(278.68198, 393.21051)"><path style="stroke:none;" d="M 9.015625 -0.984375 L 9.015625 0 L 1.421875 0 L 1.421875 -11.296875 L 8.875 -11.296875 L 8.875 -10.3125 L 2.53125 -10.3125 L 2.53125 -6.234375 L 8.0625 -6.234375 L 8.0625 -5.296875 L 2.53125 -5.296875 L 2.53125 -0.984375 Z M 9.015625 -0.984375 "/></g></g><g style="fill:rgb(0%,0%,0%);fill-opacity:1;"><g transform="translate(290.764106, 393.21051)"><path style="stroke:none;" d="M 8.03125 -9.1875 C 7.707031 -9.550781 7.28125 -9.84375 6.75 -10.0625 C 6.21875 -10.28125 5.613281 -10.390625 4.9375 -10.390625 C 3.9375 -10.390625 3.207031 -10.203125 2.75 -9.828125 C 2.289062 -9.453125 2.0625 -8.941406 2.0625 -8.296875 C 2.0625 -7.953125 2.125 -7.671875 2.25 -7.453125 C 2.375 -7.242188 2.5625 -7.054688 2.8125 -6.890625 C 3.070312 -6.734375 3.398438 -6.597656 3.796875 -6.484375 C 4.191406 -6.367188 4.660156 -6.25 5.203125 -6.125 C 5.804688 -6 6.347656 -5.859375 6.828125 -5.703125 C 7.316406 -5.546875 7.726562 -5.347656 8.0625 -5.109375 C 8.40625 -4.867188 8.664062 -4.578125 8.84375 -4.234375 C 9.03125 -3.890625 9.125 -3.46875 9.125 -2.96875 C 9.125 -2.445312 9.019531 -1.992188 8.8125 -1.609375 C 8.613281 -1.222656 8.332031 -0.898438 7.96875 -0.640625 C 7.613281 -0.390625 7.1875 -0.203125 6.6875 -0.078125 C 6.1875 0.0351562 5.640625 0.09375 5.046875 0.09375 C 3.296875 0.09375 1.785156 -0.453125 0.515625 -1.546875 L 1.0625 -2.453125 C 1.269531 -2.242188 1.515625 -2.039062 1.796875 -1.84375 C 2.078125 -1.65625 2.390625 -1.488281 2.734375 -1.34375 C 3.078125 -1.195312 3.441406 -1.082031 3.828125 -1 C 4.222656 -0.925781 4.640625 -0.890625 5.078125 -0.890625 C 5.984375 -0.890625 6.6875 -1.050781 7.1875 -1.375 C 7.6875 -1.695312 7.9375 -2.1875 7.9375 -2.84375 C 7.9375 -3.195312 7.863281 -3.492188 7.71875 -3.734375 C 7.582031 -3.972656 7.367188 -4.179688 7.078125 -4.359375 C 6.796875 -4.535156 6.441406 -4.6875 6.015625 -4.8125 C 5.585938 -4.9375 5.09375 -5.0625 4.53125 -5.1875 C 3.9375 -5.320312 3.414062 -5.460938 2.96875 -5.609375 C 2.53125 -5.765625 2.15625 -5.953125 1.84375 -6.171875 C 1.539062 -6.398438 1.3125 -6.671875 1.15625 -6.984375 C 1 -7.296875 0.921875 -7.679688 0.921875 -8.140625 C 0.921875 -8.660156 1.019531 -9.125 1.21875 -9.53125 C 1.414062 -9.9375 1.691406 -10.273438 2.046875 -10.546875 C 2.410156 -10.816406 2.835938 -11.023438 3.328125 -11.171875 C 3.816406 -11.316406 4.359375 -11.390625 4.953125 -11.390625 C 5.703125 -11.390625 6.367188 -11.273438 6.953125 -11.046875 C 7.546875 -10.816406 8.082031 -10.492188 8.5625 -10.078125 Z M 8.03125 -9.1875 "/></g></g><g style="fill:rgb(0%,0%,0%);fill-opacity:1;"><g transform="translate(302.814397, 393.21051)"><path style="stroke:none;" d="M 9.4375 -10.3125 L 5.40625 -10.3125 L 5.40625 0 L 4.296875 0 L 4.296875 -10.3125 L 0.265625 -10.3125 L 0.265625 -11.296875 L 9.4375 -11.296875 Z M 9.4375 -10.3125 "/></g></g><g style="fill:rgb(0%,0%,0%);fill-opacity:1;"><g transform="translate(314.912447, 393.21051)"><path style="stroke:none;" d="M 4.921875 -11.296875 L 5.859375 -11.296875 L 10.5625 0 L 9.375 0 L 7.90625 -3.53125 L 2.828125 -3.53125 L 1.390625 0 L 0.1875 0 Z M 7.65625 -4.40625 L 5.375 -10 L 3.078125 -4.40625 Z M 7.65625 -4.40625 "/></g></g><g style="fill:rgb(0%,0%,0%);fill-opacity:1;"><g transform="translate(328.061115, 393.21051)"><path style="stroke:none;" d="M 9.4375 -10.3125 L 5.40625 -10.3125 L 5.40625 0 L 4.296875 0 L 4.296875 -10.3125 L 0.265625 -10.3125 L 0.265625 -11.296875 L 9.4375 -11.296875 Z M 9.4375 -10.3125 "/></g></g><g style="fill:rgb(0%,0%,0%);fill-opacity:1;"><g transform="translate(340.159166, 393.21051)"><path style="stroke:none;" d="M 9.015625 -0.984375 L 9.015625 0 L 1.421875 0 L 1.421875 -11.296875 L 8.875 -11.296875 L 8.875 -10.3125 L 2.53125 -10.3125 L 2.53125 -6.234375 L 8.0625 -6.234375 L 8.0625 -5.296875 L 2.53125 -5.296875 L 2.53125 -0.984375 Z M 9.015625 -0.984375 "/></g></g><g style="fill:rgb(0%,0%,0%);fill-opacity:1;"><g transform="translate(352.241292, 393.21051)"><path style="stroke:none;" d=""/></g></g><g style="fill:rgb(0%,0%,0%);fill-opacity:1;"><g transform="translate(358.688261, 393.21051)"><path style="stroke:none;" d="M 9.09375 0 L 7.78125 -1.375 C 7.332031 -0.894531 6.816406 -0.519531 6.234375 -0.25 C 5.660156 0.0195312 5.035156 0.15625 4.359375 0.15625 C 3.859375 0.15625 3.390625 0.0820312 2.953125 -0.0625 C 2.515625 -0.207031 2.132812 -0.414062 1.8125 -0.6875 C 1.488281 -0.957031 1.226562 -1.28125 1.03125 -1.65625 C 0.84375 -2.039062 0.75 -2.457031 0.75 -2.90625 C 0.75 -3.289062 0.8125 -3.640625 0.9375 -3.953125 C 1.0625 -4.273438 1.234375 -4.570312 1.453125 -4.84375 C 1.679688 -5.113281 1.9375 -5.363281 2.21875 -5.59375 C 2.507812 -5.832031 2.816406 -6.054688 3.140625 -6.265625 C 2.847656 -6.578125 2.601562 -6.851562 2.40625 -7.09375 C 2.21875 -7.34375 2.0625 -7.570312 1.9375 -7.78125 C 1.8125 -7.988281 1.722656 -8.1875 1.671875 -8.375 C 1.617188 -8.5625 1.59375 -8.757812 1.59375 -8.96875 C 1.59375 -9.3125 1.660156 -9.632812 1.796875 -9.9375 C 1.941406 -10.238281 2.140625 -10.5 2.390625 -10.71875 C 2.648438 -10.945312 2.953125 -11.125 3.296875 -11.25 C 3.648438 -11.382812 4.023438 -11.453125 4.421875 -11.453125 C 4.796875 -11.453125 5.140625 -11.394531 5.453125 -11.28125 C 5.773438 -11.175781 6.054688 -11.023438 6.296875 -10.828125 C 6.535156 -10.640625 6.722656 -10.40625 6.859375 -10.125 C 6.992188 -9.851562 7.0625 -9.550781 7.0625 -9.21875 C 7.0625 -8.882812 6.992188 -8.582031 6.859375 -8.3125 C 6.734375 -8.039062 6.554688 -7.785156 6.328125 -7.546875 C 6.109375 -7.304688 5.847656 -7.070312 5.546875 -6.84375 C 5.253906 -6.625 4.9375 -6.398438 4.59375 -6.171875 L 7.765625 -2.859375 C 7.984375 -3.265625 8.148438 -3.703125 8.265625 -4.171875 C 8.390625 -4.648438 8.453125 -5.148438 8.453125 -5.671875 L 9.375 -5.671875 C 9.363281 -5.015625 9.273438 -4.390625 9.109375 -3.796875 C 8.953125 -3.210938 8.71875 -2.679688 8.40625 -2.203125 L 10.53125 0 Z M 4.46875 -0.71875 C 5.007812 -0.71875 5.507812 -0.832031 5.96875 -1.0625 C 6.425781 -1.289062 6.832031 -1.601562 7.1875 -2 L 3.75 -5.625 C 3.1875 -5.226562 2.71875 -4.8125 2.34375 -4.375 C 1.976562 -3.945312 1.796875 -3.445312 1.796875 -2.875 C 1.796875 -2.53125 1.875 -2.222656 2.03125 -1.953125 C 2.1875 -1.679688 2.390625 -1.453125 2.640625 -1.265625 C 2.898438 -1.078125 3.1875 -0.9375 3.5 -0.84375 C 3.820312 -0.757812 4.144531 -0.71875 4.46875 -0.71875 Z M 2.59375 -9 C 2.59375 -8.875 2.609375 -8.742188 2.640625 -8.609375 C 2.679688 -8.484375 2.753906 -8.335938 2.859375 -8.171875 C 2.972656 -8.003906 3.113281 -7.8125 3.28125 -7.59375 C 3.457031 -7.382812 3.691406 -7.128906 3.984375 -6.828125 C 4.597656 -7.234375 5.097656 -7.613281 5.484375 -7.96875 C 5.867188 -8.320312 6.0625 -8.726562 6.0625 -9.1875 C 6.0625 -9.601562 5.90625 -9.941406 5.59375 -10.203125 C 5.289062 -10.472656 4.898438 -10.609375 4.421875 -10.609375 C 4.160156 -10.609375 3.914062 -10.5625 3.6875 -10.46875 C 3.46875 -10.382812 3.273438 -10.269531 3.109375 -10.125 C 2.941406 -9.976562 2.8125 -9.804688 2.71875 -9.609375 C 2.632812 -9.421875 2.59375 -9.21875 2.59375 -9 Z M 2.59375 -9 "/></g></g><g style="fill:rgb(0%,0%,0%);fill-opacity:1;"><g transform="translate(371.693658, 393.21051)"><path style="stroke:none;" d=""/></g></g><g style="fill:rgb(0%,0%,0%);fill-opacity:1;"><g transform="translate(378.140627, 393.21051)"><path style="stroke:none;" d="M 10.328125 -11.296875 L 10.328125 0 L 9.234375 0 L 9.234375 -5.28125 L 2.53125 -5.28125 L 2.53125 0 L 1.421875 0 L 1.421875 -11.296875 L 2.53125 -11.296875 L 2.53125 -6.265625 L 9.234375 -6.265625 L 9.234375 -11.296875 Z M 10.328125 -11.296875 "/></g></g><g style="fill:rgb(0%,0%,0%);fill-opacity:1;"><g transform="translate(392.276236, 393.21051)"><path style="stroke:none;" d="M 5.96875 0.078125 C 5.1875 0.078125 4.46875 -0.0820312 3.8125 -0.40625 C 3.15625 -0.726562 2.59375 -1.15625 2.125 -1.6875 C 1.664062 -2.226562 1.304688 -2.84375 1.046875 -3.53125 C 0.796875 -4.21875 0.671875 -4.925781 0.671875 -5.65625 C 0.671875 -6.40625 0.804688 -7.125 1.078125 -7.8125 C 1.347656 -8.507812 1.71875 -9.117188 2.1875 -9.640625 C 2.664062 -10.171875 3.226562 -10.59375 3.875 -10.90625 C 4.53125 -11.226562 5.234375 -11.390625 5.984375 -11.390625 C 6.773438 -11.390625 7.492188 -11.21875 8.140625 -10.875 C 8.796875 -10.539062 9.351562 -10.101562 9.8125 -9.5625 C 10.28125 -9.019531 10.640625 -8.40625 10.890625 -7.71875 C 11.140625 -7.039062 11.265625 -6.347656 11.265625 -5.640625 C 11.265625 -4.878906 11.128906 -4.15625 10.859375 -3.46875 C 10.585938 -2.78125 10.21875 -2.171875 9.75 -1.640625 C 9.28125 -1.117188 8.71875 -0.703125 8.0625 -0.390625 C 7.414062 -0.078125 6.71875 0.078125 5.96875 0.078125 Z M 1.78125 -5.65625 C 1.78125 -5.039062 1.878906 -4.445312 2.078125 -3.875 C 2.285156 -3.3125 2.570312 -2.804688 2.9375 -2.359375 C 3.3125 -1.921875 3.753906 -1.570312 4.265625 -1.3125 C 4.773438 -1.050781 5.34375 -0.921875 5.96875 -0.921875 C 6.601562 -0.921875 7.179688 -1.054688 7.703125 -1.328125 C 8.222656 -1.609375 8.660156 -1.972656 9.015625 -2.421875 C 9.378906 -2.867188 9.660156 -3.375 9.859375 -3.9375 C 10.054688 -4.5 10.15625 -5.070312 10.15625 -5.65625 C 10.15625 -6.269531 10.050781 -6.859375 9.84375 -7.421875 C 9.632812 -7.992188 9.34375 -8.492188 8.96875 -8.921875 C 8.601562 -9.359375 8.164062 -9.707031 7.65625 -9.96875 C 7.144531 -10.226562 6.582031 -10.359375 5.96875 -10.359375 C 5.332031 -10.359375 4.753906 -10.222656 4.234375 -9.953125 C 3.710938 -9.679688 3.269531 -9.320312 2.90625 -8.875 C 2.550781 -8.4375 2.273438 -7.9375 2.078125 -7.375 C 1.878906 -6.8125 1.78125 -6.238281 1.78125 -5.65625 Z M 1.78125 -5.65625 "/></g></g><g style="fill:rgb(0%,0%,0%);fill-opacity:1;"><g transform="translate(406.618778, 393.21051)"><path style="stroke:none;" d="M 11.4375 0 L 11.4375 -9.28125 L 7.3125 -2.109375 L 6.65625 -2.109375 L 2.53125 -9.28125 L 2.53125 0 L 1.421875 0 L 1.421875 -11.296875 L 2.5625 -11.296875 L 6.96875 -3.5625 L 11.421875 -11.296875 L 12.546875 -11.296875 L 12.546875 0 Z M 11.4375 0 "/></g></g><g style="fill:rgb(0%,0%,0%);fill-opacity:1;"><g transform="translate(422.967051, 393.21051)"><path style="stroke:none;" d="M 9.015625 -0.984375 L 9.015625 0 L 1.421875 0 L 1.421875 -11.296875 L 8.875 -11.296875 L 8.875 -10.3125 L 2.53125 -10.3125 L 2.53125 -6.234375 L 8.0625 -6.234375 L 8.0625 -5.296875 L 2.53125 -5.296875 L 2.53125 -0.984375 Z M 9.015625 -0.984375 "/></g></g><g style="fill:rgb(0%,0%,0%);fill-opacity:1;"><g transform="translate(435.049169, 393.21051)"><path style="stroke:none;" d="M 8.03125 -9.1875 C 7.707031 -9.550781 7.28125 -9.84375 6.75 -10.0625 C 6.21875 -10.28125 5.613281 -10.390625 4.9375 -10.390625 C 3.9375 -10.390625 3.207031 -10.203125 2.75 -9.828125 C 2.289062 -9.453125 2.0625 -8.941406 2.0625 -8.296875 C 2.0625 -7.953125 2.125 -7.671875 2.25 -7.453125 C 2.375 -7.242188 2.5625 -7.054688 2.8125 -6.890625 C 3.070312 -6.734375 3.398438 -6.597656 3.796875 -6.484375 C 4.191406 -6.367188 4.660156 -6.25 5.203125 -6.125 C 5.804688 -6 6.347656 -5.859375 6.828125 -5.703125 C 7.316406 -5.546875 7.726562 -5.347656 8.0625 -5.109375 C 8.40625 -4.867188 8.664062 -4.578125 8.84375 -4.234375 C 9.03125 -3.890625 9.125 -3.46875 9.125 -2.96875 C 9.125 -2.445312 9.019531 -1.992188 8.8125 -1.609375 C 8.613281 -1.222656 8.332031 -0.898438 7.96875 -0.640625 C 7.613281 -0.390625 7.1875 -0.203125 6.6875 -0.078125 C 6.1875 0.0351562 5.640625 0.09375 5.046875 0.09375 C 3.296875 0.09375 1.785156 -0.453125 0.515625 -1.546875 L 1.0625 -2.453125 C 1.269531 -2.242188 1.515625 -2.039062 1.796875 -1.84375 C 2.078125 -1.65625 2.390625 -1.488281 2.734375 -1.34375 C 3.078125 -1.195312 3.441406 -1.082031 3.828125 -1 C 4.222656 -0.925781 4.640625 -0.890625 5.078125 -0.890625 C 5.984375 -0.890625 6.6875 -1.050781 7.1875 -1.375 C 7.6875 -1.695312 7.9375 -2.1875 7.9375 -2.84375 C 7.9375 -3.195312 7.863281 -3.492188 7.71875 -3.734375 C 7.582031 -3.972656 7.367188 -4.179688 7.078125 -4.359375 C 6.796875 -4.535156 6.441406 -4.6875 6.015625 -4.8125 C 5.585938 -4.9375 5.09375 -5.0625 4.53125 -5.1875 C 3.9375 -5.320312 3.414062 -5.460938 2.96875 -5.609375 C 2.53125 -5.765625 2.15625 -5.953125 1.84375 -6.171875 C 1.539062 -6.398438 1.3125 -6.671875 1.15625 -6.984375 C 1 -7.296875 0.921875 -7.679688 0.921875 -8.140625 C 0.921875 -8.660156 1.019531 -9.125 1.21875 -9.53125 C 1.414062 -9.9375 1.691406 -10.273438 2.046875 -10.546875 C 2.410156 -10.816406 2.835938 -11.023438 3.328125 -11.171875 C 3.816406 -11.316406 4.359375 -11.390625 4.953125 -11.390625 C 5.703125 -11.390625 6.367188 -11.273438 6.953125 -11.046875 C 7.546875 -10.816406 8.082031 -10.492188 8.5625 -10.078125 Z M 8.03125 -9.1875 "/></g></g><g style="fill:rgb(0%,0%,0%);fill-opacity:1;"><g transform="translate(447.099453, 393.21051)"><path style="stroke:none;" d=""/></g></g><g style="fill:rgb(0%,0%,0%);fill-opacity:1;"><g transform="translate(453.546422, 393.21051)"><path style="stroke:none;" d="M 1.421875 0 L 1.421875 -11.296875 L 8.84375 -11.296875 L 8.84375 -10.3125 L 2.53125 -10.3125 L 2.53125 -6.15625 L 7.84375 -6.15625 L 7.84375 -5.234375 L 2.53125 -5.234375 L 2.53125 0 Z M 1.421875 0 "/></g></g><g style="fill:rgb(0%,0%,0%);fill-opacity:1;"><g transform="translate(465.310179, 393.21051)"><path style="stroke:none;" d="M 5.96875 0.078125 C 5.1875 0.078125 4.46875 -0.0820312 3.8125 -0.40625 C 3.15625 -0.726562 2.59375 -1.15625 2.125 -1.6875 C 1.664062 -2.226562 1.304688 -2.84375 1.046875 -3.53125 C 0.796875 -4.21875 0.671875 -4.925781 0.671875 -5.65625 C 0.671875 -6.40625 0.804688 -7.125 1.078125 -7.8125 C 1.347656 -8.507812 1.71875 -9.117188 2.1875 -9.640625 C 2.664062 -10.171875 3.226562 -10.59375 3.875 -10.90625 C 4.53125 -11.226562 5.234375 -11.390625 5.984375 -11.390625 C 6.773438 -11.390625 7.492188 -11.21875 8.140625 -10.875 C 8.796875 -10.539062 9.351562 -10.101562 9.8125 -9.5625 C 10.28125 -9.019531 10.640625 -8.40625 10.890625 -7.71875 C 11.140625 -7.039062 11.265625 -6.347656 11.265625 -5.640625 C 11.265625 -4.878906 11.128906 -4.15625 10.859375 -3.46875 C 10.585938 -2.78125 10.21875 -2.171875 9.75 -1.640625 C 9.28125 -1.117188 8.71875 -0.703125 8.0625 -0.390625 C 7.414062 -0.078125 6.71875 0.078125 5.96875 0.078125 Z M 1.78125 -5.65625 C 1.78125 -5.039062 1.878906 -4.445312 2.078125 -3.875 C 2.285156 -3.3125 2.570312 -2.804688 2.9375 -2.359375 C 3.3125 -1.921875 3.753906 -1.570312 4.265625 -1.3125 C 4.773438 -1.050781 5.34375 -0.921875 5.96875 -0.921875 C 6.601562 -0.921875 7.179688 -1.054688 7.703125 -1.328125 C 8.222656 -1.609375 8.660156 -1.972656 9.015625 -2.421875 C 9.378906 -2.867188 9.660156 -3.375 9.859375 -3.9375 C 10.054688 -4.5 10.15625 -5.070312 10.15625 -5.65625 C 10.15625 -6.269531 10.050781 -6.859375 9.84375 -7.421875 C 9.632812 -7.992188 9.34375 -8.492188 8.96875 -8.921875 C 8.601562 -9.359375 8.164062 -9.707031 7.65625 -9.96875 C 7.144531 -10.226562 6.582031 -10.359375 5.96875 -10.359375 C 5.332031 -10.359375 4.753906 -10.222656 4.234375 -9.953125 C 3.710938 -9.679688 3.269531 -9.320312 2.90625 -8.875 C 2.550781 -8.4375 2.273438 -7.9375 2.078125 -7.375 C 1.878906 -6.8125 1.78125 -6.238281 1.78125 -5.65625 Z M 1.78125 -5.65625 "/></g></g><g style="fill:rgb(0%,0%,0%);fill-opacity:1;"><g transform="translate(479.652736, 393.21051)"><path style="stroke:none;" d="M 1.421875 0 L 1.421875 -11.296875 L 6.1875 -11.296875 C 6.675781 -11.296875 7.125 -11.191406 7.53125 -10.984375 C 7.945312 -10.785156 8.300781 -10.519531 8.59375 -10.1875 C 8.894531 -9.851562 9.125 -9.472656 9.28125 -9.046875 C 9.445312 -8.617188 9.53125 -8.1875 9.53125 -7.75 C 9.53125 -7.34375 9.46875 -6.945312 9.34375 -6.5625 C 9.226562 -6.1875 9.0625 -5.847656 8.84375 -5.546875 C 8.625 -5.242188 8.359375 -4.988281 8.046875 -4.78125 C 7.742188 -4.570312 7.398438 -4.429688 7.015625 -4.359375 L 9.796875 0 L 8.53125 0 L 5.875 -4.171875 L 2.53125 -4.171875 L 2.53125 0 Z M 2.53125 -5.15625 L 6.21875 -5.15625 C 6.550781 -5.15625 6.851562 -5.226562 7.125 -5.375 C 7.394531 -5.519531 7.625 -5.710938 7.8125 -5.953125 C 8.007812 -6.203125 8.160156 -6.476562 8.265625 -6.78125 C 8.367188 -7.09375 8.421875 -7.414062 8.421875 -7.75 C 8.421875 -8.09375 8.359375 -8.421875 8.234375 -8.734375 C 8.117188 -9.046875 7.957031 -9.316406 7.75 -9.546875 C 7.539062 -9.785156 7.296875 -9.972656 7.015625 -10.109375 C 6.734375 -10.242188 6.4375 -10.3125 6.125 -10.3125 L 2.53125 -10.3125 Z M 2.53125 -5.15625 "/></g></g><g style="fill:rgb(0%,0%,0%);fill-opacity:1;"><g transform="translate(492.435276, 393.21051)"><path style="stroke:none;" d=""/></g></g><g style="fill:rgb(0%,0%,0%);fill-opacity:1;"><g transform="translate(498.88226, 393.21051)"><path style="stroke:none;" d="M 8.03125 -9.1875 C 7.707031 -9.550781 7.28125 -9.84375 6.75 -10.0625 C 6.21875 -10.28125 5.613281 -10.390625 4.9375 -10.390625 C 3.9375 -10.390625 3.207031 -10.203125 2.75 -9.828125 C 2.289062 -9.453125 2.0625 -8.941406 2.0625 -8.296875 C 2.0625 -7.953125 2.125 -7.671875 2.25 -7.453125 C 2.375 -7.242188 2.5625 -7.054688 2.8125 -6.890625 C 3.070312 -6.734375 3.398438 -6.597656 3.796875 -6.484375 C 4.191406 -6.367188 4.660156 -6.25 5.203125 -6.125 C 5.804688 -6 6.347656 -5.859375 6.828125 -5.703125 C 7.316406 -5.546875 7.726562 -5.347656 8.0625 -5.109375 C 8.40625 -4.867188 8.664062 -4.578125 8.84375 -4.234375 C 9.03125 -3.890625 9.125 -3.46875 9.125 -2.96875 C 9.125 -2.445312 9.019531 -1.992188 8.8125 -1.609375 C 8.613281 -1.222656 8.332031 -0.898438 7.96875 -0.640625 C 7.613281 -0.390625 7.1875 -0.203125 6.6875 -0.078125 C 6.1875 0.0351562 5.640625 0.09375 5.046875 0.09375 C 3.296875 0.09375 1.785156 -0.453125 0.515625 -1.546875 L 1.0625 -2.453125 C 1.269531 -2.242188 1.515625 -2.039062 1.796875 -1.84375 C 2.078125 -1.65625 2.390625 -1.488281 2.734375 -1.34375 C 3.078125 -1.195312 3.441406 -1.082031 3.828125 -1 C 4.222656 -0.925781 4.640625 -0.890625 5.078125 -0.890625 C 5.984375 -0.890625 6.6875 -1.050781 7.1875 -1.375 C 7.6875 -1.695312 7.9375 -2.1875 7.9375 -2.84375 C 7.9375 -3.195312 7.863281 -3.492188 7.71875 -3.734375 C 7.582031 -3.972656 7.367188 -4.179688 7.078125 -4.359375 C 6.796875 -4.535156 6.441406 -4.6875 6.015625 -4.8125 C 5.585938 -4.9375 5.09375 -5.0625 4.53125 -5.1875 C 3.9375 -5.320312 3.414062 -5.460938 2.96875 -5.609375 C 2.53125 -5.765625 2.15625 -5.953125 1.84375 -6.171875 C 1.539062 -6.398438 1.3125 -6.671875 1.15625 -6.984375 C 1 -7.296875 0.921875 -7.679688 0.921875 -8.140625 C 0.921875 -8.660156 1.019531 -9.125 1.21875 -9.53125 C 1.414062 -9.9375 1.691406 -10.273438 2.046875 -10.546875 C 2.410156 -10.816406 2.835938 -11.023438 3.328125 -11.171875 C 3.816406 -11.316406 4.359375 -11.390625 4.953125 -11.390625 C 5.703125 -11.390625 6.367188 -11.273438 6.953125 -11.046875 C 7.546875 -10.816406 8.082031 -10.492188 8.5625 -10.078125 Z M 8.03125 -9.1875 "/></g></g><g style="fill:rgb(0%,0%,0%);fill-opacity:1;"><g transform="translate(510.932559, 393.21051)"><path style="stroke:none;" d="M 4.921875 -11.296875 L 5.859375 -11.296875 L 10.5625 0 L 9.375 0 L 7.90625 -3.53125 L 2.828125 -3.53125 L 1.390625 0 L 0.1875 0 Z M 7.65625 -4.40625 L 5.375 -10 L 3.078125 -4.40625 Z M 7.65625 -4.40625 "/></g></g><g style="fill:rgb(0%,0%,0%);fill-opacity:1;"><g transform="translate(524.081234, 393.21051)"><path style="stroke:none;" d="M 1.421875 0 L 1.421875 -11.296875 L 2.53125 -11.296875 L 2.53125 -0.984375 L 9.0625 -0.984375 L 9.0625 0 Z M 1.421875 0 "/></g></g><g style="fill:rgb(0%,0%,0%);fill-opacity:1;"><g transform="translate(535.749487, 393.21051)"><path style="stroke:none;" d="M 9.015625 -0.984375 L 9.015625 0 L 1.421875 0 L 1.421875 -11.296875 L 8.875 -11.296875 L 8.875 -10.3125 L 2.53125 -10.3125 L 2.53125 -6.234375 L 8.0625 -6.234375 L 8.0625 -5.296875 L 2.53125 -5.296875 L 2.53125 -0.984375 Z M 9.015625 -0.984375 "/></g></g></g></svg>